SplineFontDB: 3.2
FontName: ClassWizCWDisplayExtSmall
FullName: ClassWiz CW Display Ext Small
FamilyName: ClassWiz CW Display Ext Small
Weight: Regular
Copyright: Copyright (c) 2026, Hayden Wong (https://github.com/haydenwong7bm/),\nCopyright (c) 2023-2026, CASIO Computer Co., Ltd (https://www.casio.com/).
Version: 3.916
ItalicAngle: 0
UnderlinePosition: 0
UnderlineWidth: 0
Ascent: 100
Descent: 10
InvalidEm: 0
sfntRevision: 0x00014ccd
LayerCount: 2
Layer: 0 1 "Back" 1
Layer: 1 1 "Fore" 0
XUID: [1021 424 507760946 3750]
StyleMap: 0x0040
FSType: 0
OS2Version: 3
OS2_WeightWidthSlopeOnly: 0
OS2_UseTypoMetrics: 0
CreationTime: 1772793606
ModificationTime: 1782394485
PfmFamily: 81
TTFWeight: 400
TTFWidth: 5
LineGap: 0
VLineGap: 0
Panose: 0 0 0 0 0 0 0 0 0 0
OS2TypoAscent: 100
OS2TypoAOffset: 0
OS2TypoDescent: -10
OS2TypoDOffset: 0
OS2TypoLinegap: 10
OS2WinAscent: 110
OS2WinAOffset: 0
OS2WinDescent: 20
OS2WinDOffset: 0
HheadAscent: 120
HheadAOffset: 0
HheadDescent: -10
HheadDOffset: 0
OS2SubXSize: 80
OS2SubYSize: 70
OS2SubXOff: 0
OS2SubYOff: 5
OS2SupXSize: 80
OS2SupYSize: 70
OS2SupXOff: 0
OS2SupYOff: 15
OS2StrikeYSize: -10
OS2StrikeYPos: 54
OS2CapHeight: 90
OS2XHeight: 70
OS2Vendor: 'NONE'
OS2CodePages: 00000001.00000000
OS2UnicodeRanges: a000023f.100028e9.02000010.00000000
MarkAttachClasses: 1
DEI: 91125
ShortTable: maxp 16
  1
  0
  906
  51
  12
  0
  0
  2
  0
  0
  0
  0
  0
  0
  0
  0
EndShort

StartChar: .notdef
Encoding: 1114112 -1 0
Width: 60
VWidth: 140
GlyphClass: 1
Flags: W
LayerCount: 2
Fore
SplineSet
10 0 m 1,0,-1
 10 90 l 1,1,-1
 60 90 l 1,2,-1
 60 0 l 1,3,-1
 10 0 l 1,0,-1
20 10 m 1,4,-1
 50 10 l 1,5,-1
 50 80 l 1,6,-1
 20 80 l 1,7,-1
 20 10 l 1,4,-1
EndSplineSet
EndChar

StartChar: space
Encoding: 32 32 2
Width: 60
VWidth: 95
GlyphClass: 1
Flags: W
LayerCount: 2
Fore
SplineSet
0 10 m 1,0,-1
 0 10 l 1,1,-1
 0 10 l 1,2,-1
 0 10 l 1,0,-1
EndSplineSet
EndChar

StartChar: exclam
Encoding: 33 33 3
Width: 60
VWidth: 95
GlyphClass: 1
Flags: W
LayerCount: 2
Fore
SplineSet
30 90 m 1,0,-1
 40 90 l 1,1,-1
 40 30 l 1,2,-1
 30 30 l 1,3,-1
 30 90 l 1,0,-1
30 20 m 1,4,-1
 40 20 l 1,5,-1
 40 0 l 1,6,-1
 30 0 l 1,7,-1
 30 20 l 1,4,-1
EndSplineSet
EndChar

StartChar: quotedbl
Encoding: 34 34 4
Width: 60
VWidth: 95
GlyphClass: 1
Flags: W
LayerCount: 2
Fore
SplineSet
20 90 m 1,0,-1
 30 90 l 1,1,-1
 30 60 l 1,2,-1
 20 60 l 1,3,-1
 20 90 l 1,4,-1
 20 90 l 1,0,-1
40 90 m 1,5,-1
 50 90 l 1,6,-1
 50 60 l 1,7,-1
 40 60 l 1,8,-1
 40 90 l 1,5,-1
EndSplineSet
EndChar

StartChar: numbersign
Encoding: 35 35 5
Width: 60
VWidth: 95
GlyphClass: 1
Flags: W
LayerCount: 2
Fore
SplineSet
20 90 m 1,0,-1
 30 90 l 1,1,-1
 30 70 l 1,2,-1
 40 70 l 1,3,-1
 40 90 l 1,4,-1
 50 90 l 1,5,-1
 50 70 l 1,6,-1
 60 70 l 1,7,-1
 60 60 l 1,8,-1
 50 60 l 1,9,-1
 50 30 l 1,10,-1
 60 30 l 1,11,-1
 60 20 l 1,12,-1
 50 20 l 1,13,-1
 50 0 l 1,14,-1
 40 0 l 1,15,-1
 40 20 l 1,16,-1
 30 20 l 1,17,-1
 30 0 l 1,18,-1
 20 0 l 1,19,-1
 20 20 l 1,20,-1
 10 20 l 1,21,-1
 10 30 l 1,22,-1
 20 30 l 1,23,-1
 20 60 l 1,24,-1
 10 60 l 1,25,-1
 10 70 l 1,26,-1
 20 70 l 1,27,-1
 20 90 l 1,28,-1
 20 90 l 1,0,-1
40 60 m 1,29,-1
 30 60 l 1,30,-1
 30 30 l 1,31,-1
 40 30 l 1,32,-1
 40 60 l 1,29,-1
EndSplineSet
EndChar

StartChar: dollar
Encoding: 36 36 6
Width: 60
VWidth: 95
GlyphClass: 1
Flags: W
LayerCount: 2
Fore
SplineSet
30 90 m 1,0,-1
 40 90 l 1,1,-1
 40 80 l 1,2,-1
 50 80 l 1,3,-1
 50 70 l 1,4,-1
 40 70 l 1,5,-1
 40 50 l 1,6,-1
 50 50 l 1,7,-1
 50 40 l 1,8,-1
 40 40 l 1,9,-1
 40 20 l 1,10,-1
 50 20 l 1,11,-1
 50 40 l 1,12,-1
 60 40 l 1,13,-1
 60 20 l 1,14,-1
 50 20 l 1,15,-1
 50 10 l 1,16,-1
 40 10 l 1,17,-1
 40 0 l 1,18,-1
 30 0 l 1,19,-1
 30 10 l 1,20,-1
 20 10 l 1,21,-1
 20 20 l 1,22,-1
 10 20 l 1,23,-1
 10 30 l 1,24,-1
 20 30 l 1,25,-1
 20 20 l 1,26,-1
 30 20 l 1,27,-1
 30 40 l 1,28,-1
 20 40 l 1,29,-1
 20 50 l 1,30,-1
 10 50 l 1,31,-1
 10 70 l 1,32,-1
 20 70 l 1,33,-1
 20 80 l 1,34,-1
 30 80 l 1,35,-1
 30 90 l 1,36,-1
 30 90 l 1,0,-1
30 70 m 1,37,-1
 20 70 l 1,38,-1
 20 50 l 1,39,-1
 30 50 l 1,40,-1
 30 70 l 1,37,-1
50 70 m 1,41,-1
 60 70 l 1,42,-1
 60 60 l 1,43,-1
 50 60 l 1,44,-1
 50 70 l 1,41,-1
EndSplineSet
EndChar

StartChar: percent
Encoding: 37 37 7
Width: 60
VWidth: 95
GlyphClass: 1
Flags: W
LayerCount: 2
Fore
SplineSet
10 80 m 1,0,-1
 30 80 l 1,1,-1
 30 60 l 1,2,-1
 10 60 l 1,3,-1
 10 80 l 1,4,-1
 10 80 l 1,0,-1
50 80 m 1,5,-1
 60 80 l 1,6,-1
 60 70 l 1,7,-1
 50 70 l 1,8,-1
 50 80 l 1,5,-1
40 70 m 1,9,-1
 50 70 l 1,10,-1
 50 50 l 1,11,-1
 40 50 l 1,12,-1
 40 70 l 1,9,-1
30 50 m 1,13,-1
 40 50 l 1,14,-1
 40 30 l 1,15,-1
 30 30 l 1,16,-1
 30 50 l 1,13,-1
20 30 m 1,17,-1
 30 30 l 1,18,-1
 30 10 l 1,19,-1
 20 10 l 1,20,-1
 20 30 l 1,21,-1
 20 30 l 1,17,-1
40 20 m 1,22,-1
 60 20 l 1,23,-1
 60 0 l 1,24,-1
 40 0 l 1,25,-1
 40 20 l 1,22,-1
10 10 m 1,26,-1
 20 10 l 1,27,-1
 20 0 l 1,28,-1
 10 0 l 1,29,-1
 10 10 l 1,26,-1
EndSplineSet
EndChar

StartChar: ampersand
Encoding: 38 38 8
Width: 60
VWidth: 95
GlyphClass: 1
Flags: W
LayerCount: 2
Fore
SplineSet
20 90 m 1,0,-1
 40 90 l 1,1,-1
 40 80 l 1,2,-1
 20 80 l 1,3,-1
 20 90 l 1,0,-1
10 80 m 1,4,-1
 20 80 l 1,5,-1
 20 50 l 1,6,-1
 10 50 l 1,7,-1
 10 80 l 1,4,-1
40 80 m 1,8,-1
 50 80 l 1,9,-1
 50 60 l 1,10,-1
 40 60 l 1,11,-1
 40 80 l 1,8,-1
30 60 m 1,12,-1
 40 60 l 1,13,-1
 40 50 l 1,14,-1
 30 50 l 1,15,-1
 30 60 l 1,12,-1
20 50 m 1,16,-1
 30 50 l 1,17,-1
 30 40 l 1,18,-1
 20 40 l 1,19,-1
 20 50 l 1,20,-1
 20 50 l 1,16,-1
50 50 m 1,21,-1
 60 50 l 1,22,-1
 60 30 l 1,23,-1
 50 30 l 1,24,-1
 50 50 l 1,21,-1
10 40 m 1,25,-1
 20 40 l 1,26,-1
 20 10 l 1,27,-1
 10 10 l 1,28,-1
 10 40 l 1,29,-1
 10 40 l 1,25,-1
30 40 m 1,30,-1
 40 40 l 1,31,-1
 40 30 l 1,32,-1
 30 30 l 1,33,-1
 30 40 l 1,30,-1
40 30 m 1,34,-1
 50 30 l 1,35,-1
 50 10 l 1,36,-1
 40 10 l 1,37,-1
 40 30 l 1,34,-1
20 10 m 1,38,-1
 40 10 l 1,39,-1
 40 0 l 1,40,-1
 20 0 l 1,41,-1
 20 10 l 1,38,-1
50 10 m 1,42,-1
 60 10 l 1,43,-1
 60 0 l 1,44,-1
 50 0 l 1,45,-1
 50 10 l 1,42,-1
EndSplineSet
EndChar

StartChar: quotesingle
Encoding: 39 39 9
Width: 60
VWidth: 95
GlyphClass: 1
Flags: W
LayerCount: 2
Fore
SplineSet
30 90 m 1,0,-1
 40 90 l 1,1,-1
 40 60 l 1,2,-1
 30 60 l 1,3,-1
 30 90 l 1,0,-1
EndSplineSet
EndChar

StartChar: parenleft
Encoding: 40 40 10
Width: 60
VWidth: 95
GlyphClass: 1
Flags: W
LayerCount: 2
Fore
SplineSet
40 90 m 1,0,-1
 50 90 l 1,1,-1
 50 80 l 1,2,-1
 40 80 l 1,3,-1
 40 90 l 1,0,-1
30 80 m 1,4,-1
 40 80 l 1,5,-1
 40 70 l 1,6,-1
 30 70 l 1,7,-1
 30 80 l 1,4,-1
20 70 m 1,8,-1
 30 70 l 1,9,-1
 30 20 l 1,10,-1
 20 20 l 1,11,-1
 20 70 l 1,12,-1
 20 70 l 1,8,-1
30 20 m 1,13,-1
 40 20 l 1,14,-1
 40 10 l 1,15,-1
 30 10 l 1,16,-1
 30 20 l 1,13,-1
40 10 m 1,17,-1
 50 10 l 1,18,-1
 50 0 l 1,19,-1
 40 0 l 1,20,-1
 40 10 l 1,17,-1
EndSplineSet
EndChar

StartChar: parenright
Encoding: 41 41 11
Width: 60
VWidth: 95
GlyphClass: 1
Flags: W
LayerCount: 2
Fore
SplineSet
20 90 m 1,0,-1
 30 90 l 1,1,-1
 30 80 l 1,2,-1
 20 80 l 1,3,-1
 20 90 l 1,4,-1
 20 90 l 1,0,-1
30 80 m 1,5,-1
 40 80 l 1,6,-1
 40 70 l 1,7,-1
 30 70 l 1,8,-1
 30 80 l 1,5,-1
40 70 m 1,9,-1
 50 70 l 1,10,-1
 50 20 l 1,11,-1
 40 20 l 1,12,-1
 40 70 l 1,9,-1
30 20 m 1,13,-1
 40 20 l 1,14,-1
 40 10 l 1,15,-1
 30 10 l 1,16,-1
 30 20 l 1,13,-1
20 10 m 1,17,-1
 30 10 l 1,18,-1
 30 0 l 1,19,-1
 20 0 l 1,20,-1
 20 10 l 1,21,-1
 20 10 l 1,17,-1
EndSplineSet
EndChar

StartChar: plus
Encoding: 43 43 12
Width: 60
VWidth: 95
GlyphClass: 1
Flags: W
LayerCount: 2
Fore
SplineSet
30 70 m 1,0,-1
 40 70 l 1,1,-1
 40 50 l 1,2,-1
 60 50 l 1,3,-1
 60 40 l 1,4,-1
 40 40 l 1,5,-1
 40 20 l 1,6,-1
 30 20 l 1,7,-1
 30 40 l 1,8,-1
 10 40 l 1,9,-1
 10 50 l 1,10,-1
 30 50 l 1,11,-1
 30 70 l 1,12,-1
 30 70 l 1,0,-1
EndSplineSet
EndChar

StartChar: comma
Encoding: 44 44 13
Width: 60
VWidth: 95
GlyphClass: 1
Flags: W
LayerCount: 2
Fore
SplineSet
20 40 m 1,0,-1
 40 40 l 1,1,-1
 40 10 l 1,2,-1
 30 10 l 1,3,-1
 30 0 l 1,4,-1
 20 0 l 1,5,-1
 20 40 l 1,6,-1
 20 40 l 1,0,-1
EndSplineSet
EndChar

StartChar: hyphen
Encoding: 45 45 14
Width: 60
VWidth: 95
GlyphClass: 1
Flags: W
LayerCount: 2
Fore
SplineSet
10 50 m 1,0,-1
 60 50 l 1,1,-1
 60 40 l 1,2,-1
 10 40 l 1,3,-1
 10 50 l 1,4,-1
 10 50 l 1,0,-1
EndSplineSet
EndChar

StartChar: period
Encoding: 46 46 15
Width: 60
VWidth: 95
GlyphClass: 1
Flags: W
LayerCount: 2
Fore
SplineSet
20 20 m 1,0,-1
 40 20 l 1,1,-1
 40 0 l 1,2,-1
 20 0 l 1,3,-1
 20 20 l 1,0,-1
EndSplineSet
EndChar

StartChar: slash
Encoding: 47 47 16
Width: 60
VWidth: 95
GlyphClass: 1
Flags: W
LayerCount: 2
Fore
SplineSet
40 80 m 1,0,-1
 50 80 l 1,1,-1
 50 60 l 1,2,-1
 40 60 l 1,3,-1
 40 80 l 1,0,-1
30 60 m 1,4,-1
 40 60 l 1,5,-1
 40 40 l 1,6,-1
 30 40 l 1,7,-1
 30 60 l 1,8,-1
 30 60 l 1,4,-1
20 40 m 1,9,-1
 30 40 l 1,10,-1
 30 20 l 1,11,-1
 20 20 l 1,12,-1
 20 40 l 1,13,-1
 20 40 l 1,9,-1
10 20 m 1,14,-1
 20 20 l 1,15,-1
 20 0 l 1,16,-1
 10 0 l 1,17,-1
 10 20 l 1,14,-1
EndSplineSet
EndChar

StartChar: zero
Encoding: 48 48 17
Width: 60
VWidth: 95
GlyphClass: 1
Flags: W
LayerCount: 2
Fore
SplineSet
20 90 m 1,0,-1
 50 90 l 1,1,-1
 50 80 l 1,2,-1
 20 80 l 1,3,-1
 20 90 l 1,4,-1
 20 90 l 1,0,-1
10 80 m 1,5,-1
 20 80 l 1,6,-1
 20 10 l 1,7,-1
 10 10 l 1,8,-1
 10 80 l 1,5,-1
50 80 m 1,9,-1
 60 80 l 1,10,-1
 60 10 l 1,11,-1
 50 10 l 1,12,-1
 50 80 l 1,9,-1
20 10 m 1,13,-1
 50 10 l 1,14,-1
 50 0 l 1,15,-1
 20 0 l 1,16,-1
 20 10 l 1,17,-1
 20 10 l 1,13,-1
EndSplineSet
EndChar

StartChar: one
Encoding: 49 49 18
Width: 60
VWidth: 95
GlyphClass: 1
Flags: W
LayerCount: 2
Fore
SplineSet
30 90 m 1,0,-1
 40 90 l 1,1,-1
 40 0 l 1,2,-1
 30 0 l 1,3,-1
 30 70 l 1,4,-1
 20 70 l 1,5,-1
 20 80 l 1,6,-1
 30 80 l 1,7,-1
 30 90 l 1,0,-1
10 70 m 1,8,-1
 20 70 l 1,9,-1
 20 60 l 1,10,-1
 10 60 l 1,11,-1
 10 70 l 1,8,-1
EndSplineSet
EndChar

StartChar: two
Encoding: 50 50 19
Width: 60
VWidth: 95
GlyphClass: 1
Flags: W
LayerCount: 2
Fore
SplineSet
20 90 m 1,0,-1
 50 90 l 1,1,-1
 50 80 l 1,2,-1
 20 80 l 1,3,-1
 20 90 l 1,4,-1
 20 90 l 1,0,-1
10 80 m 1,5,-1
 20 80 l 1,6,-1
 20 70 l 1,7,-1
 10 70 l 1,8,-1
 10 80 l 1,5,-1
50 80 m 1,9,-1
 60 80 l 1,10,-1
 60 50 l 1,11,-1
 50 50 l 1,12,-1
 50 80 l 1,9,-1
40 50 m 1,13,-1
 50 50 l 1,14,-1
 50 40 l 1,15,-1
 40 40 l 1,16,-1
 40 50 l 1,13,-1
30 40 m 1,17,-1
 40 40 l 1,18,-1
 40 30 l 1,19,-1
 30 30 l 1,20,-1
 30 40 l 1,17,-1
20 30 m 1,21,-1
 30 30 l 1,22,-1
 30 20 l 1,23,-1
 20 20 l 1,24,-1
 20 30 l 1,25,-1
 20 30 l 1,21,-1
10 20 m 1,26,-1
 20 20 l 1,27,-1
 20 10 l 1,28,-1
 60 10 l 1,29,-1
 60 0 l 1,30,-1
 10 0 l 1,31,-1
 10 20 l 1,32,-1
 10 20 l 1,26,-1
EndSplineSet
EndChar

StartChar: three
Encoding: 51 51 20
Width: 60
VWidth: 95
GlyphClass: 1
Flags: W
LayerCount: 2
Fore
SplineSet
20 90 m 1,0,-1
 50 90 l 1,1,-1
 50 80 l 1,2,-1
 20 80 l 1,3,-1
 20 90 l 1,4,-1
 20 90 l 1,0,-1
10 80 m 1,5,-1
 20 80 l 1,6,-1
 20 70 l 1,7,-1
 10 70 l 1,8,-1
 10 80 l 1,5,-1
50 80 m 1,9,-1
 60 80 l 1,10,-1
 60 50 l 1,11,-1
 50 50 l 1,12,-1
 50 80 l 1,9,-1
30 50 m 1,13,-1
 50 50 l 1,14,-1
 50 40 l 1,15,-1
 30 40 l 1,16,-1
 30 50 l 1,17,-1
 30 50 l 1,13,-1
50 40 m 1,18,-1
 60 40 l 1,19,-1
 60 10 l 1,20,-1
 50 10 l 1,21,-1
 50 40 l 1,22,-1
 50 40 l 1,18,-1
10 20 m 1,23,-1
 20 20 l 1,24,-1
 20 10 l 1,25,-1
 10 10 l 1,26,-1
 10 20 l 1,23,-1
20 10 m 1,27,-1
 50 10 l 1,28,-1
 50 0 l 1,29,-1
 20 0 l 1,30,-1
 20 10 l 1,31,-1
 20 10 l 1,27,-1
EndSplineSet
EndChar

StartChar: four
Encoding: 52 52 21
Width: 60
VWidth: 95
GlyphClass: 1
Flags: W
LayerCount: 2
Fore
SplineSet
40 90 m 1,0,-1
 50 90 l 1,1,-1
 50 30 l 1,2,-1
 60 30 l 1,3,-1
 60 20 l 1,4,-1
 50 20 l 1,5,-1
 50 0 l 1,6,-1
 40 0 l 1,7,-1
 40 20 l 1,8,-1
 10 20 l 1,9,-1
 10 40 l 1,10,-1
 20 40 l 1,11,-1
 20 60 l 1,12,-1
 30 60 l 1,13,-1
 30 80 l 1,14,-1
 40 80 l 1,15,-1
 40 90 l 1,16,-1
 40 90 l 1,0,-1
40 60 m 1,17,-1
 30 60 l 1,18,-1
 30 40 l 1,19,-1
 20 40 l 1,20,-1
 20 30 l 1,21,-1
 40 30 l 1,22,-1
 40 60 l 1,23,-1
 40 60 l 1,17,-1
EndSplineSet
EndChar

StartChar: five
Encoding: 53 53 22
Width: 60
VWidth: 95
GlyphClass: 1
Flags: W
LayerCount: 2
Fore
SplineSet
10 90 m 1,0,-1
 60 90 l 1,1,-1
 60 80 l 1,2,-1
 20 80 l 1,3,-1
 20 60 l 1,4,-1
 50 60 l 1,5,-1
 50 50 l 1,6,-1
 10 50 l 1,7,-1
 10 90 l 1,8,-1
 10 90 l 1,0,-1
50 50 m 1,9,-1
 60 50 l 1,10,-1
 60 10 l 1,11,-1
 50 10 l 1,12,-1
 50 50 l 1,9,-1
10 20 m 1,13,-1
 20 20 l 1,14,-1
 20 10 l 1,15,-1
 10 10 l 1,16,-1
 10 20 l 1,13,-1
20 10 m 1,17,-1
 50 10 l 1,18,-1
 50 0 l 1,19,-1
 20 0 l 1,20,-1
 20 10 l 1,21,-1
 20 10 l 1,17,-1
EndSplineSet
EndChar

StartChar: six
Encoding: 54 54 23
Width: 60
VWidth: 95
GlyphClass: 1
Flags: W
LayerCount: 2
Fore
SplineSet
20 90 m 1,0,-1
 50 90 l 1,1,-1
 50 80 l 1,2,-1
 20 80 l 1,3,-1
 20 90 l 1,4,-1
 20 90 l 1,0,-1
10 80 m 1,5,-1
 20 80 l 1,6,-1
 20 50 l 1,7,-1
 50 50 l 1,8,-1
 50 40 l 1,9,-1
 20 40 l 1,10,-1
 20 10 l 1,11,-1
 10 10 l 1,12,-1
 10 80 l 1,13,-1
 10 80 l 1,5,-1
50 40 m 1,14,-1
 60 40 l 1,15,-1
 60 10 l 1,16,-1
 50 10 l 1,17,-1
 50 40 l 1,18,-1
 50 40 l 1,14,-1
20 10 m 1,19,-1
 50 10 l 1,20,-1
 50 0 l 1,21,-1
 20 0 l 1,22,-1
 20 10 l 1,23,-1
 20 10 l 1,19,-1
EndSplineSet
EndChar

StartChar: seven
Encoding: 55 55 24
Width: 60
VWidth: 95
GlyphClass: 1
Flags: W
LayerCount: 2
Fore
SplineSet
10 90 m 1,0,-1
 60 90 l 1,1,-1
 60 60 l 1,2,-1
 50 60 l 1,3,-1
 50 80 l 1,4,-1
 10 80 l 1,5,-1
 10 90 l 1,6,-1
 10 90 l 1,0,-1
40 60 m 1,7,-1
 50 60 l 1,8,-1
 50 30 l 1,9,-1
 40 30 l 1,10,-1
 40 60 l 1,7,-1
30 30 m 1,11,-1
 40 30 l 1,12,-1
 40 0 l 1,13,-1
 30 0 l 1,14,-1
 30 30 l 1,15,-1
 30 30 l 1,11,-1
EndSplineSet
EndChar

StartChar: eight
Encoding: 56 56 25
Width: 60
VWidth: 95
GlyphClass: 1
Flags: W
LayerCount: 2
Fore
SplineSet
20 90 m 1,0,-1
 50 90 l 1,1,-1
 50 80 l 1,2,-1
 20 80 l 1,3,-1
 20 90 l 1,4,-1
 20 90 l 1,0,-1
10 80 m 1,5,-1
 20 80 l 1,6,-1
 20 50 l 1,7,-1
 10 50 l 1,8,-1
 10 80 l 1,5,-1
50 80 m 1,9,-1
 60 80 l 1,10,-1
 60 50 l 1,11,-1
 50 50 l 1,12,-1
 50 80 l 1,9,-1
20 50 m 1,13,-1
 50 50 l 1,14,-1
 50 40 l 1,15,-1
 20 40 l 1,16,-1
 20 50 l 1,17,-1
 20 50 l 1,13,-1
10 40 m 1,18,-1
 20 40 l 1,19,-1
 20 10 l 1,20,-1
 10 10 l 1,21,-1
 10 40 l 1,22,-1
 10 40 l 1,18,-1
50 40 m 1,23,-1
 60 40 l 1,24,-1
 60 10 l 1,25,-1
 50 10 l 1,26,-1
 50 40 l 1,27,-1
 50 40 l 1,23,-1
20 10 m 1,28,-1
 50 10 l 1,29,-1
 50 0 l 1,30,-1
 20 0 l 1,31,-1
 20 10 l 1,32,-1
 20 10 l 1,28,-1
EndSplineSet
EndChar

StartChar: nine
Encoding: 57 57 26
Width: 60
VWidth: 95
GlyphClass: 1
Flags: W
LayerCount: 2
Fore
SplineSet
20 90 m 1,0,-1
 50 90 l 1,1,-1
 50 80 l 1,2,-1
 20 80 l 1,3,-1
 20 90 l 1,4,-1
 20 90 l 1,0,-1
10 80 m 1,5,-1
 20 80 l 1,6,-1
 20 50 l 1,7,-1
 10 50 l 1,8,-1
 10 80 l 1,5,-1
50 80 m 1,9,-1
 60 80 l 1,10,-1
 60 10 l 1,11,-1
 50 10 l 1,12,-1
 50 40 l 1,13,-1
 20 40 l 1,14,-1
 20 50 l 1,15,-1
 50 50 l 1,16,-1
 50 80 l 1,17,-1
 50 80 l 1,9,-1
10 20 m 1,18,-1
 20 20 l 1,19,-1
 20 10 l 1,20,-1
 10 10 l 1,21,-1
 10 20 l 1,18,-1
20 10 m 1,22,-1
 50 10 l 1,23,-1
 50 0 l 1,24,-1
 20 0 l 1,25,-1
 20 10 l 1,26,-1
 20 10 l 1,22,-1
EndSplineSet
EndChar

StartChar: colon
Encoding: 58 58 27
Width: 60
VWidth: 95
GlyphClass: 1
Flags: W
LayerCount: 2
Fore
SplineSet
20 80 m 1,0,-1
 40 80 l 1,1,-1
 40 60 l 1,2,-1
 20 60 l 1,3,-1
 20 80 l 1,0,-1
20 40 m 1,4,-1
 40 40 l 1,5,-1
 40 20 l 1,6,-1
 20 20 l 1,7,-1
 20 40 l 1,4,-1
EndSplineSet
EndChar

StartChar: semicolon
Encoding: 59 59 28
Width: 60
VWidth: 95
GlyphClass: 1
Flags: W
LayerCount: 2
Fore
SplineSet
20 80 m 1,0,-1
 40 80 l 1,1,-1
 40 60 l 1,2,-1
 20 60 l 1,3,-1
 20 80 l 1,0,-1
20 40 m 1,4,-1
 40 40 l 1,5,-1
 40 10 l 1,6,-1
 30 10 l 1,7,-1
 30 0 l 1,8,-1
 20 0 l 1,9,-1
 20 40 l 1,10,-1
 20 40 l 1,4,-1
EndSplineSet
EndChar

StartChar: less
Encoding: 60 60 29
Width: 60
VWidth: 95
GlyphClass: 1
Flags: W
LayerCount: 2
Fore
SplineSet
40 80 m 1,0,-1
 50 80 l 1,1,-1
 50 70 l 1,2,-1
 40 70 l 1,3,-1
 40 80 l 1,0,-1
30 70 m 1,4,-1
 40 70 l 1,5,-1
 40 60 l 1,6,-1
 30 60 l 1,7,-1
 30 70 l 1,4,-1
20 60 m 1,8,-1
 30 60 l 1,9,-1
 30 50 l 1,10,-1
 20 50 l 1,11,-1
 20 60 l 1,12,-1
 20 60 l 1,8,-1
10 50 m 1,13,-1
 20 50 l 1,14,-1
 20 40 l 1,15,-1
 10 40 l 1,16,-1
 10 50 l 1,13,-1
20 40 m 1,17,-1
 30 40 l 1,18,-1
 30 30 l 1,19,-1
 20 30 l 1,20,-1
 20 40 l 1,21,-1
 20 40 l 1,17,-1
30 30 m 1,22,-1
 40 30 l 1,23,-1
 40 20 l 1,24,-1
 30 20 l 1,25,-1
 30 30 l 1,22,-1
40 20 m 1,26,-1
 50 20 l 1,27,-1
 50 10 l 1,28,-1
 40 10 l 1,29,-1
 40 20 l 1,26,-1
EndSplineSet
EndChar

StartChar: equal
Encoding: 61 61 30
Width: 60
VWidth: 95
GlyphClass: 1
Flags: W
LayerCount: 2
Fore
SplineSet
10 60 m 1,0,-1
 60 60 l 1,1,-1
 60 50 l 1,2,-1
 10 50 l 1,3,-1
 10 60 l 1,4,-1
 10 60 l 1,0,-1
10 40 m 1,5,-1
 60 40 l 1,6,-1
 60 30 l 1,7,-1
 10 30 l 1,8,-1
 10 40 l 1,9,-1
 10 40 l 1,5,-1
EndSplineSet
EndChar

StartChar: greater
Encoding: 62 62 31
Width: 60
VWidth: 95
GlyphClass: 1
Flags: W
LayerCount: 2
Fore
SplineSet
10 80 m 1,0,-1
 20 80 l 1,1,-1
 20 70 l 1,2,-1
 10 70 l 1,3,-1
 10 80 l 1,0,-1
20 70 m 1,4,-1
 30 70 l 1,5,-1
 30 60 l 1,6,-1
 20 60 l 1,7,-1
 20 70 l 1,8,-1
 20 70 l 1,4,-1
30 60 m 1,9,-1
 40 60 l 1,10,-1
 40 50 l 1,11,-1
 30 50 l 1,12,-1
 30 60 l 1,9,-1
40 50 m 1,13,-1
 50 50 l 1,14,-1
 50 40 l 1,15,-1
 40 40 l 1,16,-1
 40 50 l 1,13,-1
30 40 m 1,17,-1
 40 40 l 1,18,-1
 40 30 l 1,19,-1
 30 30 l 1,20,-1
 30 40 l 1,17,-1
20 30 m 1,21,-1
 30 30 l 1,22,-1
 30 20 l 1,23,-1
 20 20 l 1,24,-1
 20 30 l 1,25,-1
 20 30 l 1,21,-1
10 20 m 1,26,-1
 20 20 l 1,27,-1
 20 10 l 1,28,-1
 10 10 l 1,29,-1
 10 20 l 1,26,-1
EndSplineSet
EndChar

StartChar: question
Encoding: 63 63 32
Width: 60
VWidth: 95
GlyphClass: 1
Flags: W
LayerCount: 2
Fore
SplineSet
20 90 m 1,0,-1
 50 90 l 1,1,-1
 50 80 l 1,2,-1
 20 80 l 1,3,-1
 20 90 l 1,4,-1
 20 90 l 1,0,-1
10 80 m 1,5,-1
 20 80 l 1,6,-1
 20 70 l 1,7,-1
 10 70 l 1,8,-1
 10 80 l 1,5,-1
50 80 m 1,9,-1
 60 80 l 1,10,-1
 60 50 l 1,11,-1
 50 50 l 1,12,-1
 50 80 l 1,9,-1
40 50 m 1,13,-1
 50 50 l 1,14,-1
 50 40 l 1,15,-1
 40 40 l 1,16,-1
 40 50 l 1,13,-1
30 40 m 1,17,-1
 40 40 l 1,18,-1
 40 30 l 1,19,-1
 30 30 l 1,20,-1
 30 40 l 1,17,-1
30 20 m 1,21,-1
 40 20 l 1,22,-1
 40 0 l 1,23,-1
 30 0 l 1,24,-1
 30 20 l 1,21,-1
EndSplineSet
EndChar

StartChar: at
Encoding: 64 64 33
Width: 60
VWidth: 95
GlyphClass: 1
Flags: W
LayerCount: 2
Fore
SplineSet
20 90 m 1,0,-1
 50 90 l 1,1,-1
 50 80 l 1,2,-1
 20 80 l 1,3,-1
 20 90 l 1,4,-1
 20 90 l 1,0,-1
10 80 m 1,5,-1
 20 80 l 1,6,-1
 20 70 l 1,7,-1
 10 70 l 1,8,-1
 10 80 l 1,5,-1
50 80 m 1,9,-1
 60 80 l 1,10,-1
 60 10 l 1,11,-1
 50 10 l 1,12,-1
 50 80 l 1,9,-1
20 60 m 1,13,-1
 40 60 l 1,14,-1
 40 10 l 1,15,-1
 30 10 l 1,16,-1
 30 50 l 1,17,-1
 20 50 l 1,18,-1
 20 60 l 1,19,-1
 20 60 l 1,13,-1
10 50 m 1,20,-1
 20 50 l 1,21,-1
 20 10 l 1,22,-1
 10 10 l 1,23,-1
 10 50 l 1,20,-1
20 10 m 1,24,-1
 30 10 l 1,25,-1
 30 0 l 1,26,-1
 20 0 l 1,27,-1
 20 10 l 1,28,-1
 20 10 l 1,24,-1
40 10 m 1,29,-1
 50 10 l 1,30,-1
 50 0 l 1,31,-1
 40 0 l 1,32,-1
 40 10 l 1,29,-1
EndSplineSet
EndChar

StartChar: A
Encoding: 65 65 34
Width: 60
VWidth: 95
GlyphClass: 1
Flags: W
LayerCount: 2
Fore
SplineSet
30 90 m 1,0,-1
 40 90 l 1,1,-1
 40 80 l 1,2,-1
 30 80 l 1,3,-1
 30 90 l 1,0,-1
20 80 m 1,4,-1
 30 80 l 1,5,-1
 30 60 l 1,6,-1
 20 60 l 1,7,-1
 20 80 l 1,8,-1
 20 80 l 1,4,-1
40 80 m 1,9,-1
 50 80 l 1,10,-1
 50 60 l 1,11,-1
 40 60 l 1,12,-1
 40 80 l 1,9,-1
10 60 m 1,13,-1
 20 60 l 1,14,-1
 20 40 l 1,15,-1
 50 40 l 1,16,-1
 50 60 l 1,17,-1
 60 60 l 1,18,-1
 60 0 l 1,19,-1
 50 0 l 1,20,-1
 50 30 l 1,21,-1
 20 30 l 1,22,-1
 20 0 l 1,23,-1
 10 0 l 1,24,-1
 10 60 l 1,25,-1
 10 60 l 1,13,-1
EndSplineSet
EndChar

StartChar: B
Encoding: 66 66 35
Width: 60
VWidth: 95
GlyphClass: 1
Flags: W
LayerCount: 2
Fore
SplineSet
10 90 m 1,0,-1
 50 90 l 1,1,-1
 50 80 l 1,2,-1
 20 80 l 1,3,-1
 20 50 l 1,4,-1
 50 50 l 1,5,-1
 50 80 l 1,6,-1
 60 80 l 1,7,-1
 60 50 l 1,8,-1
 50 50 l 1,9,-1
 50 40 l 1,10,-1
 20 40 l 1,11,-1
 20 10 l 1,12,-1
 50 10 l 1,13,-1
 50 40 l 1,14,-1
 60 40 l 1,15,-1
 60 10 l 1,16,-1
 50 10 l 1,17,-1
 50 0 l 1,18,-1
 10 0 l 1,19,-1
 10 90 l 1,20,-1
 10 90 l 1,0,-1
EndSplineSet
EndChar

StartChar: C
Encoding: 67 67 36
Width: 60
VWidth: 95
GlyphClass: 1
Flags: W
LayerCount: 2
Fore
SplineSet
20 90 m 1,0,-1
 50 90 l 1,1,-1
 50 80 l 1,2,-1
 20 80 l 1,3,-1
 20 90 l 1,4,-1
 20 90 l 1,0,-1
10 80 m 1,5,-1
 20 80 l 1,6,-1
 20 10 l 1,7,-1
 10 10 l 1,8,-1
 10 80 l 1,5,-1
50 80 m 1,9,-1
 60 80 l 1,10,-1
 60 70 l 1,11,-1
 50 70 l 1,12,-1
 50 80 l 1,9,-1
50 20 m 1,13,-1
 60 20 l 1,14,-1
 60 10 l 1,15,-1
 50 10 l 1,16,-1
 50 20 l 1,13,-1
20 10 m 1,17,-1
 50 10 l 1,18,-1
 50 0 l 1,19,-1
 20 0 l 1,20,-1
 20 10 l 1,21,-1
 20 10 l 1,17,-1
EndSplineSet
EndChar

StartChar: D
Encoding: 68 68 37
Width: 60
VWidth: 95
GlyphClass: 1
Flags: W
LayerCount: 2
Fore
SplineSet
10 90 m 1,0,-1
 40 90 l 1,1,-1
 40 80 l 1,2,-1
 20 80 l 1,3,-1
 20 10 l 1,4,-1
 40 10 l 1,5,-1
 40 20 l 1,6,-1
 50 20 l 1,7,-1
 50 70 l 1,8,-1
 40 70 l 1,9,-1
 40 80 l 1,10,-1
 50 80 l 1,11,-1
 50 70 l 1,12,-1
 60 70 l 1,13,-1
 60 20 l 1,14,-1
 50 20 l 1,15,-1
 50 10 l 1,16,-1
 40 10 l 1,17,-1
 40 0 l 1,18,-1
 10 0 l 1,19,-1
 10 90 l 1,20,-1
 10 90 l 1,0,-1
EndSplineSet
EndChar

StartChar: E
Encoding: 69 69 38
Width: 60
VWidth: 95
GlyphClass: 1
Flags: W
LayerCount: 2
Fore
SplineSet
10 90 m 1,0,-1
 60 90 l 1,1,-1
 60 80 l 1,2,-1
 20 80 l 1,3,-1
 20 50 l 1,4,-1
 50 50 l 1,5,-1
 50 40 l 1,6,-1
 20 40 l 1,7,-1
 20 10 l 1,8,-1
 60 10 l 1,9,-1
 60 0 l 1,10,-1
 10 0 l 1,11,-1
 10 90 l 1,12,-1
 10 90 l 1,0,-1
EndSplineSet
EndChar

StartChar: F
Encoding: 70 70 39
Width: 60
VWidth: 95
GlyphClass: 1
Flags: W
LayerCount: 2
Fore
SplineSet
10 90 m 1,0,-1
 60 90 l 1,1,-1
 60 80 l 1,2,-1
 20 80 l 1,3,-1
 20 50 l 1,4,-1
 50 50 l 1,5,-1
 50 40 l 1,6,-1
 20 40 l 1,7,-1
 20 0 l 1,8,-1
 10 0 l 1,9,-1
 10 90 l 1,10,-1
 10 90 l 1,0,-1
EndSplineSet
EndChar

StartChar: G
Encoding: 71 71 40
Width: 60
VWidth: 95
GlyphClass: 1
Flags: W
LayerCount: 2
Fore
SplineSet
20 90 m 1,0,-1
 50 90 l 1,1,-1
 50 80 l 1,2,-1
 20 80 l 1,3,-1
 20 90 l 1,4,-1
 20 90 l 1,0,-1
10 80 m 1,5,-1
 20 80 l 1,6,-1
 20 10 l 1,7,-1
 10 10 l 1,8,-1
 10 80 l 1,5,-1
50 80 m 1,9,-1
 60 80 l 1,10,-1
 60 70 l 1,11,-1
 50 70 l 1,12,-1
 50 80 l 1,9,-1
30 50 m 1,13,-1
 60 50 l 1,14,-1
 60 10 l 1,15,-1
 50 10 l 1,16,-1
 50 40 l 1,17,-1
 30 40 l 1,18,-1
 30 50 l 1,19,-1
 30 50 l 1,13,-1
20 10 m 1,20,-1
 50 10 l 1,21,-1
 50 0 l 1,22,-1
 20 0 l 1,23,-1
 20 10 l 1,24,-1
 20 10 l 1,20,-1
EndSplineSet
EndChar

StartChar: H
Encoding: 72 72 41
Width: 60
VWidth: 95
GlyphClass: 1
Flags: W
LayerCount: 2
Fore
SplineSet
10 90 m 1,0,-1
 20 90 l 1,1,-1
 20 50 l 1,2,-1
 50 50 l 1,3,-1
 50 90 l 1,4,-1
 60 90 l 1,5,-1
 60 0 l 1,6,-1
 50 0 l 1,7,-1
 50 40 l 1,8,-1
 20 40 l 1,9,-1
 20 0 l 1,10,-1
 10 0 l 1,11,-1
 10 90 l 1,12,-1
 10 90 l 1,0,-1
EndSplineSet
EndChar

StartChar: I
Encoding: 73 73 42
Width: 60
VWidth: 95
GlyphClass: 1
Flags: W
LayerCount: 2
Fore
SplineSet
20 90 m 1,0,-1
 50 90 l 1,1,-1
 50 80 l 1,2,-1
 40 80 l 1,3,-1
 40 10 l 1,4,-1
 50 10 l 1,5,-1
 50 0 l 1,6,-1
 20 0 l 1,7,-1
 20 10 l 1,8,-1
 30 10 l 1,9,-1
 30 80 l 1,10,-1
 20 80 l 1,11,-1
 20 90 l 1,12,-1
 20 90 l 1,0,-1
EndSplineSet
EndChar

StartChar: J
Encoding: 74 74 43
Width: 60
VWidth: 95
GlyphClass: 1
Flags: W
LayerCount: 2
Fore
SplineSet
40 90 m 1,0,-1
 50 90 l 1,1,-1
 50 10 l 1,2,-1
 40 10 l 1,3,-1
 40 90 l 1,0,-1
10 10 m 1,4,-1
 40 10 l 1,5,-1
 40 0 l 1,6,-1
 10 0 l 1,7,-1
 10 10 l 1,8,-1
 10 10 l 1,4,-1
EndSplineSet
EndChar

StartChar: K
Encoding: 75 75 44
Width: 60
VWidth: 95
GlyphClass: 1
Flags: W
LayerCount: 2
Fore
SplineSet
10 90 m 1,0,-1
 20 90 l 1,1,-1
 20 50 l 1,2,-1
 30 50 l 1,3,-1
 30 60 l 1,4,-1
 40 60 l 1,5,-1
 40 80 l 1,6,-1
 50 80 l 1,7,-1
 50 90 l 1,8,-1
 60 90 l 1,9,-1
 60 80 l 1,10,-1
 50 80 l 1,11,-1
 50 60 l 1,12,-1
 40 60 l 1,13,-1
 40 50 l 1,14,-1
 30 50 l 1,15,-1
 30 40 l 1,16,-1
 20 40 l 1,17,-1
 20 0 l 1,18,-1
 10 0 l 1,19,-1
 10 90 l 1,20,-1
 10 90 l 1,0,-1
30 40 m 1,21,-1
 40 40 l 1,22,-1
 40 30 l 1,23,-1
 30 30 l 1,24,-1
 30 40 l 1,21,-1
40 30 m 1,25,-1
 50 30 l 1,26,-1
 50 10 l 1,27,-1
 40 10 l 1,28,-1
 40 30 l 1,25,-1
50 10 m 1,29,-1
 60 10 l 1,30,-1
 60 0 l 1,31,-1
 50 0 l 1,32,-1
 50 10 l 1,29,-1
EndSplineSet
EndChar

StartChar: L
Encoding: 76 76 45
Width: 60
VWidth: 95
GlyphClass: 1
Flags: W
LayerCount: 2
Fore
SplineSet
10 90 m 1,0,-1
 20 90 l 1,1,-1
 20 10 l 1,2,-1
 60 10 l 1,3,-1
 60 0 l 1,4,-1
 10 0 l 1,5,-1
 10 90 l 1,6,-1
 10 90 l 1,0,-1
EndSplineSet
EndChar

StartChar: M
Encoding: 77 77 46
Width: 60
VWidth: 95
GlyphClass: 1
Flags: W
LayerCount: 2
Fore
SplineSet
10 90 m 1,0,-1
 20 90 l 1,1,-1
 20 70 l 1,2,-1
 30 70 l 1,3,-1
 30 40 l 1,4,-1
 20 40 l 1,5,-1
 20 0 l 1,6,-1
 10 0 l 1,7,-1
 10 90 l 1,8,-1
 10 90 l 1,0,-1
50 90 m 1,9,-1
 60 90 l 1,10,-1
 60 0 l 1,11,-1
 50 0 l 1,12,-1
 50 40 l 1,13,-1
 40 40 l 1,14,-1
 40 70 l 1,15,-1
 50 70 l 1,16,-1
 50 90 l 1,9,-1
30 40 m 1,17,-1
 40 40 l 1,18,-1
 40 10 l 1,19,-1
 30 10 l 1,20,-1
 30 40 l 1,21,-1
 30 40 l 1,17,-1
EndSplineSet
EndChar

StartChar: N
Encoding: 78 78 47
Width: 60
VWidth: 95
GlyphClass: 1
Flags: W
LayerCount: 2
Fore
SplineSet
10 90 m 1,0,-1
 20 90 l 1,1,-1
 20 80 l 1,2,-1
 30 80 l 1,3,-1
 30 60 l 1,4,-1
 20 60 l 1,5,-1
 20 0 l 1,6,-1
 10 0 l 1,7,-1
 10 90 l 1,8,-1
 10 90 l 1,0,-1
50 90 m 1,9,-1
 60 90 l 1,10,-1
 60 0 l 1,11,-1
 50 0 l 1,12,-1
 50 20 l 1,13,-1
 40 20 l 1,14,-1
 40 40 l 1,15,-1
 30 40 l 1,16,-1
 30 60 l 1,17,-1
 40 60 l 1,18,-1
 40 40 l 1,19,-1
 50 40 l 1,20,-1
 50 90 l 1,21,-1
 50 90 l 1,9,-1
EndSplineSet
EndChar

StartChar: O
Encoding: 79 79 48
Width: 60
VWidth: 95
GlyphClass: 1
Flags: W
LayerCount: 2
Fore
SplineSet
20 90 m 1,0,-1
 50 90 l 1,1,-1
 50 80 l 1,2,-1
 20 80 l 1,3,-1
 20 90 l 1,4,-1
 20 90 l 1,0,-1
10 80 m 1,5,-1
 20 80 l 1,6,-1
 20 10 l 1,7,-1
 10 10 l 1,8,-1
 10 80 l 1,5,-1
50 80 m 1,9,-1
 60 80 l 1,10,-1
 60 10 l 1,11,-1
 50 10 l 1,12,-1
 50 80 l 1,9,-1
20 10 m 1,13,-1
 50 10 l 1,14,-1
 50 0 l 1,15,-1
 20 0 l 1,16,-1
 20 10 l 1,17,-1
 20 10 l 1,13,-1
EndSplineSet
EndChar

StartChar: P
Encoding: 80 80 49
Width: 60
VWidth: 95
GlyphClass: 1
Flags: W
LayerCount: 2
Fore
SplineSet
10 90 m 1,0,-1
 50 90 l 1,1,-1
 50 80 l 1,2,-1
 20 80 l 1,3,-1
 20 50 l 1,4,-1
 50 50 l 1,5,-1
 50 80 l 1,6,-1
 60 80 l 1,7,-1
 60 50 l 1,8,-1
 50 50 l 1,9,-1
 50 40 l 1,10,-1
 20 40 l 1,11,-1
 20 0 l 1,12,-1
 10 0 l 1,13,-1
 10 90 l 1,14,-1
 10 90 l 1,0,-1
EndSplineSet
EndChar

StartChar: Q
Encoding: 81 81 50
Width: 60
VWidth: 95
GlyphClass: 1
Flags: W
LayerCount: 2
Fore
SplineSet
20 90 m 1,0,-1
 50 90 l 1,1,-1
 50 80 l 1,2,-1
 20 80 l 1,3,-1
 20 90 l 1,4,-1
 20 90 l 1,0,-1
10 80 m 1,5,-1
 20 80 l 1,6,-1
 20 30 l 1,7,-1
 40 30 l 1,8,-1
 40 20 l 1,9,-1
 20 20 l 1,10,-1
 20 10 l 1,11,-1
 10 10 l 1,12,-1
 10 80 l 1,13,-1
 10 80 l 1,5,-1
50 80 m 1,14,-1
 60 80 l 1,15,-1
 60 20 l 1,16,-1
 50 20 l 1,17,-1
 50 80 l 1,14,-1
40 20 m 1,18,-1
 50 20 l 1,19,-1
 50 10 l 1,20,-1
 40 10 l 1,21,-1
 40 20 l 1,18,-1
20 10 m 1,22,-1
 40 10 l 1,23,-1
 40 0 l 1,24,-1
 20 0 l 1,25,-1
 20 10 l 1,22,-1
50 10 m 1,26,-1
 60 10 l 1,27,-1
 60 0 l 1,28,-1
 50 0 l 1,29,-1
 50 10 l 1,26,-1
EndSplineSet
EndChar

StartChar: R
Encoding: 82 82 51
Width: 60
VWidth: 95
GlyphClass: 1
Flags: W
LayerCount: 2
Fore
SplineSet
10 90 m 1,0,-1
 50 90 l 1,1,-1
 50 80 l 1,2,-1
 20 80 l 1,3,-1
 20 50 l 1,4,-1
 50 50 l 1,5,-1
 50 80 l 1,6,-1
 60 80 l 1,7,-1
 60 50 l 1,8,-1
 50 50 l 1,9,-1
 50 40 l 1,10,-1
 40 40 l 1,11,-1
 40 30 l 1,12,-1
 30 30 l 1,13,-1
 30 40 l 1,14,-1
 20 40 l 1,15,-1
 20 0 l 1,16,-1
 10 0 l 1,17,-1
 10 90 l 1,18,-1
 10 90 l 1,0,-1
40 30 m 1,19,-1
 50 30 l 1,20,-1
 50 10 l 1,21,-1
 40 10 l 1,22,-1
 40 30 l 1,19,-1
50 10 m 1,23,-1
 60 10 l 1,24,-1
 60 0 l 1,25,-1
 50 0 l 1,26,-1
 50 10 l 1,23,-1
EndSplineSet
EndChar

StartChar: S
Encoding: 83 83 52
Width: 60
VWidth: 95
GlyphClass: 1
Flags: W
LayerCount: 2
Fore
SplineSet
20 90 m 1,0,-1
 50 90 l 1,1,-1
 50 80 l 1,2,-1
 20 80 l 1,3,-1
 20 90 l 1,4,-1
 20 90 l 1,0,-1
10 80 m 1,5,-1
 20 80 l 1,6,-1
 20 50 l 1,7,-1
 10 50 l 1,8,-1
 10 80 l 1,5,-1
50 80 m 1,9,-1
 60 80 l 1,10,-1
 60 70 l 1,11,-1
 50 70 l 1,12,-1
 50 80 l 1,9,-1
20 50 m 1,13,-1
 50 50 l 1,14,-1
 50 40 l 1,15,-1
 20 40 l 1,16,-1
 20 50 l 1,17,-1
 20 50 l 1,13,-1
50 40 m 1,18,-1
 60 40 l 1,19,-1
 60 10 l 1,20,-1
 50 10 l 1,21,-1
 50 40 l 1,22,-1
 50 40 l 1,18,-1
10 20 m 1,23,-1
 20 20 l 1,24,-1
 20 10 l 1,25,-1
 10 10 l 1,26,-1
 10 20 l 1,23,-1
20 10 m 1,27,-1
 50 10 l 1,28,-1
 50 0 l 1,29,-1
 20 0 l 1,30,-1
 20 10 l 1,31,-1
 20 10 l 1,27,-1
EndSplineSet
EndChar

StartChar: T
Encoding: 84 84 53
Width: 60
VWidth: 95
GlyphClass: 1
Flags: W
LayerCount: 2
Fore
SplineSet
10 90 m 1,0,-1
 60 90 l 1,1,-1
 60 80 l 1,2,-1
 40 80 l 1,3,-1
 40 0 l 1,4,-1
 30 0 l 1,5,-1
 30 80 l 1,6,-1
 10 80 l 1,7,-1
 10 90 l 1,8,-1
 10 90 l 1,0,-1
EndSplineSet
EndChar

StartChar: U
Encoding: 85 85 54
Width: 60
VWidth: 95
GlyphClass: 1
Flags: W
LayerCount: 2
Fore
SplineSet
10 90 m 1,0,-1
 20 90 l 1,1,-1
 20 10 l 1,2,-1
 10 10 l 1,3,-1
 10 90 l 1,0,-1
50 90 m 1,4,-1
 60 90 l 1,5,-1
 60 10 l 1,6,-1
 50 10 l 1,7,-1
 50 90 l 1,4,-1
20 10 m 1,8,-1
 50 10 l 1,9,-1
 50 0 l 1,10,-1
 20 0 l 1,11,-1
 20 10 l 1,12,-1
 20 10 l 1,8,-1
EndSplineSet
EndChar

StartChar: V
Encoding: 86 86 55
Width: 60
VWidth: 95
GlyphClass: 1
Flags: W
LayerCount: 2
Fore
SplineSet
10 90 m 1,0,-1
 20 90 l 1,1,-1
 20 50 l 1,2,-1
 10 50 l 1,3,-1
 10 90 l 1,0,-1
50 90 m 1,4,-1
 60 90 l 1,5,-1
 60 50 l 1,6,-1
 50 50 l 1,7,-1
 50 90 l 1,4,-1
20 50 m 1,8,-1
 30 50 l 1,9,-1
 30 20 l 1,10,-1
 20 20 l 1,11,-1
 20 50 l 1,12,-1
 20 50 l 1,8,-1
40 50 m 1,13,-1
 50 50 l 1,14,-1
 50 20 l 1,15,-1
 40 20 l 1,16,-1
 40 50 l 1,17,-1
 40 50 l 1,13,-1
30 20 m 1,18,-1
 40 20 l 1,19,-1
 40 0 l 1,20,-1
 30 0 l 1,21,-1
 30 20 l 1,18,-1
EndSplineSet
EndChar

StartChar: W
Encoding: 87 87 56
Width: 60
VWidth: 95
GlyphClass: 1
Flags: W
LayerCount: 2
Fore
SplineSet
10 90 m 1,0,-1
 20 90 l 1,1,-1
 20 30 l 1,2,-1
 10 30 l 1,3,-1
 10 90 l 1,0,-1
50 90 m 1,4,-1
 60 90 l 1,5,-1
 60 30 l 1,6,-1
 50 30 l 1,7,-1
 50 90 l 1,4,-1
30 80 m 1,8,-1
 40 80 l 1,9,-1
 40 30 l 1,10,-1
 30 30 l 1,11,-1
 30 80 l 1,8,-1
20 30 m 1,12,-1
 30 30 l 1,13,-1
 30 0 l 1,14,-1
 20 0 l 1,15,-1
 20 30 l 1,16,-1
 20 30 l 1,12,-1
40 30 m 1,17,-1
 50 30 l 1,18,-1
 50 0 l 1,19,-1
 40 0 l 1,20,-1
 40 30 l 1,21,-1
 40 30 l 1,17,-1
EndSplineSet
EndChar

StartChar: X
Encoding: 88 88 57
Width: 60
VWidth: 95
GlyphClass: 1
Flags: W
LayerCount: 2
Fore
SplineSet
10 90 m 1,0,-1
 20 90 l 1,1,-1
 20 70 l 1,2,-1
 10 70 l 1,3,-1
 10 90 l 1,0,-1
50 90 m 1,4,-1
 60 90 l 1,5,-1
 60 70 l 1,6,-1
 50 70 l 1,7,-1
 50 90 l 1,4,-1
20 70 m 1,8,-1
 30 70 l 1,9,-1
 30 50 l 1,10,-1
 20 50 l 1,11,-1
 20 70 l 1,12,-1
 20 70 l 1,8,-1
40 70 m 1,13,-1
 50 70 l 1,14,-1
 50 50 l 1,15,-1
 40 50 l 1,16,-1
 40 70 l 1,13,-1
30 50 m 1,17,-1
 40 50 l 1,18,-1
 40 40 l 1,19,-1
 30 40 l 1,20,-1
 30 50 l 1,17,-1
20 40 m 1,21,-1
 30 40 l 1,22,-1
 30 20 l 1,23,-1
 20 20 l 1,24,-1
 20 40 l 1,25,-1
 20 40 l 1,21,-1
40 40 m 1,26,-1
 50 40 l 1,27,-1
 50 20 l 1,28,-1
 40 20 l 1,29,-1
 40 40 l 1,26,-1
10 20 m 1,30,-1
 20 20 l 1,31,-1
 20 0 l 1,32,-1
 10 0 l 1,33,-1
 10 20 l 1,30,-1
50 20 m 1,34,-1
 60 20 l 1,35,-1
 60 0 l 1,36,-1
 50 0 l 1,37,-1
 50 20 l 1,34,-1
EndSplineSet
EndChar

StartChar: Y
Encoding: 89 89 58
Width: 60
VWidth: 95
GlyphClass: 1
Flags: W
LayerCount: 2
Fore
SplineSet
10 90 m 1,0,-1
 20 90 l 1,1,-1
 20 70 l 1,2,-1
 10 70 l 1,3,-1
 10 90 l 1,0,-1
50 90 m 1,4,-1
 60 90 l 1,5,-1
 60 70 l 1,6,-1
 50 70 l 1,7,-1
 50 90 l 1,4,-1
20 70 m 1,8,-1
 30 70 l 1,9,-1
 30 50 l 1,10,-1
 20 50 l 1,11,-1
 20 70 l 1,12,-1
 20 70 l 1,8,-1
40 70 m 1,13,-1
 50 70 l 1,14,-1
 50 50 l 1,15,-1
 40 50 l 1,16,-1
 40 70 l 1,13,-1
30 50 m 1,17,-1
 40 50 l 1,18,-1
 40 0 l 1,19,-1
 30 0 l 1,20,-1
 30 50 l 1,17,-1
EndSplineSet
EndChar

StartChar: Z
Encoding: 90 90 59
Width: 60
VWidth: 95
GlyphClass: 1
Flags: W
LayerCount: 2
Fore
SplineSet
10 90 m 1,0,-1
 60 90 l 1,1,-1
 60 70 l 1,2,-1
 50 70 l 1,3,-1
 50 80 l 1,4,-1
 10 80 l 1,5,-1
 10 90 l 1,6,-1
 10 90 l 1,0,-1
40 70 m 1,7,-1
 50 70 l 1,8,-1
 50 50 l 1,9,-1
 40 50 l 1,10,-1
 40 70 l 1,7,-1
30 50 m 1,11,-1
 40 50 l 1,12,-1
 40 40 l 1,13,-1
 30 40 l 1,14,-1
 30 50 l 1,11,-1
20 40 m 1,15,-1
 30 40 l 1,16,-1
 30 20 l 1,17,-1
 20 20 l 1,18,-1
 20 40 l 1,19,-1
 20 40 l 1,15,-1
10 20 m 1,20,-1
 20 20 l 1,21,-1
 20 10 l 1,22,-1
 60 10 l 1,23,-1
 60 0 l 1,24,-1
 10 0 l 1,25,-1
 10 20 l 1,26,-1
 10 20 l 1,20,-1
EndSplineSet
EndChar

StartChar: bracketleft
Encoding: 91 91 60
Width: 60
VWidth: 95
GlyphClass: 1
Flags: W
LayerCount: 2
Fore
SplineSet
20 90 m 1,0,-1
 50 90 l 1,1,-1
 50 80 l 1,2,-1
 30 80 l 1,3,-1
 30 10 l 1,4,-1
 50 10 l 1,5,-1
 50 0 l 1,6,-1
 20 0 l 1,7,-1
 20 90 l 1,8,-1
 20 90 l 1,0,-1
EndSplineSet
EndChar

StartChar: bracketright
Encoding: 93 93 61
Width: 60
VWidth: 95
GlyphClass: 1
Flags: W
LayerCount: 2
Fore
SplineSet
20 90 m 1,0,-1
 50 90 l 1,1,-1
 50 0 l 1,2,-1
 20 0 l 1,3,-1
 20 10 l 1,4,-1
 40 10 l 1,5,-1
 40 80 l 1,6,-1
 20 80 l 1,7,-1
 20 90 l 1,8,-1
 20 90 l 1,0,-1
EndSplineSet
EndChar

StartChar: asciicircum
Encoding: 94 94 62
Width: 60
VWidth: 95
GlyphClass: 1
Flags: W
LayerCount: 2
Fore
SplineSet
30 90 m 1,0,-1
 40 90 l 1,1,-1
 40 80 l 1,2,-1
 30 80 l 1,3,-1
 30 90 l 1,0,-1
20 80 m 1,4,-1
 30 80 l 1,5,-1
 30 70 l 1,6,-1
 20 70 l 1,7,-1
 20 80 l 1,8,-1
 20 80 l 1,4,-1
40 80 m 1,9,-1
 50 80 l 1,10,-1
 50 70 l 1,11,-1
 40 70 l 1,12,-1
 40 80 l 1,9,-1
10 70 m 1,13,-1
 20 70 l 1,14,-1
 20 60 l 1,15,-1
 10 60 l 1,16,-1
 10 70 l 1,13,-1
50 70 m 1,17,-1
 60 70 l 1,18,-1
 60 60 l 1,19,-1
 50 60 l 1,20,-1
 50 70 l 1,17,-1
EndSplineSet
EndChar

StartChar: underscore
Encoding: 95 95 63
Width: 60
VWidth: 95
GlyphClass: 1
Flags: W
LayerCount: 2
Fore
SplineSet
10 10 m 1,0,-1
 60 10 l 1,1,-1
 60 0 l 1,2,-1
 10 0 l 1,3,-1
 10 10 l 1,4,-1
 10 10 l 1,0,-1
EndSplineSet
EndChar

StartChar: a
Encoding: 97 97 64
AltUni2: 00e019.ffffffff.0
Width: 60
VWidth: 95
GlyphClass: 1
Flags: W
LayerCount: 2
Fore
SplineSet
20 70 m 1,0,-1
 50 70 l 1,1,-1
 50 60 l 1,2,-1
 20 60 l 1,3,-1
 20 70 l 1,4,-1
 20 70 l 1,0,-1
50 60 m 1,5,-1
 60 60 l 1,6,-1
 60 0 l 1,7,-1
 20 0 l 1,8,-1
 20 10 l 1,9,-1
 10 10 l 1,10,-1
 10 40 l 1,11,-1
 20 40 l 1,12,-1
 20 50 l 1,13,-1
 50 50 l 1,14,-1
 50 60 l 1,15,-1
 50 60 l 1,5,-1
30 40 m 1,16,-1
 20 40 l 1,17,-1
 20 10 l 1,18,-1
 50 10 l 1,19,-1
 50 40 l 1,20,-1
 30 40 l 1,21,-1
 30 40 l 1,16,-1
EndSplineSet
EndChar

StartChar: b
Encoding: 98 98 65
Width: 60
VWidth: 95
GlyphClass: 1
Flags: W
LayerCount: 2
Fore
SplineSet
10 90 m 1,0,-1
 20 90 l 1,1,-1
 20 60 l 1,2,-1
 50 60 l 1,3,-1
 50 50 l 1,4,-1
 20 50 l 1,5,-1
 20 10 l 1,6,-1
 50 10 l 1,7,-1
 50 50 l 1,8,-1
 60 50 l 1,9,-1
 60 10 l 1,10,-1
 50 10 l 1,11,-1
 50 0 l 1,12,-1
 10 0 l 1,13,-1
 10 90 l 1,14,-1
 10 90 l 1,0,-1
EndSplineSet
EndChar

StartChar: c
Encoding: 99 99 66
Width: 60
VWidth: 95
GlyphClass: 1
Flags: W
LayerCount: 2
Fore
SplineSet
20 70 m 1,0,-1
 50 70 l 1,1,-1
 50 60 l 1,2,-1
 20 60 l 1,3,-1
 20 70 l 1,4,-1
 20 70 l 1,0,-1
10 60 m 1,5,-1
 20 60 l 1,6,-1
 20 10 l 1,7,-1
 10 10 l 1,8,-1
 10 60 l 1,9,-1
 10 60 l 1,5,-1
50 60 m 1,10,-1
 60 60 l 1,11,-1
 60 50 l 1,12,-1
 50 50 l 1,13,-1
 50 60 l 1,10,-1
50 20 m 1,14,-1
 60 20 l 1,15,-1
 60 10 l 1,16,-1
 50 10 l 1,17,-1
 50 20 l 1,14,-1
20 10 m 1,18,-1
 50 10 l 1,19,-1
 50 0 l 1,20,-1
 20 0 l 1,21,-1
 20 10 l 1,22,-1
 20 10 l 1,18,-1
EndSplineSet
EndChar

StartChar: d
Encoding: 100 100 67
Width: 60
VWidth: 95
GlyphClass: 1
Flags: W
LayerCount: 2
Fore
SplineSet
50 90 m 1,0,-1
 60 90 l 1,1,-1
 60 0 l 1,2,-1
 20 0 l 1,3,-1
 20 10 l 1,4,-1
 10 10 l 1,5,-1
 10 50 l 1,6,-1
 20 50 l 1,7,-1
 20 60 l 1,8,-1
 50 60 l 1,9,-1
 50 90 l 1,10,-1
 50 90 l 1,0,-1
30 50 m 1,11,-1
 20 50 l 1,12,-1
 20 10 l 1,13,-1
 50 10 l 1,14,-1
 50 50 l 1,15,-1
 30 50 l 1,16,-1
 30 50 l 1,11,-1
EndSplineSet
EndChar

StartChar: e
Encoding: 101 101 68
Width: 60
VWidth: 95
GlyphClass: 1
Flags: W
LayerCount: 2
Fore
SplineSet
20 70 m 1,0,-1
 50 70 l 1,1,-1
 50 60 l 1,2,-1
 20 60 l 1,3,-1
 20 70 l 1,4,-1
 20 70 l 1,0,-1
10 60 m 1,5,-1
 20 60 l 1,6,-1
 20 40 l 1,7,-1
 50 40 l 1,8,-1
 50 60 l 1,9,-1
 60 60 l 1,10,-1
 60 30 l 1,11,-1
 20 30 l 1,12,-1
 20 10 l 1,13,-1
 10 10 l 1,14,-1
 10 60 l 1,15,-1
 10 60 l 1,5,-1
50 20 m 1,16,-1
 60 20 l 1,17,-1
 60 10 l 1,18,-1
 50 10 l 1,19,-1
 50 20 l 1,16,-1
20 10 m 1,20,-1
 50 10 l 1,21,-1
 50 0 l 1,22,-1
 20 0 l 1,23,-1
 20 10 l 1,24,-1
 20 10 l 1,20,-1
EndSplineSet
EndChar

StartChar: f
Encoding: 102 102 69
Width: 60
VWidth: 95
GlyphClass: 1
Flags: W
LayerCount: 2
Fore
SplineSet
40 90 m 1,0,-1
 60 90 l 1,1,-1
 60 80 l 1,2,-1
 40 80 l 1,3,-1
 40 90 l 1,0,-1
30 80 m 1,4,-1
 40 80 l 1,5,-1
 40 70 l 1,6,-1
 50 70 l 1,7,-1
 50 60 l 1,8,-1
 40 60 l 1,9,-1
 40 0 l 1,10,-1
 30 0 l 1,11,-1
 30 60 l 1,12,-1
 20 60 l 1,13,-1
 20 70 l 1,14,-1
 30 70 l 1,15,-1
 30 80 l 1,16,-1
 30 80 l 1,4,-1
EndSplineSet
EndChar

StartChar: g
Encoding: 103 103 70
Width: 60
VWidth: 95
GlyphClass: 1
Flags: W
LayerCount: 2
Fore
SplineSet
20 70 m 1,0,-1
 60 70 l 1,1,-1
 60 10 l 1,2,-1
 50 10 l 1,3,-1
 50 20 l 1,4,-1
 20 20 l 1,5,-1
 20 30 l 1,6,-1
 10 30 l 1,7,-1
 10 60 l 1,8,-1
 20 60 l 1,9,-1
 20 70 l 1,10,-1
 20 70 l 1,0,-1
30 60 m 1,11,-1
 20 60 l 1,12,-1
 20 30 l 1,13,-1
 50 30 l 1,14,-1
 50 60 l 1,15,-1
 30 60 l 1,16,-1
 30 60 l 1,11,-1
20 10 m 1,17,-1
 50 10 l 1,18,-1
 50 0 l 1,19,-1
 20 0 l 1,20,-1
 20 10 l 1,21,-1
 20 10 l 1,17,-1
EndSplineSet
EndChar

StartChar: h
Encoding: 104 104 71
Width: 60
VWidth: 95
GlyphClass: 1
Flags: W
LayerCount: 2
Fore
SplineSet
10 90 m 1,0,-1
 20 90 l 1,1,-1
 20 50 l 1,2,-1
 30 50 l 1,3,-1
 30 60 l 1,4,-1
 50 60 l 1,5,-1
 50 50 l 1,6,-1
 30 50 l 1,7,-1
 30 40 l 1,8,-1
 20 40 l 1,9,-1
 20 0 l 1,10,-1
 10 0 l 1,11,-1
 10 90 l 1,12,-1
 10 90 l 1,0,-1
50 50 m 1,13,-1
 60 50 l 1,14,-1
 60 0 l 1,15,-1
 50 0 l 1,16,-1
 50 50 l 1,13,-1
EndSplineSet
EndChar

StartChar: i
Encoding: 105 105 72
Width: 60
VWidth: 95
GlyphClass: 1
Flags: W
LayerCount: 2
Fore
SplineSet
30 90 m 1,0,-1
 40 90 l 1,1,-1
 40 80 l 1,2,-1
 30 80 l 1,3,-1
 30 90 l 1,0,-1
20 70 m 1,4,-1
 40 70 l 1,5,-1
 40 10 l 1,6,-1
 50 10 l 1,7,-1
 50 0 l 1,8,-1
 20 0 l 1,9,-1
 20 10 l 1,10,-1
 30 10 l 1,11,-1
 30 60 l 1,12,-1
 20 60 l 1,13,-1
 20 70 l 1,14,-1
 20 70 l 1,4,-1
EndSplineSet
EndChar

StartChar: j
Encoding: 106 106 73
Width: 60
VWidth: 95
GlyphClass: 1
Flags: W
LayerCount: 2
Fore
SplineSet
40 90 m 1,0,-1
 50 90 l 1,1,-1
 50 80 l 1,2,-1
 40 80 l 1,3,-1
 40 90 l 1,0,-1
30 70 m 1,4,-1
 50 70 l 1,5,-1
 50 10 l 1,6,-1
 40 10 l 1,7,-1
 40 60 l 1,8,-1
 30 60 l 1,9,-1
 30 70 l 1,10,-1
 30 70 l 1,4,-1
20 10 m 1,11,-1
 40 10 l 1,12,-1
 40 0 l 1,13,-1
 20 0 l 1,14,-1
 20 10 l 1,11,-1
EndSplineSet
EndChar

StartChar: k
Encoding: 107 107 74
AltUni2: 00e021.ffffffff.0
Width: 60
VWidth: 95
GlyphClass: 1
Flags: W
LayerCount: 2
Fore
SplineSet
10 90 m 1,0,-1
 20 90 l 1,1,-1
 20 40 l 1,2,-1
 30 40 l 1,3,-1
 30 50 l 1,4,-1
 40 50 l 1,5,-1
 40 60 l 1,6,-1
 50 60 l 1,7,-1
 50 70 l 1,8,-1
 60 70 l 1,9,-1
 60 60 l 1,10,-1
 50 60 l 1,11,-1
 50 50 l 1,12,-1
 40 50 l 1,13,-1
 40 40 l 1,14,-1
 30 40 l 1,15,-1
 30 30 l 1,16,-1
 20 30 l 1,17,-1
 20 0 l 1,18,-1
 10 0 l 1,19,-1
 10 90 l 1,20,-1
 10 90 l 1,0,-1
30 30 m 1,21,-1
 40 30 l 1,22,-1
 40 20 l 1,23,-1
 30 20 l 1,24,-1
 30 30 l 1,21,-1
40 20 m 1,25,-1
 50 20 l 1,26,-1
 50 10 l 1,27,-1
 40 10 l 1,28,-1
 40 20 l 1,25,-1
50 10 m 1,29,-1
 60 10 l 1,30,-1
 60 0 l 1,31,-1
 50 0 l 1,32,-1
 50 10 l 1,29,-1
EndSplineSet
EndChar

StartChar: l
Encoding: 108 108 75
Width: 60
VWidth: 95
GlyphClass: 1
Flags: W
LayerCount: 2
Fore
SplineSet
20 90 m 1,0,-1
 40 90 l 1,1,-1
 40 10 l 1,2,-1
 50 10 l 1,3,-1
 50 0 l 1,4,-1
 20 0 l 1,5,-1
 20 10 l 1,6,-1
 30 10 l 1,7,-1
 30 80 l 1,8,-1
 20 80 l 1,9,-1
 20 90 l 1,10,-1
 20 90 l 1,0,-1
EndSplineSet
EndChar

StartChar: m
Encoding: 109 109 76
Width: 60
VWidth: 95
GlyphClass: 1
Flags: W
LayerCount: 2
Fore
SplineSet
10 70 m 1,0,-1
 30 70 l 1,1,-1
 30 60 l 1,2,-1
 20 60 l 1,3,-1
 20 0 l 1,4,-1
 10 0 l 1,5,-1
 10 70 l 1,6,-1
 10 70 l 1,0,-1
40 70 m 1,7,-1
 50 70 l 1,8,-1
 50 60 l 1,9,-1
 40 60 l 1,10,-1
 40 70 l 1,7,-1
30 60 m 1,11,-1
 40 60 l 1,12,-1
 40 0 l 1,13,-1
 30 0 l 1,14,-1
 30 60 l 1,15,-1
 30 60 l 1,11,-1
50 60 m 1,16,-1
 60 60 l 1,17,-1
 60 0 l 1,18,-1
 50 0 l 1,19,-1
 50 60 l 1,20,-1
 50 60 l 1,16,-1
EndSplineSet
EndChar

StartChar: n
Encoding: 110 110 77
Width: 60
VWidth: 95
GlyphClass: 1
Flags: W
LayerCount: 2
Fore
SplineSet
10 70 m 1,0,-1
 20 70 l 1,1,-1
 20 60 l 1,2,-1
 30 60 l 1,3,-1
 30 70 l 1,4,-1
 50 70 l 1,5,-1
 50 60 l 1,6,-1
 30 60 l 1,7,-1
 30 50 l 1,8,-1
 20 50 l 1,9,-1
 20 0 l 1,10,-1
 10 0 l 1,11,-1
 10 70 l 1,12,-1
 10 70 l 1,0,-1
50 60 m 1,13,-1
 60 60 l 1,14,-1
 60 0 l 1,15,-1
 50 0 l 1,16,-1
 50 60 l 1,17,-1
 50 60 l 1,13,-1
EndSplineSet
EndChar

StartChar: o
Encoding: 111 111 78
Width: 60
VWidth: 95
GlyphClass: 1
Flags: W
LayerCount: 2
Fore
SplineSet
20 70 m 1,0,-1
 50 70 l 1,1,-1
 50 60 l 1,2,-1
 20 60 l 1,3,-1
 20 70 l 1,4,-1
 20 70 l 1,0,-1
10 60 m 1,5,-1
 20 60 l 1,6,-1
 20 10 l 1,7,-1
 10 10 l 1,8,-1
 10 60 l 1,9,-1
 10 60 l 1,5,-1
50 60 m 1,10,-1
 60 60 l 1,11,-1
 60 10 l 1,12,-1
 50 10 l 1,13,-1
 50 60 l 1,14,-1
 50 60 l 1,10,-1
20 10 m 1,15,-1
 50 10 l 1,16,-1
 50 0 l 1,17,-1
 20 0 l 1,18,-1
 20 10 l 1,19,-1
 20 10 l 1,15,-1
EndSplineSet
EndChar

StartChar: p
Encoding: 112 112 79
Width: 60
VWidth: 95
GlyphClass: 1
Flags: W
LayerCount: 2
Fore
SplineSet
10 70 m 1,0,-1
 50 70 l 1,1,-1
 50 60 l 1,2,-1
 20 60 l 1,3,-1
 20 30 l 1,4,-1
 50 30 l 1,5,-1
 50 60 l 1,6,-1
 60 60 l 1,7,-1
 60 30 l 1,8,-1
 50 30 l 1,9,-1
 50 20 l 1,10,-1
 20 20 l 1,11,-1
 20 0 l 1,12,-1
 10 0 l 1,13,-1
 10 70 l 1,14,-1
 10 70 l 1,0,-1
EndSplineSet
EndChar

StartChar: q
Encoding: 113 113 80
Width: 60
VWidth: 95
GlyphClass: 1
Flags: W
LayerCount: 2
Fore
SplineSet
20 70 m 1,0,-1
 60 70 l 1,1,-1
 60 0 l 1,2,-1
 50 0 l 1,3,-1
 50 20 l 1,4,-1
 20 20 l 1,5,-1
 20 30 l 1,6,-1
 10 30 l 1,7,-1
 10 60 l 1,8,-1
 20 60 l 1,9,-1
 20 70 l 1,10,-1
 20 70 l 1,0,-1
30 60 m 1,11,-1
 20 60 l 1,12,-1
 20 30 l 1,13,-1
 50 30 l 1,14,-1
 50 60 l 1,15,-1
 30 60 l 1,16,-1
 30 60 l 1,11,-1
EndSplineSet
EndChar

StartChar: r
Encoding: 114 114 81
Width: 60
VWidth: 95
GlyphClass: 1
Flags: W
LayerCount: 2
Fore
SplineSet
10 70 m 1,0,-1
 20 70 l 1,1,-1
 20 60 l 1,2,-1
 30 60 l 1,3,-1
 30 70 l 1,4,-1
 60 70 l 1,5,-1
 60 60 l 1,6,-1
 30 60 l 1,7,-1
 30 50 l 1,8,-1
 20 50 l 1,9,-1
 20 0 l 1,10,-1
 10 0 l 1,11,-1
 10 70 l 1,12,-1
 10 70 l 1,0,-1
EndSplineSet
EndChar

StartChar: s
Encoding: 115 115 82
Width: 60
VWidth: 95
GlyphClass: 1
Flags: W
LayerCount: 2
Fore
SplineSet
20 70 m 1,0,-1
 50 70 l 1,1,-1
 50 60 l 1,2,-1
 20 60 l 1,3,-1
 20 70 l 1,4,-1
 20 70 l 1,0,-1
10 60 m 1,5,-1
 20 60 l 1,6,-1
 20 40 l 1,7,-1
 10 40 l 1,8,-1
 10 60 l 1,9,-1
 10 60 l 1,5,-1
50 60 m 1,10,-1
 60 60 l 1,11,-1
 60 50 l 1,12,-1
 50 50 l 1,13,-1
 50 60 l 1,10,-1
20 40 m 1,14,-1
 50 40 l 1,15,-1
 50 30 l 1,16,-1
 20 30 l 1,17,-1
 20 40 l 1,18,-1
 20 40 l 1,14,-1
50 30 m 1,19,-1
 60 30 l 1,20,-1
 60 10 l 1,21,-1
 50 10 l 1,22,-1
 50 30 l 1,19,-1
10 20 m 1,23,-1
 20 20 l 1,24,-1
 20 10 l 1,25,-1
 10 10 l 1,26,-1
 10 20 l 1,23,-1
20 10 m 1,27,-1
 50 10 l 1,28,-1
 50 0 l 1,29,-1
 20 0 l 1,30,-1
 20 10 l 1,31,-1
 20 10 l 1,27,-1
EndSplineSet
EndChar

StartChar: t
Encoding: 116 116 83
Width: 60
VWidth: 95
GlyphClass: 1
Flags: W
LayerCount: 2
Fore
SplineSet
20 90 m 1,0,-1
 30 90 l 1,1,-1
 30 70 l 1,2,-1
 50 70 l 1,3,-1
 50 60 l 1,4,-1
 30 60 l 1,5,-1
 30 10 l 1,6,-1
 20 10 l 1,7,-1
 20 60 l 1,8,-1
 10 60 l 1,9,-1
 10 70 l 1,10,-1
 20 70 l 1,11,-1
 20 90 l 1,12,-1
 20 90 l 1,0,-1
50 20 m 1,13,-1
 60 20 l 1,14,-1
 60 10 l 1,15,-1
 50 10 l 1,16,-1
 50 20 l 1,13,-1
30 10 m 1,17,-1
 50 10 l 1,18,-1
 50 0 l 1,19,-1
 30 0 l 1,20,-1
 30 10 l 1,21,-1
 30 10 l 1,17,-1
EndSplineSet
EndChar

StartChar: u
Encoding: 117 117 84
Width: 60
VWidth: 95
GlyphClass: 1
Flags: W
LayerCount: 2
Fore
SplineSet
10 70 m 1,0,-1
 20 70 l 1,1,-1
 20 10 l 1,2,-1
 10 10 l 1,3,-1
 10 70 l 1,0,-1
50 70 m 1,4,-1
 60 70 l 1,5,-1
 60 0 l 1,6,-1
 50 0 l 1,7,-1
 50 10 l 1,8,-1
 40 10 l 1,9,-1
 40 20 l 1,10,-1
 50 20 l 1,11,-1
 50 70 l 1,12,-1
 50 70 l 1,4,-1
20 10 m 1,13,-1
 40 10 l 1,14,-1
 40 0 l 1,15,-1
 20 0 l 1,16,-1
 20 10 l 1,13,-1
EndSplineSet
EndChar

StartChar: v
Encoding: 118 118 85
Width: 60
VWidth: 95
GlyphClass: 1
Flags: W
LayerCount: 2
Fore
SplineSet
10 70 m 1,0,-1
 20 70 l 1,1,-1
 20 40 l 1,2,-1
 10 40 l 1,3,-1
 10 70 l 1,0,-1
50 70 m 1,4,-1
 60 70 l 1,5,-1
 60 40 l 1,6,-1
 50 40 l 1,7,-1
 50 70 l 1,4,-1
20 40 m 1,8,-1
 30 40 l 1,9,-1
 30 20 l 1,10,-1
 20 20 l 1,11,-1
 20 40 l 1,12,-1
 20 40 l 1,8,-1
40 40 m 1,13,-1
 50 40 l 1,14,-1
 50 20 l 1,15,-1
 40 20 l 1,16,-1
 40 40 l 1,13,-1
30 20 m 1,17,-1
 40 20 l 1,18,-1
 40 0 l 1,19,-1
 30 0 l 1,20,-1
 30 20 l 1,17,-1
EndSplineSet
EndChar

StartChar: w
Encoding: 119 119 86
Width: 60
VWidth: 95
GlyphClass: 1
Flags: W
LayerCount: 2
Fore
SplineSet
10 70 m 1,0,-1
 20 70 l 1,1,-1
 20 20 l 1,2,-1
 10 20 l 1,3,-1
 10 70 l 1,0,-1
50 70 m 1,4,-1
 60 70 l 1,5,-1
 60 20 l 1,6,-1
 50 20 l 1,7,-1
 50 70 l 1,4,-1
30 60 m 1,8,-1
 40 60 l 1,9,-1
 40 20 l 1,10,-1
 30 20 l 1,11,-1
 30 60 l 1,12,-1
 30 60 l 1,8,-1
20 20 m 1,13,-1
 30 20 l 1,14,-1
 30 0 l 1,15,-1
 20 0 l 1,16,-1
 20 20 l 1,17,-1
 20 20 l 1,13,-1
40 20 m 1,18,-1
 50 20 l 1,19,-1
 50 0 l 1,20,-1
 40 0 l 1,21,-1
 40 20 l 1,18,-1
EndSplineSet
EndChar

StartChar: x
Encoding: 120 120 87
Width: 60
VWidth: 95
GlyphClass: 1
Flags: W
LayerCount: 2
Fore
SplineSet
10 70 m 1,0,-1
 20 70 l 1,1,-1
 20 50 l 1,2,-1
 10 50 l 1,3,-1
 10 70 l 1,0,-1
50 70 m 1,4,-1
 60 70 l 1,5,-1
 60 50 l 1,6,-1
 50 50 l 1,7,-1
 50 70 l 1,4,-1
20 50 m 1,8,-1
 30 50 l 1,9,-1
 30 40 l 1,10,-1
 20 40 l 1,11,-1
 20 50 l 1,12,-1
 20 50 l 1,8,-1
40 50 m 1,13,-1
 50 50 l 1,14,-1
 50 40 l 1,15,-1
 40 40 l 1,16,-1
 40 50 l 1,13,-1
30 40 m 1,17,-1
 40 40 l 1,18,-1
 40 30 l 1,19,-1
 30 30 l 1,20,-1
 30 40 l 1,17,-1
20 30 m 1,21,-1
 30 30 l 1,22,-1
 30 20 l 1,23,-1
 20 20 l 1,24,-1
 20 30 l 1,25,-1
 20 30 l 1,21,-1
40 30 m 1,26,-1
 50 30 l 1,27,-1
 50 20 l 1,28,-1
 40 20 l 1,29,-1
 40 30 l 1,26,-1
10 20 m 1,30,-1
 20 20 l 1,31,-1
 20 0 l 1,32,-1
 10 0 l 1,33,-1
 10 20 l 1,30,-1
50 20 m 1,34,-1
 60 20 l 1,35,-1
 60 0 l 1,36,-1
 50 0 l 1,37,-1
 50 20 l 1,34,-1
EndSplineSet
EndChar

StartChar: y
Encoding: 121 121 88
Width: 60
VWidth: 95
GlyphClass: 1
Flags: W
LayerCount: 2
Fore
SplineSet
10 70 m 1,0,-1
 20 70 l 1,1,-1
 20 50 l 1,2,-1
 10 50 l 1,3,-1
 10 70 l 1,0,-1
50 70 m 1,4,-1
 60 70 l 1,5,-1
 60 50 l 1,6,-1
 50 50 l 1,7,-1
 50 70 l 1,4,-1
20 50 m 1,8,-1
 30 50 l 1,9,-1
 30 30 l 1,10,-1
 20 30 l 1,11,-1
 20 50 l 1,12,-1
 20 50 l 1,8,-1
40 50 m 1,13,-1
 50 50 l 1,14,-1
 50 30 l 1,15,-1
 40 30 l 1,16,-1
 40 50 l 1,13,-1
30 30 m 1,17,-1
 40 30 l 1,18,-1
 40 10 l 1,19,-1
 30 10 l 1,20,-1
 30 30 l 1,17,-1
10 10 m 1,21,-1
 30 10 l 1,22,-1
 30 0 l 1,23,-1
 10 0 l 1,24,-1
 10 10 l 1,25,-1
 10 10 l 1,21,-1
EndSplineSet
EndChar

StartChar: z
Encoding: 122 122 89
Width: 60
VWidth: 95
GlyphClass: 1
Flags: W
LayerCount: 2
Fore
SplineSet
10 70 m 1,0,-1
 60 70 l 1,1,-1
 60 50 l 1,2,-1
 50 50 l 1,3,-1
 50 60 l 1,4,-1
 10 60 l 1,5,-1
 10 70 l 1,6,-1
 10 70 l 1,0,-1
40 50 m 1,7,-1
 50 50 l 1,8,-1
 50 40 l 1,9,-1
 40 40 l 1,10,-1
 40 50 l 1,7,-1
30 40 m 1,11,-1
 40 40 l 1,12,-1
 40 30 l 1,13,-1
 30 30 l 1,14,-1
 30 40 l 1,11,-1
20 30 m 1,15,-1
 30 30 l 1,16,-1
 30 20 l 1,17,-1
 20 20 l 1,18,-1
 20 30 l 1,19,-1
 20 30 l 1,15,-1
10 20 m 1,20,-1
 20 20 l 1,21,-1
 20 10 l 1,22,-1
 60 10 l 1,23,-1
 60 0 l 1,24,-1
 10 0 l 1,25,-1
 10 20 l 1,26,-1
 10 20 l 1,20,-1
EndSplineSet
EndChar

StartChar: braceleft
Encoding: 123 123 90
Width: 60
VWidth: 95
GlyphClass: 1
Flags: W
LayerCount: 2
Fore
SplineSet
40 90 m 1,0,-1
 60 90 l 1,1,-1
 60 80 l 1,2,-1
 40 80 l 1,3,-1
 40 90 l 1,0,-1
30 80 m 1,4,-1
 40 80 l 1,5,-1
 40 50 l 1,6,-1
 30 50 l 1,7,-1
 30 80 l 1,4,-1
20 50 m 1,8,-1
 30 50 l 1,9,-1
 30 40 l 1,10,-1
 20 40 l 1,11,-1
 20 50 l 1,12,-1
 20 50 l 1,8,-1
30 40 m 1,13,-1
 40 40 l 1,14,-1
 40 10 l 1,15,-1
 30 10 l 1,16,-1
 30 40 l 1,17,-1
 30 40 l 1,13,-1
40 10 m 1,18,-1
 60 10 l 1,19,-1
 60 0 l 1,20,-1
 40 0 l 1,21,-1
 40 10 l 1,18,-1
EndSplineSet
EndChar

StartChar: bar
Encoding: 124 124 91
Width: 60
VWidth: 95
GlyphClass: 1
Flags: W
LayerCount: 2
Fore
SplineSet
30 90 m 1,0,-1
 40 90 l 1,1,-1
 40 0 l 1,2,-1
 30 0 l 1,3,-1
 30 90 l 1,0,-1
EndSplineSet
EndChar

StartChar: braceright
Encoding: 125 125 92
Width: 60
VWidth: 95
GlyphClass: 1
Flags: W
LayerCount: 2
Fore
SplineSet
10 90 m 1,0,-1
 30 90 l 1,1,-1
 30 80 l 1,2,-1
 10 80 l 1,3,-1
 10 90 l 1,4,-1
 10 90 l 1,0,-1
30 80 m 1,5,-1
 40 80 l 1,6,-1
 40 50 l 1,7,-1
 30 50 l 1,8,-1
 30 80 l 1,5,-1
40 50 m 1,9,-1
 50 50 l 1,10,-1
 50 40 l 1,11,-1
 40 40 l 1,12,-1
 40 50 l 1,9,-1
30 40 m 1,13,-1
 40 40 l 1,14,-1
 40 10 l 1,15,-1
 30 10 l 1,16,-1
 30 40 l 1,17,-1
 30 40 l 1,13,-1
10 10 m 1,18,-1
 30 10 l 1,19,-1
 30 0 l 1,20,-1
 10 0 l 1,21,-1
 10 10 l 1,22,-1
 10 10 l 1,18,-1
EndSplineSet
EndChar

StartChar: asciitilde
Encoding: 126 126 93
Width: 60
VWidth: 95
GlyphClass: 1
Flags: W
LayerCount: 2
Fore
SplineSet
20 60 m 1,0,-1
 30 60 l 1,1,-1
 30 50 l 1,2,-1
 20 50 l 1,3,-1
 20 60 l 1,4,-1
 20 60 l 1,0,-1
10 50 m 1,5,-1
 20 50 l 1,6,-1
 20 30 l 1,7,-1
 10 30 l 1,8,-1
 10 50 l 1,5,-1
30 50 m 1,9,-1
 40 50 l 1,10,-1
 40 30 l 1,11,-1
 30 30 l 1,12,-1
 30 50 l 1,9,-1
50 50 m 1,13,-1
 60 50 l 1,14,-1
 60 30 l 1,15,-1
 50 30 l 1,16,-1
 50 50 l 1,13,-1
40 30 m 1,17,-1
 50 30 l 1,18,-1
 50 20 l 1,19,-1
 40 20 l 1,20,-1
 40 30 l 1,17,-1
EndSplineSet
EndChar

StartChar: exclamdown
Encoding: 161 161 94
Width: 60
VWidth: 95
GlyphClass: 1
Flags: W
LayerCount: 2
Fore
SplineSet
30 90 m 1,0,-1
 40 90 l 1,1,-1
 40 70 l 1,2,-1
 30 70 l 1,3,-1
 30 90 l 1,0,-1
30 60 m 1,4,-1
 40 60 l 1,5,-1
 40 0 l 1,6,-1
 30 0 l 1,7,-1
 30 60 l 1,8,-1
 30 60 l 1,4,-1
EndSplineSet
EndChar

StartChar: degree
Encoding: 176 176 95
Width: 60
VWidth: 95
GlyphClass: 1
Flags: W
LayerCount: 2
Fore
SplineSet
20 90 m 1,0,-1
 40 90 l 1,1,-1
 40 80 l 1,2,-1
 20 80 l 1,3,-1
 20 90 l 1,0,-1
10 80 m 1,4,-1
 20 80 l 1,5,-1
 20 60 l 1,6,-1
 10 60 l 1,7,-1
 10 80 l 1,4,-1
40 80 m 1,8,-1
 50 80 l 1,9,-1
 50 60 l 1,10,-1
 40 60 l 1,11,-1
 40 80 l 1,8,-1
20 60 m 1,12,-1
 40 60 l 1,13,-1
 40 50 l 1,14,-1
 20 50 l 1,15,-1
 20 60 l 1,12,-1
EndSplineSet
EndChar

StartChar: uni00B2
Encoding: 178 178 96
Width: 60
VWidth: 95
GlyphClass: 1
Flags: W
LayerCount: 2
Fore
SplineSet
20 90 m 1,0,-1
 50 90 l 1,1,-1
 50 80 l 1,2,-1
 20 80 l 1,3,-1
 20 90 l 1,4,-1
 20 90 l 1,0,-1
10 80 m 1,5,-1
 20 80 l 1,6,-1
 20 70 l 1,7,-1
 10 70 l 1,8,-1
 10 80 l 1,5,-1
50 80 m 1,9,-1
 60 80 l 1,10,-1
 60 70 l 1,11,-1
 50 70 l 1,12,-1
 50 80 l 1,9,-1
40 70 m 1,13,-1
 50 70 l 1,14,-1
 50 60 l 1,15,-1
 40 60 l 1,16,-1
 40 70 l 1,13,-1
30 60 m 1,17,-1
 40 60 l 1,18,-1
 40 50 l 1,19,-1
 30 50 l 1,20,-1
 30 60 l 1,17,-1
20 50 m 1,21,-1
 30 50 l 1,22,-1
 30 40 l 1,23,-1
 60 40 l 1,24,-1
 60 30 l 1,25,-1
 10 30 l 1,26,-1
 10 40 l 1,27,-1
 20 40 l 1,28,-1
 20 50 l 1,29,-1
 20 50 l 1,21,-1
EndSplineSet
EndChar

StartChar: uni00B3
Encoding: 179 179 97
Width: 60
VWidth: 95
GlyphClass: 1
Flags: W
LayerCount: 2
Fore
SplineSet
20 90 m 1,0,-1
 50 90 l 1,1,-1
 50 80 l 1,2,-1
 20 80 l 1,3,-1
 20 90 l 1,4,-1
 20 90 l 1,0,-1
10 80 m 1,5,-1
 20 80 l 1,6,-1
 20 70 l 1,7,-1
 10 70 l 1,8,-1
 10 80 l 1,5,-1
50 80 m 1,9,-1
 60 80 l 1,10,-1
 60 70 l 1,11,-1
 50 70 l 1,12,-1
 50 80 l 1,9,-1
30 70 m 1,13,-1
 50 70 l 1,14,-1
 50 60 l 1,15,-1
 30 60 l 1,16,-1
 30 70 l 1,17,-1
 30 70 l 1,13,-1
50 60 m 1,18,-1
 60 60 l 1,19,-1
 60 40 l 1,20,-1
 50 40 l 1,21,-1
 50 60 l 1,22,-1
 50 60 l 1,18,-1
10 50 m 1,23,-1
 20 50 l 1,24,-1
 20 40 l 1,25,-1
 10 40 l 1,26,-1
 10 50 l 1,23,-1
20 40 m 1,27,-1
 50 40 l 1,28,-1
 50 30 l 1,29,-1
 20 30 l 1,30,-1
 20 40 l 1,31,-1
 20 40 l 1,27,-1
EndSplineSet
EndChar

StartChar: uni00B9
Encoding: 185 185 98
Width: 60
VWidth: 95
GlyphClass: 1
Flags: W
LayerCount: 2
Fore
SplineSet
30 90 m 1,0,-1
 40 90 l 1,1,-1
 40 30 l 1,2,-1
 30 30 l 1,3,-1
 30 70 l 1,4,-1
 20 70 l 1,5,-1
 20 80 l 1,6,-1
 30 80 l 1,7,-1
 30 90 l 1,0,-1
EndSplineSet
EndChar

StartChar: questiondown
Encoding: 191 191 99
Width: 60
VWidth: 95
GlyphClass: 1
Flags: W
LayerCount: 2
Fore
SplineSet
30 90 m 1,0,-1
 40 90 l 1,1,-1
 40 70 l 1,2,-1
 30 70 l 1,3,-1
 30 90 l 1,0,-1
30 60 m 1,4,-1
 40 60 l 1,5,-1
 40 50 l 1,6,-1
 30 50 l 1,7,-1
 30 60 l 1,4,-1
20 50 m 1,8,-1
 30 50 l 1,9,-1
 30 40 l 1,10,-1
 20 40 l 1,11,-1
 20 50 l 1,12,-1
 20 50 l 1,8,-1
10 40 m 1,13,-1
 20 40 l 1,14,-1
 20 10 l 1,15,-1
 10 10 l 1,16,-1
 10 40 l 1,17,-1
 10 40 l 1,13,-1
50 20 m 1,18,-1
 60 20 l 1,19,-1
 60 10 l 1,20,-1
 50 10 l 1,21,-1
 50 20 l 1,18,-1
20 10 m 1,22,-1
 50 10 l 1,23,-1
 50 0 l 1,24,-1
 20 0 l 1,25,-1
 20 10 l 1,26,-1
 20 10 l 1,22,-1
EndSplineSet
EndChar

StartChar: Agrave
Encoding: 192 192 100
Width: 60
VWidth: 95
GlyphClass: 1
Flags: W
LayerCount: 2
Fore
SplineSet
30 90 m 1,0,-1
 40 90 l 1,1,-1
 40 80 l 1,2,-1
 30 80 l 1,3,-1
 30 90 l 1,0,-1
40 80 m 1,4,-1
 50 80 l 1,5,-1
 50 70 l 1,6,-1
 40 70 l 1,7,-1
 40 80 l 1,4,-1
30 70 m 1,8,-1
 40 70 l 1,9,-1
 40 60 l 1,10,-1
 30 60 l 1,11,-1
 30 70 l 1,8,-1
20 60 m 1,12,-1
 30 60 l 1,13,-1
 30 40 l 1,14,-1
 20 40 l 1,15,-1
 20 60 l 1,16,-1
 20 60 l 1,12,-1
40 60 m 1,17,-1
 50 60 l 1,18,-1
 50 40 l 1,19,-1
 40 40 l 1,20,-1
 40 60 l 1,21,-1
 40 60 l 1,17,-1
10 40 m 1,22,-1
 20 40 l 1,23,-1
 20 30 l 1,24,-1
 50 30 l 1,25,-1
 50 40 l 1,26,-1
 60 40 l 1,27,-1
 60 0 l 1,28,-1
 50 0 l 1,29,-1
 50 20 l 1,30,-1
 20 20 l 1,31,-1
 20 0 l 1,32,-1
 10 0 l 1,33,-1
 10 40 l 1,34,-1
 10 40 l 1,22,-1
EndSplineSet
EndChar

StartChar: Aacute
Encoding: 193 193 101
Width: 60
VWidth: 95
GlyphClass: 1
Flags: W
LayerCount: 2
Fore
SplineSet
30 90 m 1,0,-1
 40 90 l 1,1,-1
 40 80 l 1,2,-1
 30 80 l 1,3,-1
 30 90 l 1,0,-1
20 80 m 1,4,-1
 30 80 l 1,5,-1
 30 70 l 1,6,-1
 20 70 l 1,7,-1
 20 80 l 1,8,-1
 20 80 l 1,4,-1
30 70 m 1,9,-1
 40 70 l 1,10,-1
 40 60 l 1,11,-1
 30 60 l 1,12,-1
 30 70 l 1,9,-1
20 60 m 1,13,-1
 30 60 l 1,14,-1
 30 40 l 1,15,-1
 20 40 l 1,16,-1
 20 60 l 1,17,-1
 20 60 l 1,13,-1
40 60 m 1,18,-1
 50 60 l 1,19,-1
 50 40 l 1,20,-1
 40 40 l 1,21,-1
 40 60 l 1,22,-1
 40 60 l 1,18,-1
10 40 m 1,23,-1
 20 40 l 1,24,-1
 20 30 l 1,25,-1
 50 30 l 1,26,-1
 50 40 l 1,27,-1
 60 40 l 1,28,-1
 60 0 l 1,29,-1
 50 0 l 1,30,-1
 50 20 l 1,31,-1
 20 20 l 1,32,-1
 20 0 l 1,33,-1
 10 0 l 1,34,-1
 10 40 l 1,35,-1
 10 40 l 1,23,-1
EndSplineSet
EndChar

StartChar: Acircumflex
Encoding: 194 194 102
Width: 60
VWidth: 95
GlyphClass: 1
Flags: W
LayerCount: 2
Fore
SplineSet
30 90 m 1,0,-1
 40 90 l 1,1,-1
 40 80 l 1,2,-1
 30 80 l 1,3,-1
 30 90 l 1,0,-1
20 80 m 1,4,-1
 30 80 l 1,5,-1
 30 70 l 1,6,-1
 20 70 l 1,7,-1
 20 80 l 1,8,-1
 20 80 l 1,4,-1
40 80 m 1,9,-1
 50 80 l 1,10,-1
 50 70 l 1,11,-1
 40 70 l 1,12,-1
 40 80 l 1,9,-1
30 70 m 1,13,-1
 40 70 l 1,14,-1
 40 60 l 1,15,-1
 30 60 l 1,16,-1
 30 70 l 1,13,-1
20 60 m 1,17,-1
 30 60 l 1,18,-1
 30 40 l 1,19,-1
 20 40 l 1,20,-1
 20 60 l 1,21,-1
 20 60 l 1,17,-1
40 60 m 1,22,-1
 50 60 l 1,23,-1
 50 40 l 1,24,-1
 40 40 l 1,25,-1
 40 60 l 1,26,-1
 40 60 l 1,22,-1
10 40 m 1,27,-1
 20 40 l 1,28,-1
 20 30 l 1,29,-1
 50 30 l 1,30,-1
 50 40 l 1,31,-1
 60 40 l 1,32,-1
 60 0 l 1,33,-1
 50 0 l 1,34,-1
 50 20 l 1,35,-1
 20 20 l 1,36,-1
 20 0 l 1,37,-1
 10 0 l 1,38,-1
 10 40 l 1,39,-1
 10 40 l 1,27,-1
EndSplineSet
EndChar

StartChar: Atilde
Encoding: 195 195 103
Width: 60
VWidth: 95
GlyphClass: 1
Flags: W
LayerCount: 2
Fore
SplineSet
20 90 m 1,0,-1
 30 90 l 1,1,-1
 30 80 l 1,2,-1
 20 80 l 1,3,-1
 20 90 l 1,4,-1
 20 90 l 1,0,-1
50 90 m 1,5,-1
 60 90 l 1,6,-1
 60 80 l 1,7,-1
 50 80 l 1,8,-1
 50 90 l 1,5,-1
10 80 m 1,9,-1
 20 80 l 1,10,-1
 20 70 l 1,11,-1
 10 70 l 1,12,-1
 10 80 l 1,9,-1
30 80 m 1,13,-1
 50 80 l 1,14,-1
 50 70 l 1,15,-1
 40 70 l 1,16,-1
 40 60 l 1,17,-1
 30 60 l 1,18,-1
 30 80 l 1,19,-1
 30 80 l 1,13,-1
20 60 m 1,20,-1
 30 60 l 1,21,-1
 30 40 l 1,22,-1
 20 40 l 1,23,-1
 20 60 l 1,24,-1
 20 60 l 1,20,-1
40 60 m 1,25,-1
 50 60 l 1,26,-1
 50 40 l 1,27,-1
 40 40 l 1,28,-1
 40 60 l 1,29,-1
 40 60 l 1,25,-1
10 40 m 1,30,-1
 20 40 l 1,31,-1
 20 30 l 1,32,-1
 50 30 l 1,33,-1
 50 40 l 1,34,-1
 60 40 l 1,35,-1
 60 0 l 1,36,-1
 50 0 l 1,37,-1
 50 20 l 1,38,-1
 20 20 l 1,39,-1
 20 0 l 1,40,-1
 10 0 l 1,41,-1
 10 40 l 1,42,-1
 10 40 l 1,30,-1
EndSplineSet
EndChar

StartChar: Adieresis
Encoding: 196 196 104
Width: 60
VWidth: 95
GlyphClass: 1
Flags: W
LayerCount: 2
Fore
SplineSet
20 90 m 1,0,-1
 30 90 l 1,1,-1
 30 80 l 1,2,-1
 20 80 l 1,3,-1
 20 90 l 1,4,-1
 20 90 l 1,0,-1
40 90 m 1,5,-1
 50 90 l 1,6,-1
 50 80 l 1,7,-1
 40 80 l 1,8,-1
 40 90 l 1,5,-1
30 70 m 1,9,-1
 40 70 l 1,10,-1
 40 60 l 1,11,-1
 30 60 l 1,12,-1
 30 70 l 1,9,-1
20 60 m 1,13,-1
 30 60 l 1,14,-1
 30 40 l 1,15,-1
 20 40 l 1,16,-1
 20 60 l 1,17,-1
 20 60 l 1,13,-1
40 60 m 1,18,-1
 50 60 l 1,19,-1
 50 40 l 1,20,-1
 40 40 l 1,21,-1
 40 60 l 1,22,-1
 40 60 l 1,18,-1
10 40 m 1,23,-1
 20 40 l 1,24,-1
 20 30 l 1,25,-1
 50 30 l 1,26,-1
 50 40 l 1,27,-1
 60 40 l 1,28,-1
 60 0 l 1,29,-1
 50 0 l 1,30,-1
 50 20 l 1,31,-1
 20 20 l 1,32,-1
 20 0 l 1,33,-1
 10 0 l 1,34,-1
 10 40 l 1,35,-1
 10 40 l 1,23,-1
EndSplineSet
EndChar

StartChar: Aring
Encoding: 197 197 105
Width: 60
VWidth: 95
GlyphClass: 1
Flags: W
LayerCount: 2
Fore
SplineSet
30 90 m 1,0,-1
 40 90 l 1,1,-1
 40 80 l 1,2,-1
 30 80 l 1,3,-1
 30 90 l 1,0,-1
20 80 m 1,4,-1
 30 80 l 1,5,-1
 30 70 l 1,6,-1
 20 70 l 1,7,-1
 20 80 l 1,8,-1
 20 80 l 1,4,-1
40 80 m 1,9,-1
 50 80 l 1,10,-1
 50 70 l 1,11,-1
 40 70 l 1,12,-1
 40 80 l 1,9,-1
30 70 m 1,13,-1
 40 70 l 1,14,-1
 40 60 l 1,15,-1
 30 60 l 1,16,-1
 30 70 l 1,13,-1
20 60 m 1,17,-1
 30 60 l 1,18,-1
 30 40 l 1,19,-1
 20 40 l 1,20,-1
 20 60 l 1,21,-1
 20 60 l 1,17,-1
40 60 m 1,22,-1
 50 60 l 1,23,-1
 50 40 l 1,24,-1
 40 40 l 1,25,-1
 40 60 l 1,26,-1
 40 60 l 1,22,-1
10 40 m 1,27,-1
 20 40 l 1,28,-1
 20 30 l 1,29,-1
 50 30 l 1,30,-1
 50 40 l 1,31,-1
 60 40 l 1,32,-1
 60 0 l 1,33,-1
 50 0 l 1,34,-1
 50 20 l 1,35,-1
 20 20 l 1,36,-1
 20 0 l 1,37,-1
 10 0 l 1,38,-1
 10 40 l 1,39,-1
 10 40 l 1,27,-1
EndSplineSet
EndChar

StartChar: AE
Encoding: 198 198 106
Width: 60
VWidth: 95
GlyphClass: 1
Flags: W
LayerCount: 2
Fore
SplineSet
20 90 m 1,0,-1
 60 90 l 1,1,-1
 60 80 l 1,2,-1
 40 80 l 1,3,-1
 40 50 l 1,4,-1
 60 50 l 1,5,-1
 60 40 l 1,6,-1
 40 40 l 1,7,-1
 40 10 l 1,8,-1
 60 10 l 1,9,-1
 60 0 l 1,10,-1
 30 0 l 1,11,-1
 30 30 l 1,12,-1
 20 30 l 1,13,-1
 20 0 l 1,14,-1
 10 0 l 1,15,-1
 10 80 l 1,16,-1
 20 80 l 1,17,-1
 20 90 l 1,18,-1
 20 90 l 1,0,-1
30 80 m 1,19,-1
 20 80 l 1,20,-1
 20 40 l 1,21,-1
 30 40 l 1,22,-1
 30 80 l 1,19,-1
EndSplineSet
EndChar

StartChar: Ccedilla
Encoding: 199 199 107
Width: 60
VWidth: 95
GlyphClass: 1
Flags: W
LayerCount: 2
Fore
SplineSet
20 90 m 1,0,-1
 50 90 l 1,1,-1
 50 80 l 1,2,-1
 20 80 l 1,3,-1
 20 90 l 1,4,-1
 20 90 l 1,0,-1
10 80 m 1,5,-1
 20 80 l 1,6,-1
 20 30 l 1,7,-1
 10 30 l 1,8,-1
 10 80 l 1,5,-1
50 80 m 1,9,-1
 60 80 l 1,10,-1
 60 70 l 1,11,-1
 50 70 l 1,12,-1
 50 80 l 1,9,-1
50 40 m 1,13,-1
 60 40 l 1,14,-1
 60 30 l 1,15,-1
 50 30 l 1,16,-1
 50 40 l 1,13,-1
20 30 m 1,17,-1
 50 30 l 1,18,-1
 50 20 l 1,19,-1
 40 20 l 1,20,-1
 40 0 l 1,21,-1
 20 0 l 1,22,-1
 20 10 l 1,23,-1
 30 10 l 1,24,-1
 30 20 l 1,25,-1
 20 20 l 1,26,-1
 20 30 l 1,27,-1
 20 30 l 1,17,-1
EndSplineSet
EndChar

StartChar: Egrave
Encoding: 200 200 108
Width: 60
VWidth: 95
GlyphClass: 1
Flags: W
LayerCount: 2
Fore
SplineSet
20 90 m 1,0,-1
 30 90 l 1,1,-1
 30 80 l 1,2,-1
 20 80 l 1,3,-1
 20 90 l 1,4,-1
 20 90 l 1,0,-1
30 80 m 1,5,-1
 40 80 l 1,6,-1
 40 70 l 1,7,-1
 60 70 l 1,8,-1
 60 60 l 1,9,-1
 20 60 l 1,10,-1
 20 40 l 1,11,-1
 50 40 l 1,12,-1
 50 30 l 1,13,-1
 20 30 l 1,14,-1
 20 10 l 1,15,-1
 60 10 l 1,16,-1
 60 0 l 1,17,-1
 10 0 l 1,18,-1
 10 70 l 1,19,-1
 30 70 l 1,20,-1
 30 80 l 1,21,-1
 30 80 l 1,5,-1
EndSplineSet
EndChar

StartChar: Eacute
Encoding: 201 201 109
Width: 60
VWidth: 95
GlyphClass: 1
Flags: W
LayerCount: 2
Fore
SplineSet
40 90 m 1,0,-1
 50 90 l 1,1,-1
 50 80 l 1,2,-1
 40 80 l 1,3,-1
 40 90 l 1,0,-1
30 80 m 1,4,-1
 40 80 l 1,5,-1
 40 70 l 1,6,-1
 60 70 l 1,7,-1
 60 60 l 1,8,-1
 20 60 l 1,9,-1
 20 40 l 1,10,-1
 50 40 l 1,11,-1
 50 30 l 1,12,-1
 20 30 l 1,13,-1
 20 10 l 1,14,-1
 60 10 l 1,15,-1
 60 0 l 1,16,-1
 10 0 l 1,17,-1
 10 70 l 1,18,-1
 30 70 l 1,19,-1
 30 80 l 1,20,-1
 30 80 l 1,4,-1
EndSplineSet
EndChar

StartChar: Ecircumflex
Encoding: 202 202 110
Width: 60
VWidth: 95
GlyphClass: 1
Flags: W
LayerCount: 2
Fore
SplineSet
30 90 m 1,0,-1
 40 90 l 1,1,-1
 40 80 l 1,2,-1
 30 80 l 1,3,-1
 30 90 l 1,0,-1
20 80 m 1,4,-1
 30 80 l 1,5,-1
 30 70 l 1,6,-1
 20 70 l 1,7,-1
 20 80 l 1,8,-1
 20 80 l 1,4,-1
40 80 m 1,9,-1
 50 80 l 1,10,-1
 50 70 l 1,11,-1
 40 70 l 1,12,-1
 40 80 l 1,9,-1
10 60 m 1,13,-1
 60 60 l 1,14,-1
 60 50 l 1,15,-1
 20 50 l 1,16,-1
 20 40 l 1,17,-1
 50 40 l 1,18,-1
 50 30 l 1,19,-1
 20 30 l 1,20,-1
 20 10 l 1,21,-1
 60 10 l 1,22,-1
 60 0 l 1,23,-1
 10 0 l 1,24,-1
 10 60 l 1,25,-1
 10 60 l 1,13,-1
EndSplineSet
EndChar

StartChar: Edieresis
Encoding: 203 203 111
Width: 60
VWidth: 95
GlyphClass: 1
Flags: W
LayerCount: 2
Fore
SplineSet
20 90 m 1,0,-1
 30 90 l 1,1,-1
 30 80 l 1,2,-1
 20 80 l 1,3,-1
 20 90 l 1,4,-1
 20 90 l 1,0,-1
40 90 m 1,5,-1
 50 90 l 1,6,-1
 50 80 l 1,7,-1
 40 80 l 1,8,-1
 40 90 l 1,5,-1
10 70 m 1,9,-1
 60 70 l 1,10,-1
 60 60 l 1,11,-1
 20 60 l 1,12,-1
 20 40 l 1,13,-1
 50 40 l 1,14,-1
 50 30 l 1,15,-1
 20 30 l 1,16,-1
 20 10 l 1,17,-1
 60 10 l 1,18,-1
 60 0 l 1,19,-1
 10 0 l 1,20,-1
 10 70 l 1,21,-1
 10 70 l 1,9,-1
EndSplineSet
EndChar

StartChar: Igrave
Encoding: 204 204 112
Width: 60
VWidth: 95
GlyphClass: 1
Flags: W
LayerCount: 2
Fore
SplineSet
20 90 m 1,0,-1
 30 90 l 1,1,-1
 30 80 l 1,2,-1
 20 80 l 1,3,-1
 20 90 l 1,4,-1
 20 90 l 1,0,-1
30 80 m 1,5,-1
 40 80 l 1,6,-1
 40 70 l 1,7,-1
 50 70 l 1,8,-1
 50 60 l 1,9,-1
 40 60 l 1,10,-1
 40 10 l 1,11,-1
 50 10 l 1,12,-1
 50 0 l 1,13,-1
 20 0 l 1,14,-1
 20 10 l 1,15,-1
 30 10 l 1,16,-1
 30 60 l 1,17,-1
 20 60 l 1,18,-1
 20 70 l 1,19,-1
 30 70 l 1,20,-1
 30 80 l 1,21,-1
 30 80 l 1,5,-1
EndSplineSet
EndChar

StartChar: Iacute
Encoding: 205 205 113
Width: 60
VWidth: 95
GlyphClass: 1
Flags: W
LayerCount: 2
Fore
SplineSet
40 90 m 1,0,-1
 50 90 l 1,1,-1
 50 80 l 1,2,-1
 40 80 l 1,3,-1
 40 90 l 1,0,-1
30 80 m 1,4,-1
 40 80 l 1,5,-1
 40 70 l 1,6,-1
 50 70 l 1,7,-1
 50 60 l 1,8,-1
 40 60 l 1,9,-1
 40 10 l 1,10,-1
 50 10 l 1,11,-1
 50 0 l 1,12,-1
 20 0 l 1,13,-1
 20 10 l 1,14,-1
 30 10 l 1,15,-1
 30 60 l 1,16,-1
 20 60 l 1,17,-1
 20 70 l 1,18,-1
 30 70 l 1,19,-1
 30 80 l 1,20,-1
 30 80 l 1,4,-1
EndSplineSet
EndChar

StartChar: Icircumflex
Encoding: 206 206 114
Width: 60
VWidth: 95
GlyphClass: 1
Flags: W
LayerCount: 2
Fore
SplineSet
30 90 m 1,0,-1
 40 90 l 1,1,-1
 40 80 l 1,2,-1
 30 80 l 1,3,-1
 30 90 l 1,0,-1
20 80 m 1,4,-1
 30 80 l 1,5,-1
 30 70 l 1,6,-1
 40 70 l 1,7,-1
 40 80 l 1,8,-1
 50 80 l 1,9,-1
 50 60 l 1,10,-1
 40 60 l 1,11,-1
 40 10 l 1,12,-1
 50 10 l 1,13,-1
 50 0 l 1,14,-1
 20 0 l 1,15,-1
 20 10 l 1,16,-1
 30 10 l 1,17,-1
 30 60 l 1,18,-1
 20 60 l 1,19,-1
 20 80 l 1,20,-1
 20 80 l 1,4,-1
EndSplineSet
EndChar

StartChar: Idieresis
Encoding: 207 207 115
Width: 60
VWidth: 95
GlyphClass: 1
Flags: W
LayerCount: 2
Fore
SplineSet
20 90 m 1,0,-1
 30 90 l 1,1,-1
 30 80 l 1,2,-1
 20 80 l 1,3,-1
 20 90 l 1,4,-1
 20 90 l 1,0,-1
40 90 m 1,5,-1
 50 90 l 1,6,-1
 50 80 l 1,7,-1
 40 80 l 1,8,-1
 40 90 l 1,5,-1
20 70 m 1,9,-1
 50 70 l 1,10,-1
 50 60 l 1,11,-1
 40 60 l 1,12,-1
 40 10 l 1,13,-1
 50 10 l 1,14,-1
 50 0 l 1,15,-1
 20 0 l 1,16,-1
 20 10 l 1,17,-1
 30 10 l 1,18,-1
 30 60 l 1,19,-1
 20 60 l 1,20,-1
 20 70 l 1,21,-1
 20 70 l 1,9,-1
EndSplineSet
EndChar

StartChar: Eth
Encoding: 208 208 116
Width: 60
VWidth: 95
GlyphClass: 1
Flags: W
LayerCount: 2
Fore
SplineSet
20 90 m 1,0,-1
 50 90 l 1,1,-1
 50 80 l 1,2,-1
 30 80 l 1,3,-1
 30 50 l 1,4,-1
 40 50 l 1,5,-1
 40 40 l 1,6,-1
 30 40 l 1,7,-1
 30 10 l 1,8,-1
 50 10 l 1,9,-1
 50 80 l 1,10,-1
 60 80 l 1,11,-1
 60 10 l 1,12,-1
 50 10 l 1,13,-1
 50 0 l 1,14,-1
 20 0 l 1,15,-1
 20 40 l 1,16,-1
 10 40 l 1,17,-1
 10 50 l 1,18,-1
 20 50 l 1,19,-1
 20 90 l 1,20,-1
 20 90 l 1,0,-1
EndSplineSet
EndChar

StartChar: Ntilde
Encoding: 209 209 117
Width: 60
VWidth: 95
GlyphClass: 1
Flags: W
LayerCount: 2
Fore
SplineSet
20 90 m 1,0,-1
 30 90 l 1,1,-1
 30 80 l 1,2,-1
 20 80 l 1,3,-1
 20 90 l 1,4,-1
 20 90 l 1,0,-1
50 90 m 1,5,-1
 60 90 l 1,6,-1
 60 80 l 1,7,-1
 50 80 l 1,8,-1
 50 90 l 1,5,-1
10 80 m 1,9,-1
 20 80 l 1,10,-1
 20 70 l 1,11,-1
 10 70 l 1,12,-1
 10 80 l 1,9,-1
30 80 m 1,13,-1
 50 80 l 1,14,-1
 50 70 l 1,15,-1
 30 70 l 1,16,-1
 30 80 l 1,17,-1
 30 80 l 1,13,-1
10 60 m 1,18,-1
 20 60 l 1,19,-1
 20 50 l 1,20,-1
 30 50 l 1,21,-1
 30 40 l 1,22,-1
 20 40 l 1,23,-1
 20 0 l 1,24,-1
 10 0 l 1,25,-1
 10 60 l 1,26,-1
 10 60 l 1,18,-1
50 60 m 1,27,-1
 60 60 l 1,28,-1
 60 0 l 1,29,-1
 50 0 l 1,30,-1
 50 20 l 1,31,-1
 40 20 l 1,32,-1
 40 30 l 1,33,-1
 30 30 l 1,34,-1
 30 40 l 1,35,-1
 40 40 l 1,36,-1
 40 30 l 1,37,-1
 50 30 l 1,38,-1
 50 60 l 1,39,-1
 50 60 l 1,27,-1
EndSplineSet
EndChar

StartChar: Ograve
Encoding: 210 210 118
Width: 60
VWidth: 95
GlyphClass: 1
Flags: W
LayerCount: 2
Fore
SplineSet
20 90 m 1,0,-1
 30 90 l 1,1,-1
 30 80 l 1,2,-1
 20 80 l 1,3,-1
 20 90 l 1,4,-1
 20 90 l 1,0,-1
30 80 m 1,5,-1
 40 80 l 1,6,-1
 40 70 l 1,7,-1
 50 70 l 1,8,-1
 50 60 l 1,9,-1
 20 60 l 1,10,-1
 20 70 l 1,11,-1
 30 70 l 1,12,-1
 30 80 l 1,13,-1
 30 80 l 1,5,-1
10 60 m 1,14,-1
 20 60 l 1,15,-1
 20 10 l 1,16,-1
 10 10 l 1,17,-1
 10 60 l 1,18,-1
 10 60 l 1,14,-1
50 60 m 1,19,-1
 60 60 l 1,20,-1
 60 10 l 1,21,-1
 50 10 l 1,22,-1
 50 60 l 1,23,-1
 50 60 l 1,19,-1
20 10 m 1,24,-1
 50 10 l 1,25,-1
 50 0 l 1,26,-1
 20 0 l 1,27,-1
 20 10 l 1,28,-1
 20 10 l 1,24,-1
EndSplineSet
EndChar

StartChar: Oacute
Encoding: 211 211 119
Width: 60
VWidth: 95
GlyphClass: 1
Flags: W
LayerCount: 2
Fore
SplineSet
40 90 m 1,0,-1
 50 90 l 1,1,-1
 50 80 l 1,2,-1
 40 80 l 1,3,-1
 40 90 l 1,0,-1
30 80 m 1,4,-1
 40 80 l 1,5,-1
 40 70 l 1,6,-1
 50 70 l 1,7,-1
 50 60 l 1,8,-1
 20 60 l 1,9,-1
 20 70 l 1,10,-1
 30 70 l 1,11,-1
 30 80 l 1,12,-1
 30 80 l 1,4,-1
10 60 m 1,13,-1
 20 60 l 1,14,-1
 20 10 l 1,15,-1
 10 10 l 1,16,-1
 10 60 l 1,17,-1
 10 60 l 1,13,-1
50 60 m 1,18,-1
 60 60 l 1,19,-1
 60 10 l 1,20,-1
 50 10 l 1,21,-1
 50 60 l 1,22,-1
 50 60 l 1,18,-1
20 10 m 1,23,-1
 50 10 l 1,24,-1
 50 0 l 1,25,-1
 20 0 l 1,26,-1
 20 10 l 1,27,-1
 20 10 l 1,23,-1
EndSplineSet
EndChar

StartChar: Ocircumflex
Encoding: 212 212 120
Width: 60
VWidth: 95
GlyphClass: 1
Flags: W
LayerCount: 2
Fore
SplineSet
30 90 m 1,0,-1
 40 90 l 1,1,-1
 40 80 l 1,2,-1
 30 80 l 1,3,-1
 30 90 l 1,0,-1
20 80 m 1,4,-1
 30 80 l 1,5,-1
 30 70 l 1,6,-1
 40 70 l 1,7,-1
 40 80 l 1,8,-1
 50 80 l 1,9,-1
 50 60 l 1,10,-1
 20 60 l 1,11,-1
 20 80 l 1,12,-1
 20 80 l 1,4,-1
10 60 m 1,13,-1
 20 60 l 1,14,-1
 20 10 l 1,15,-1
 10 10 l 1,16,-1
 10 60 l 1,17,-1
 10 60 l 1,13,-1
50 60 m 1,18,-1
 60 60 l 1,19,-1
 60 10 l 1,20,-1
 50 10 l 1,21,-1
 50 60 l 1,22,-1
 50 60 l 1,18,-1
20 10 m 1,23,-1
 50 10 l 1,24,-1
 50 0 l 1,25,-1
 20 0 l 1,26,-1
 20 10 l 1,27,-1
 20 10 l 1,23,-1
EndSplineSet
EndChar

StartChar: Otilde
Encoding: 213 213 121
Width: 60
VWidth: 95
GlyphClass: 1
Flags: W
LayerCount: 2
Fore
SplineSet
20 90 m 1,0,-1
 30 90 l 1,1,-1
 30 80 l 1,2,-1
 20 80 l 1,3,-1
 20 90 l 1,4,-1
 20 90 l 1,0,-1
50 90 m 1,5,-1
 60 90 l 1,6,-1
 60 80 l 1,7,-1
 50 80 l 1,8,-1
 50 90 l 1,5,-1
10 80 m 1,9,-1
 20 80 l 1,10,-1
 20 70 l 1,11,-1
 10 70 l 1,12,-1
 10 80 l 1,9,-1
30 80 m 1,13,-1
 50 80 l 1,14,-1
 50 60 l 1,15,-1
 20 60 l 1,16,-1
 20 70 l 1,17,-1
 30 70 l 1,18,-1
 30 80 l 1,19,-1
 30 80 l 1,13,-1
10 60 m 1,20,-1
 20 60 l 1,21,-1
 20 10 l 1,22,-1
 10 10 l 1,23,-1
 10 60 l 1,24,-1
 10 60 l 1,20,-1
50 60 m 1,25,-1
 60 60 l 1,26,-1
 60 10 l 1,27,-1
 50 10 l 1,28,-1
 50 60 l 1,29,-1
 50 60 l 1,25,-1
20 10 m 1,30,-1
 50 10 l 1,31,-1
 50 0 l 1,32,-1
 20 0 l 1,33,-1
 20 10 l 1,34,-1
 20 10 l 1,30,-1
EndSplineSet
EndChar

StartChar: Odieresis
Encoding: 214 214 122
Width: 60
VWidth: 95
GlyphClass: 1
Flags: W
LayerCount: 2
Fore
SplineSet
20 90 m 1,0,-1
 30 90 l 1,1,-1
 30 80 l 1,2,-1
 20 80 l 1,3,-1
 20 90 l 1,4,-1
 20 90 l 1,0,-1
40 90 m 1,5,-1
 50 90 l 1,6,-1
 50 80 l 1,7,-1
 40 80 l 1,8,-1
 40 90 l 1,5,-1
20 70 m 1,9,-1
 50 70 l 1,10,-1
 50 60 l 1,11,-1
 20 60 l 1,12,-1
 20 70 l 1,13,-1
 20 70 l 1,9,-1
10 60 m 1,14,-1
 20 60 l 1,15,-1
 20 10 l 1,16,-1
 10 10 l 1,17,-1
 10 60 l 1,18,-1
 10 60 l 1,14,-1
50 60 m 1,19,-1
 60 60 l 1,20,-1
 60 10 l 1,21,-1
 50 10 l 1,22,-1
 50 60 l 1,23,-1
 50 60 l 1,19,-1
20 10 m 1,24,-1
 50 10 l 1,25,-1
 50 0 l 1,26,-1
 20 0 l 1,27,-1
 20 10 l 1,28,-1
 20 10 l 1,24,-1
EndSplineSet
EndChar

StartChar: multiply
Encoding: 215 215 123
Width: 60
VWidth: 95
GlyphClass: 1
Flags: W
LayerCount: 2
Fore
SplineSet
10 70 m 1,0,-1
 20 70 l 1,1,-1
 20 60 l 1,2,-1
 10 60 l 1,3,-1
 10 70 l 1,0,-1
50 70 m 1,4,-1
 60 70 l 1,5,-1
 60 60 l 1,6,-1
 50 60 l 1,7,-1
 50 70 l 1,4,-1
20 60 m 1,8,-1
 30 60 l 1,9,-1
 30 50 l 1,10,-1
 20 50 l 1,11,-1
 20 60 l 1,12,-1
 20 60 l 1,8,-1
40 60 m 1,13,-1
 50 60 l 1,14,-1
 50 50 l 1,15,-1
 40 50 l 1,16,-1
 40 60 l 1,13,-1
30 50 m 1,17,-1
 40 50 l 1,18,-1
 40 40 l 1,19,-1
 30 40 l 1,20,-1
 30 50 l 1,17,-1
20 40 m 1,21,-1
 30 40 l 1,22,-1
 30 30 l 1,23,-1
 20 30 l 1,24,-1
 20 40 l 1,25,-1
 20 40 l 1,21,-1
40 40 m 1,26,-1
 50 40 l 1,27,-1
 50 30 l 1,28,-1
 40 30 l 1,29,-1
 40 40 l 1,26,-1
10 30 m 1,30,-1
 20 30 l 1,31,-1
 20 20 l 1,32,-1
 10 20 l 1,33,-1
 10 30 l 1,30,-1
50 30 m 1,34,-1
 60 30 l 1,35,-1
 60 20 l 1,36,-1
 50 20 l 1,37,-1
 50 30 l 1,34,-1
EndSplineSet
EndChar

StartChar: Oslash
Encoding: 216 216 124
Width: 60
VWidth: 95
GlyphClass: 1
Flags: W
LayerCount: 2
Fore
SplineSet
20 90 m 1,0,-1
 40 90 l 1,1,-1
 40 80 l 1,2,-1
 20 80 l 1,3,-1
 20 90 l 1,0,-1
50 90 m 1,4,-1
 60 90 l 1,5,-1
 60 80 l 1,6,-1
 50 80 l 1,7,-1
 50 90 l 1,4,-1
10 80 m 1,8,-1
 20 80 l 1,9,-1
 20 30 l 1,10,-1
 30 30 l 1,11,-1
 30 60 l 1,12,-1
 40 60 l 1,13,-1
 40 80 l 1,14,-1
 50 80 l 1,15,-1
 50 70 l 1,16,-1
 60 70 l 1,17,-1
 60 10 l 1,18,-1
 50 10 l 1,19,-1
 50 60 l 1,20,-1
 40 60 l 1,21,-1
 40 30 l 1,22,-1
 30 30 l 1,23,-1
 30 10 l 1,24,-1
 20 10 l 1,25,-1
 20 20 l 1,26,-1
 10 20 l 1,27,-1
 10 80 l 1,28,-1
 10 80 l 1,8,-1
10 10 m 1,29,-1
 20 10 l 1,30,-1
 20 0 l 1,31,-1
 10 0 l 1,32,-1
 10 10 l 1,29,-1
30 10 m 1,33,-1
 50 10 l 1,34,-1
 50 0 l 1,35,-1
 30 0 l 1,36,-1
 30 10 l 1,37,-1
 30 10 l 1,33,-1
EndSplineSet
EndChar

StartChar: Ugrave
Encoding: 217 217 125
Width: 60
VWidth: 95
GlyphClass: 1
Flags: W
LayerCount: 2
Fore
SplineSet
20 90 m 1,0,-1
 30 90 l 1,1,-1
 30 80 l 1,2,-1
 20 80 l 1,3,-1
 20 90 l 1,4,-1
 20 90 l 1,0,-1
30 80 m 1,5,-1
 40 80 l 1,6,-1
 40 70 l 1,7,-1
 30 70 l 1,8,-1
 30 80 l 1,5,-1
10 70 m 1,9,-1
 20 70 l 1,10,-1
 20 10 l 1,11,-1
 10 10 l 1,12,-1
 10 70 l 1,9,-1
50 70 m 1,13,-1
 60 70 l 1,14,-1
 60 10 l 1,15,-1
 50 10 l 1,16,-1
 50 70 l 1,13,-1
20 10 m 1,17,-1
 50 10 l 1,18,-1
 50 0 l 1,19,-1
 20 0 l 1,20,-1
 20 10 l 1,21,-1
 20 10 l 1,17,-1
EndSplineSet
EndChar

StartChar: Uacute
Encoding: 218 218 126
Width: 60
VWidth: 95
GlyphClass: 1
Flags: W
LayerCount: 2
Fore
SplineSet
40 90 m 1,0,-1
 50 90 l 1,1,-1
 50 80 l 1,2,-1
 40 80 l 1,3,-1
 40 90 l 1,0,-1
30 80 m 1,4,-1
 40 80 l 1,5,-1
 40 70 l 1,6,-1
 30 70 l 1,7,-1
 30 80 l 1,4,-1
10 70 m 1,8,-1
 20 70 l 1,9,-1
 20 10 l 1,10,-1
 10 10 l 1,11,-1
 10 70 l 1,8,-1
50 70 m 1,12,-1
 60 70 l 1,13,-1
 60 10 l 1,14,-1
 50 10 l 1,15,-1
 50 70 l 1,12,-1
20 10 m 1,16,-1
 50 10 l 1,17,-1
 50 0 l 1,18,-1
 20 0 l 1,19,-1
 20 10 l 1,20,-1
 20 10 l 1,16,-1
EndSplineSet
EndChar

StartChar: Ucircumflex
Encoding: 219 219 127
Width: 60
VWidth: 95
GlyphClass: 1
Flags: W
LayerCount: 2
Fore
SplineSet
30 90 m 1,0,-1
 40 90 l 1,1,-1
 40 80 l 1,2,-1
 30 80 l 1,3,-1
 30 90 l 1,0,-1
20 80 m 1,4,-1
 30 80 l 1,5,-1
 30 70 l 1,6,-1
 20 70 l 1,7,-1
 20 80 l 1,8,-1
 20 80 l 1,4,-1
40 80 m 1,9,-1
 50 80 l 1,10,-1
 50 70 l 1,11,-1
 40 70 l 1,12,-1
 40 80 l 1,9,-1
10 60 m 1,13,-1
 20 60 l 1,14,-1
 20 10 l 1,15,-1
 10 10 l 1,16,-1
 10 60 l 1,17,-1
 10 60 l 1,13,-1
50 60 m 1,18,-1
 60 60 l 1,19,-1
 60 10 l 1,20,-1
 50 10 l 1,21,-1
 50 60 l 1,22,-1
 50 60 l 1,18,-1
20 10 m 1,23,-1
 50 10 l 1,24,-1
 50 0 l 1,25,-1
 20 0 l 1,26,-1
 20 10 l 1,27,-1
 20 10 l 1,23,-1
EndSplineSet
EndChar

StartChar: Udieresis
Encoding: 220 220 128
Width: 60
VWidth: 95
GlyphClass: 1
Flags: W
LayerCount: 2
Fore
SplineSet
20 90 m 1,0,-1
 30 90 l 1,1,-1
 30 80 l 1,2,-1
 20 80 l 1,3,-1
 20 90 l 1,4,-1
 20 90 l 1,0,-1
40 90 m 1,5,-1
 50 90 l 1,6,-1
 50 80 l 1,7,-1
 40 80 l 1,8,-1
 40 90 l 1,5,-1
10 70 m 1,9,-1
 20 70 l 1,10,-1
 20 10 l 1,11,-1
 10 10 l 1,12,-1
 10 70 l 1,9,-1
50 70 m 1,13,-1
 60 70 l 1,14,-1
 60 10 l 1,15,-1
 50 10 l 1,16,-1
 50 70 l 1,13,-1
20 10 m 1,17,-1
 50 10 l 1,18,-1
 50 0 l 1,19,-1
 20 0 l 1,20,-1
 20 10 l 1,21,-1
 20 10 l 1,17,-1
EndSplineSet
EndChar

StartChar: Yacute
Encoding: 221 221 129
Width: 60
VWidth: 95
GlyphClass: 1
Flags: W
LayerCount: 2
Fore
SplineSet
40 90 m 1,0,-1
 50 90 l 1,1,-1
 50 80 l 1,2,-1
 40 80 l 1,3,-1
 40 90 l 1,0,-1
30 80 m 1,4,-1
 40 80 l 1,5,-1
 40 70 l 1,6,-1
 30 70 l 1,7,-1
 30 80 l 1,4,-1
10 70 m 1,8,-1
 20 70 l 1,9,-1
 20 50 l 1,10,-1
 10 50 l 1,11,-1
 10 70 l 1,8,-1
50 70 m 1,12,-1
 60 70 l 1,13,-1
 60 50 l 1,14,-1
 50 50 l 1,15,-1
 50 70 l 1,12,-1
20 50 m 1,16,-1
 30 50 l 1,17,-1
 30 40 l 1,18,-1
 20 40 l 1,19,-1
 20 50 l 1,20,-1
 20 50 l 1,16,-1
40 50 m 1,21,-1
 50 50 l 1,22,-1
 50 40 l 1,23,-1
 40 40 l 1,24,-1
 40 50 l 1,21,-1
30 40 m 1,25,-1
 40 40 l 1,26,-1
 40 0 l 1,27,-1
 30 0 l 1,28,-1
 30 40 l 1,25,-1
EndSplineSet
EndChar

StartChar: Thorn
Encoding: 222 222 130
Width: 60
VWidth: 95
GlyphClass: 1
Flags: W
LayerCount: 2
Fore
SplineSet
10 90 m 1,0,-1
 20 90 l 1,1,-1
 20 70 l 1,2,-1
 50 70 l 1,3,-1
 50 60 l 1,4,-1
 20 60 l 1,5,-1
 20 30 l 1,6,-1
 50 30 l 1,7,-1
 50 60 l 1,8,-1
 60 60 l 1,9,-1
 60 30 l 1,10,-1
 50 30 l 1,11,-1
 50 20 l 1,12,-1
 20 20 l 1,13,-1
 20 0 l 1,14,-1
 10 0 l 1,15,-1
 10 90 l 1,16,-1
 10 90 l 1,0,-1
EndSplineSet
EndChar

StartChar: germandbls
Encoding: 223 223 131
Width: 60
VWidth: 95
GlyphClass: 1
Flags: W
LayerCount: 2
Fore
SplineSet
20 90 m 1,0,-1
 50 90 l 1,1,-1
 50 80 l 1,2,-1
 20 80 l 1,3,-1
 20 90 l 1,4,-1
 20 90 l 1,0,-1
10 80 m 1,5,-1
 20 80 l 1,6,-1
 20 0 l 1,7,-1
 10 0 l 1,8,-1
 10 80 l 1,5,-1
50 80 m 1,9,-1
 60 80 l 1,10,-1
 60 50 l 1,11,-1
 50 50 l 1,12,-1
 50 80 l 1,9,-1
30 50 m 1,13,-1
 50 50 l 1,14,-1
 50 40 l 1,15,-1
 30 40 l 1,16,-1
 30 50 l 1,17,-1
 30 50 l 1,13,-1
50 40 m 1,18,-1
 60 40 l 1,19,-1
 60 10 l 1,20,-1
 50 10 l 1,21,-1
 50 40 l 1,22,-1
 50 40 l 1,18,-1
30 10 m 1,23,-1
 50 10 l 1,24,-1
 50 0 l 1,25,-1
 30 0 l 1,26,-1
 30 10 l 1,27,-1
 30 10 l 1,23,-1
EndSplineSet
EndChar

StartChar: agrave
Encoding: 224 224 132
Width: 60
VWidth: 95
GlyphClass: 1
Flags: W
LayerCount: 2
Fore
SplineSet
20 90 m 1,0,-1
 30 90 l 1,1,-1
 30 80 l 1,2,-1
 20 80 l 1,3,-1
 20 90 l 1,4,-1
 20 90 l 1,0,-1
30 80 m 1,5,-1
 40 80 l 1,6,-1
 40 70 l 1,7,-1
 30 70 l 1,8,-1
 30 80 l 1,5,-1
20 60 m 1,9,-1
 50 60 l 1,10,-1
 50 50 l 1,11,-1
 20 50 l 1,12,-1
 20 60 l 1,13,-1
 20 60 l 1,9,-1
50 50 m 1,14,-1
 60 50 l 1,15,-1
 60 0 l 1,16,-1
 20 0 l 1,17,-1
 20 10 l 1,18,-1
 10 10 l 1,19,-1
 10 30 l 1,20,-1
 20 30 l 1,21,-1
 20 40 l 1,22,-1
 50 40 l 1,23,-1
 50 50 l 1,24,-1
 50 50 l 1,14,-1
30 30 m 1,25,-1
 20 30 l 1,26,-1
 20 10 l 1,27,-1
 50 10 l 1,28,-1
 50 30 l 1,29,-1
 30 30 l 1,30,-1
 30 30 l 1,25,-1
EndSplineSet
EndChar

StartChar: aacute
Encoding: 225 225 133
Width: 60
VWidth: 95
GlyphClass: 1
Flags: W
LayerCount: 2
Fore
SplineSet
40 90 m 1,0,-1
 50 90 l 1,1,-1
 50 80 l 1,2,-1
 40 80 l 1,3,-1
 40 90 l 1,0,-1
30 80 m 1,4,-1
 40 80 l 1,5,-1
 40 70 l 1,6,-1
 30 70 l 1,7,-1
 30 80 l 1,4,-1
20 60 m 1,8,-1
 50 60 l 1,9,-1
 50 50 l 1,10,-1
 20 50 l 1,11,-1
 20 60 l 1,12,-1
 20 60 l 1,8,-1
50 50 m 1,13,-1
 60 50 l 1,14,-1
 60 0 l 1,15,-1
 20 0 l 1,16,-1
 20 10 l 1,17,-1
 10 10 l 1,18,-1
 10 30 l 1,19,-1
 20 30 l 1,20,-1
 20 40 l 1,21,-1
 50 40 l 1,22,-1
 50 50 l 1,23,-1
 50 50 l 1,13,-1
30 30 m 1,24,-1
 20 30 l 1,25,-1
 20 10 l 1,26,-1
 50 10 l 1,27,-1
 50 30 l 1,28,-1
 30 30 l 1,29,-1
 30 30 l 1,24,-1
EndSplineSet
EndChar

StartChar: acircumflex
Encoding: 226 226 134
Width: 60
VWidth: 95
GlyphClass: 1
Flags: W
LayerCount: 2
Fore
SplineSet
30 90 m 1,0,-1
 40 90 l 1,1,-1
 40 80 l 1,2,-1
 30 80 l 1,3,-1
 30 90 l 1,0,-1
20 80 m 1,4,-1
 30 80 l 1,5,-1
 30 70 l 1,6,-1
 20 70 l 1,7,-1
 20 80 l 1,8,-1
 20 80 l 1,4,-1
40 80 m 1,9,-1
 50 80 l 1,10,-1
 50 70 l 1,11,-1
 40 70 l 1,12,-1
 40 80 l 1,9,-1
20 60 m 1,13,-1
 50 60 l 1,14,-1
 50 50 l 1,15,-1
 20 50 l 1,16,-1
 20 60 l 1,17,-1
 20 60 l 1,13,-1
50 50 m 1,18,-1
 60 50 l 1,19,-1
 60 0 l 1,20,-1
 20 0 l 1,21,-1
 20 10 l 1,22,-1
 10 10 l 1,23,-1
 10 30 l 1,24,-1
 20 30 l 1,25,-1
 20 40 l 1,26,-1
 50 40 l 1,27,-1
 50 50 l 1,28,-1
 50 50 l 1,18,-1
30 30 m 1,29,-1
 20 30 l 1,30,-1
 20 10 l 1,31,-1
 50 10 l 1,32,-1
 50 30 l 1,33,-1
 30 30 l 1,34,-1
 30 30 l 1,29,-1
EndSplineSet
EndChar

StartChar: atilde
Encoding: 227 227 135
Width: 60
VWidth: 95
GlyphClass: 1
Flags: W
LayerCount: 2
Fore
SplineSet
20 90 m 1,0,-1
 30 90 l 1,1,-1
 30 80 l 1,2,-1
 20 80 l 1,3,-1
 20 90 l 1,4,-1
 20 90 l 1,0,-1
50 90 m 1,5,-1
 60 90 l 1,6,-1
 60 80 l 1,7,-1
 50 80 l 1,8,-1
 50 90 l 1,5,-1
10 80 m 1,9,-1
 20 80 l 1,10,-1
 20 70 l 1,11,-1
 10 70 l 1,12,-1
 10 80 l 1,9,-1
30 80 m 1,13,-1
 50 80 l 1,14,-1
 50 70 l 1,15,-1
 30 70 l 1,16,-1
 30 80 l 1,17,-1
 30 80 l 1,13,-1
20 60 m 1,18,-1
 50 60 l 1,19,-1
 50 50 l 1,20,-1
 20 50 l 1,21,-1
 20 60 l 1,22,-1
 20 60 l 1,18,-1
50 50 m 1,23,-1
 60 50 l 1,24,-1
 60 0 l 1,25,-1
 20 0 l 1,26,-1
 20 10 l 1,27,-1
 10 10 l 1,28,-1
 10 30 l 1,29,-1
 20 30 l 1,30,-1
 20 40 l 1,31,-1
 50 40 l 1,32,-1
 50 50 l 1,33,-1
 50 50 l 1,23,-1
30 30 m 1,34,-1
 20 30 l 1,35,-1
 20 10 l 1,36,-1
 50 10 l 1,37,-1
 50 30 l 1,38,-1
 30 30 l 1,39,-1
 30 30 l 1,34,-1
EndSplineSet
EndChar

StartChar: adieresis
Encoding: 228 228 136
Width: 60
VWidth: 95
GlyphClass: 1
Flags: W
LayerCount: 2
Fore
SplineSet
20 80 m 1,0,-1
 30 80 l 1,1,-1
 30 70 l 1,2,-1
 20 70 l 1,3,-1
 20 80 l 1,4,-1
 20 80 l 1,0,-1
40 80 m 1,5,-1
 50 80 l 1,6,-1
 50 70 l 1,7,-1
 40 70 l 1,8,-1
 40 80 l 1,5,-1
20 60 m 1,9,-1
 50 60 l 1,10,-1
 50 50 l 1,11,-1
 20 50 l 1,12,-1
 20 60 l 1,13,-1
 20 60 l 1,9,-1
50 50 m 1,14,-1
 60 50 l 1,15,-1
 60 0 l 1,16,-1
 20 0 l 1,17,-1
 20 10 l 1,18,-1
 10 10 l 1,19,-1
 10 30 l 1,20,-1
 20 30 l 1,21,-1
 20 40 l 1,22,-1
 50 40 l 1,23,-1
 50 50 l 1,24,-1
 50 50 l 1,14,-1
30 30 m 1,25,-1
 20 30 l 1,26,-1
 20 10 l 1,27,-1
 50 10 l 1,28,-1
 50 30 l 1,29,-1
 30 30 l 1,30,-1
 30 30 l 1,25,-1
EndSplineSet
EndChar

StartChar: aring
Encoding: 229 229 137
Width: 60
VWidth: 95
GlyphClass: 1
Flags: W
LayerCount: 2
Fore
SplineSet
30 90 m 1,0,-1
 40 90 l 1,1,-1
 40 80 l 1,2,-1
 30 80 l 1,3,-1
 30 90 l 1,0,-1
20 80 m 1,4,-1
 30 80 l 1,5,-1
 30 70 l 1,6,-1
 20 70 l 1,7,-1
 20 80 l 1,8,-1
 20 80 l 1,4,-1
40 80 m 1,9,-1
 50 80 l 1,10,-1
 50 70 l 1,11,-1
 40 70 l 1,12,-1
 40 80 l 1,9,-1
30 70 m 1,13,-1
 40 70 l 1,14,-1
 40 60 l 1,15,-1
 50 60 l 1,16,-1
 50 50 l 1,17,-1
 20 50 l 1,18,-1
 20 60 l 1,19,-1
 30 60 l 1,20,-1
 30 70 l 1,21,-1
 30 70 l 1,13,-1
50 50 m 1,22,-1
 60 50 l 1,23,-1
 60 0 l 1,24,-1
 20 0 l 1,25,-1
 20 10 l 1,26,-1
 10 10 l 1,27,-1
 10 30 l 1,28,-1
 20 30 l 1,29,-1
 20 40 l 1,30,-1
 50 40 l 1,31,-1
 50 50 l 1,32,-1
 50 50 l 1,22,-1
30 30 m 1,33,-1
 20 30 l 1,34,-1
 20 10 l 1,35,-1
 50 10 l 1,36,-1
 50 30 l 1,37,-1
 30 30 l 1,38,-1
 30 30 l 1,33,-1
EndSplineSet
EndChar

StartChar: ae
Encoding: 230 230 138
Width: 60
VWidth: 95
GlyphClass: 1
Flags: W
LayerCount: 2
Fore
SplineSet
10 70 m 1,0,-1
 30 70 l 1,1,-1
 30 60 l 1,2,-1
 10 60 l 1,3,-1
 10 70 l 1,4,-1
 10 70 l 1,0,-1
40 70 m 1,5,-1
 50 70 l 1,6,-1
 50 60 l 1,7,-1
 40 60 l 1,8,-1
 40 70 l 1,5,-1
30 60 m 1,9,-1
 40 60 l 1,10,-1
 40 40 l 1,11,-1
 50 40 l 1,12,-1
 50 60 l 1,13,-1
 60 60 l 1,14,-1
 60 30 l 1,15,-1
 40 30 l 1,16,-1
 40 10 l 1,17,-1
 60 10 l 1,18,-1
 60 0 l 1,19,-1
 20 0 l 1,20,-1
 20 10 l 1,21,-1
 10 10 l 1,22,-1
 10 30 l 1,23,-1
 20 30 l 1,24,-1
 20 40 l 1,25,-1
 30 40 l 1,26,-1
 30 60 l 1,27,-1
 30 60 l 1,9,-1
30 30 m 1,28,-1
 20 30 l 1,29,-1
 20 10 l 1,30,-1
 30 10 l 1,31,-1
 30 30 l 1,28,-1
EndSplineSet
EndChar

StartChar: ccedilla
Encoding: 231 231 139
Width: 60
VWidth: 95
GlyphClass: 1
Flags: W
LayerCount: 2
Fore
SplineSet
20 70 m 1,0,-1
 50 70 l 1,1,-1
 50 60 l 1,2,-1
 20 60 l 1,3,-1
 20 70 l 1,4,-1
 20 70 l 1,0,-1
10 60 m 1,5,-1
 20 60 l 1,6,-1
 20 30 l 1,7,-1
 10 30 l 1,8,-1
 10 60 l 1,5,-1
50 60 m 1,9,-1
 60 60 l 1,10,-1
 60 50 l 1,11,-1
 50 50 l 1,12,-1
 50 60 l 1,9,-1
50 40 m 1,13,-1
 60 40 l 1,14,-1
 60 30 l 1,15,-1
 50 30 l 1,16,-1
 50 40 l 1,13,-1
20 30 m 1,17,-1
 50 30 l 1,18,-1
 50 20 l 1,19,-1
 40 20 l 1,20,-1
 40 0 l 1,21,-1
 20 0 l 1,22,-1
 20 10 l 1,23,-1
 30 10 l 1,24,-1
 30 20 l 1,25,-1
 20 20 l 1,26,-1
 20 30 l 1,27,-1
 20 30 l 1,17,-1
EndSplineSet
EndChar

StartChar: egrave
Encoding: 232 232 140
Width: 60
VWidth: 95
GlyphClass: 1
Flags: W
LayerCount: 2
Fore
SplineSet
20 90 m 1,0,-1
 30 90 l 1,1,-1
 30 80 l 1,2,-1
 20 80 l 1,3,-1
 20 90 l 1,4,-1
 20 90 l 1,0,-1
30 80 m 1,5,-1
 40 80 l 1,6,-1
 40 70 l 1,7,-1
 30 70 l 1,8,-1
 30 80 l 1,5,-1
20 60 m 1,9,-1
 50 60 l 1,10,-1
 50 50 l 1,11,-1
 20 50 l 1,12,-1
 20 60 l 1,13,-1
 20 60 l 1,9,-1
10 50 m 1,14,-1
 20 50 l 1,15,-1
 20 40 l 1,16,-1
 50 40 l 1,17,-1
 50 50 l 1,18,-1
 60 50 l 1,19,-1
 60 30 l 1,20,-1
 20 30 l 1,21,-1
 20 10 l 1,22,-1
 10 10 l 1,23,-1
 10 50 l 1,24,-1
 10 50 l 1,14,-1
50 20 m 1,25,-1
 60 20 l 1,26,-1
 60 10 l 1,27,-1
 50 10 l 1,28,-1
 50 20 l 1,25,-1
20 10 m 1,29,-1
 50 10 l 1,30,-1
 50 0 l 1,31,-1
 20 0 l 1,32,-1
 20 10 l 1,33,-1
 20 10 l 1,29,-1
EndSplineSet
EndChar

StartChar: eacute
Encoding: 233 233 141
Width: 60
VWidth: 95
GlyphClass: 1
Flags: W
LayerCount: 2
Fore
SplineSet
40 90 m 1,0,-1
 50 90 l 1,1,-1
 50 80 l 1,2,-1
 40 80 l 1,3,-1
 40 90 l 1,0,-1
30 80 m 1,4,-1
 40 80 l 1,5,-1
 40 70 l 1,6,-1
 30 70 l 1,7,-1
 30 80 l 1,4,-1
20 60 m 1,8,-1
 50 60 l 1,9,-1
 50 50 l 1,10,-1
 20 50 l 1,11,-1
 20 60 l 1,12,-1
 20 60 l 1,8,-1
10 50 m 1,13,-1
 20 50 l 1,14,-1
 20 40 l 1,15,-1
 50 40 l 1,16,-1
 50 50 l 1,17,-1
 60 50 l 1,18,-1
 60 30 l 1,19,-1
 20 30 l 1,20,-1
 20 10 l 1,21,-1
 10 10 l 1,22,-1
 10 50 l 1,23,-1
 10 50 l 1,13,-1
50 20 m 1,24,-1
 60 20 l 1,25,-1
 60 10 l 1,26,-1
 50 10 l 1,27,-1
 50 20 l 1,24,-1
20 10 m 1,28,-1
 50 10 l 1,29,-1
 50 0 l 1,30,-1
 20 0 l 1,31,-1
 20 10 l 1,32,-1
 20 10 l 1,28,-1
EndSplineSet
EndChar

StartChar: ecircumflex
Encoding: 234 234 142
Width: 60
VWidth: 95
GlyphClass: 1
Flags: W
LayerCount: 2
Fore
SplineSet
30 90 m 1,0,-1
 40 90 l 1,1,-1
 40 80 l 1,2,-1
 30 80 l 1,3,-1
 30 90 l 1,0,-1
20 80 m 1,4,-1
 30 80 l 1,5,-1
 30 70 l 1,6,-1
 20 70 l 1,7,-1
 20 80 l 1,8,-1
 20 80 l 1,4,-1
40 80 m 1,9,-1
 50 80 l 1,10,-1
 50 70 l 1,11,-1
 40 70 l 1,12,-1
 40 80 l 1,9,-1
20 60 m 1,13,-1
 50 60 l 1,14,-1
 50 50 l 1,15,-1
 20 50 l 1,16,-1
 20 60 l 1,17,-1
 20 60 l 1,13,-1
10 50 m 1,18,-1
 20 50 l 1,19,-1
 20 40 l 1,20,-1
 50 40 l 1,21,-1
 50 50 l 1,22,-1
 60 50 l 1,23,-1
 60 30 l 1,24,-1
 20 30 l 1,25,-1
 20 10 l 1,26,-1
 10 10 l 1,27,-1
 10 50 l 1,28,-1
 10 50 l 1,18,-1
50 20 m 1,29,-1
 60 20 l 1,30,-1
 60 10 l 1,31,-1
 50 10 l 1,32,-1
 50 20 l 1,29,-1
20 10 m 1,33,-1
 50 10 l 1,34,-1
 50 0 l 1,35,-1
 20 0 l 1,36,-1
 20 10 l 1,37,-1
 20 10 l 1,33,-1
EndSplineSet
EndChar

StartChar: edieresis
Encoding: 235 235 143
Width: 60
VWidth: 95
GlyphClass: 1
Flags: W
LayerCount: 2
Fore
SplineSet
20 90 m 1,0,-1
 30 90 l 1,1,-1
 30 80 l 1,2,-1
 20 80 l 1,3,-1
 20 90 l 1,4,-1
 20 90 l 1,0,-1
40 90 m 1,5,-1
 50 90 l 1,6,-1
 50 80 l 1,7,-1
 40 80 l 1,8,-1
 40 90 l 1,5,-1
20 70 m 1,9,-1
 50 70 l 1,10,-1
 50 60 l 1,11,-1
 20 60 l 1,12,-1
 20 70 l 1,13,-1
 20 70 l 1,9,-1
10 60 m 1,14,-1
 20 60 l 1,15,-1
 20 40 l 1,16,-1
 50 40 l 1,17,-1
 50 60 l 1,18,-1
 60 60 l 1,19,-1
 60 30 l 1,20,-1
 20 30 l 1,21,-1
 20 10 l 1,22,-1
 10 10 l 1,23,-1
 10 60 l 1,24,-1
 10 60 l 1,14,-1
50 20 m 1,25,-1
 60 20 l 1,26,-1
 60 10 l 1,27,-1
 50 10 l 1,28,-1
 50 20 l 1,25,-1
20 10 m 1,29,-1
 50 10 l 1,30,-1
 50 0 l 1,31,-1
 20 0 l 1,32,-1
 20 10 l 1,33,-1
 20 10 l 1,29,-1
EndSplineSet
EndChar

StartChar: igrave
Encoding: 236 236 144
Width: 60
VWidth: 95
GlyphClass: 1
Flags: W
LayerCount: 2
Fore
SplineSet
20 90 m 1,0,-1
 30 90 l 1,1,-1
 30 80 l 1,2,-1
 20 80 l 1,3,-1
 20 90 l 1,4,-1
 20 90 l 1,0,-1
30 80 m 1,5,-1
 40 80 l 1,6,-1
 40 70 l 1,7,-1
 30 70 l 1,8,-1
 30 80 l 1,5,-1
20 60 m 1,9,-1
 40 60 l 1,10,-1
 40 10 l 1,11,-1
 50 10 l 1,12,-1
 50 0 l 1,13,-1
 20 0 l 1,14,-1
 20 10 l 1,15,-1
 30 10 l 1,16,-1
 30 50 l 1,17,-1
 20 50 l 1,18,-1
 20 60 l 1,19,-1
 20 60 l 1,9,-1
EndSplineSet
EndChar

StartChar: iacute
Encoding: 237 237 145
Width: 60
VWidth: 95
GlyphClass: 1
Flags: W
LayerCount: 2
Fore
SplineSet
40 90 m 1,0,-1
 50 90 l 1,1,-1
 50 80 l 1,2,-1
 40 80 l 1,3,-1
 40 90 l 1,0,-1
30 80 m 1,4,-1
 40 80 l 1,5,-1
 40 70 l 1,6,-1
 30 70 l 1,7,-1
 30 80 l 1,4,-1
20 60 m 1,8,-1
 40 60 l 1,9,-1
 40 10 l 1,10,-1
 50 10 l 1,11,-1
 50 0 l 1,12,-1
 20 0 l 1,13,-1
 20 10 l 1,14,-1
 30 10 l 1,15,-1
 30 50 l 1,16,-1
 20 50 l 1,17,-1
 20 60 l 1,18,-1
 20 60 l 1,8,-1
EndSplineSet
EndChar

StartChar: icircumflex
Encoding: 238 238 146
Width: 60
VWidth: 95
GlyphClass: 1
Flags: W
LayerCount: 2
Fore
SplineSet
30 90 m 1,0,-1
 40 90 l 1,1,-1
 40 80 l 1,2,-1
 30 80 l 1,3,-1
 30 90 l 1,0,-1
20 80 m 1,4,-1
 30 80 l 1,5,-1
 30 70 l 1,6,-1
 20 70 l 1,7,-1
 20 80 l 1,8,-1
 20 80 l 1,4,-1
40 80 m 1,9,-1
 50 80 l 1,10,-1
 50 70 l 1,11,-1
 40 70 l 1,12,-1
 40 80 l 1,9,-1
20 60 m 1,13,-1
 40 60 l 1,14,-1
 40 10 l 1,15,-1
 50 10 l 1,16,-1
 50 0 l 1,17,-1
 20 0 l 1,18,-1
 20 10 l 1,19,-1
 30 10 l 1,20,-1
 30 50 l 1,21,-1
 20 50 l 1,22,-1
 20 60 l 1,23,-1
 20 60 l 1,13,-1
EndSplineSet
EndChar

StartChar: idieresis
Encoding: 239 239 147
Width: 60
VWidth: 95
GlyphClass: 1
Flags: W
LayerCount: 2
Fore
SplineSet
20 80 m 1,0,-1
 30 80 l 1,1,-1
 30 70 l 1,2,-1
 20 70 l 1,3,-1
 20 80 l 1,4,-1
 20 80 l 1,0,-1
40 80 m 1,5,-1
 50 80 l 1,6,-1
 50 70 l 1,7,-1
 40 70 l 1,8,-1
 40 80 l 1,5,-1
20 60 m 1,9,-1
 40 60 l 1,10,-1
 40 10 l 1,11,-1
 50 10 l 1,12,-1
 50 0 l 1,13,-1
 20 0 l 1,14,-1
 20 10 l 1,15,-1
 30 10 l 1,16,-1
 30 50 l 1,17,-1
 20 50 l 1,18,-1
 20 60 l 1,19,-1
 20 60 l 1,9,-1
EndSplineSet
EndChar

StartChar: eth
Encoding: 240 240 148
Width: 60
VWidth: 95
GlyphClass: 1
Flags: W
LayerCount: 2
Fore
SplineSet
20 90 m 1,0,-1
 40 90 l 1,1,-1
 40 80 l 1,2,-1
 20 80 l 1,3,-1
 20 90 l 1,0,-1
50 90 m 1,4,-1
 60 90 l 1,5,-1
 60 80 l 1,6,-1
 50 80 l 1,7,-1
 50 90 l 1,4,-1
40 80 m 1,8,-1
 50 80 l 1,9,-1
 50 70 l 1,10,-1
 40 70 l 1,11,-1
 40 80 l 1,8,-1
30 70 m 1,12,-1
 40 70 l 1,13,-1
 40 60 l 1,14,-1
 30 60 l 1,15,-1
 30 70 l 1,12,-1
50 70 m 1,16,-1
 60 70 l 1,17,-1
 60 10 l 1,18,-1
 50 10 l 1,19,-1
 50 40 l 1,20,-1
 20 40 l 1,21,-1
 20 50 l 1,22,-1
 50 50 l 1,23,-1
 50 70 l 1,16,-1
10 40 m 1,24,-1
 20 40 l 1,25,-1
 20 10 l 1,26,-1
 10 10 l 1,27,-1
 10 40 l 1,28,-1
 10 40 l 1,24,-1
20 10 m 1,29,-1
 50 10 l 1,30,-1
 50 0 l 1,31,-1
 20 0 l 1,32,-1
 20 10 l 1,33,-1
 20 10 l 1,29,-1
EndSplineSet
EndChar

StartChar: ntilde
Encoding: 241 241 149
Width: 60
VWidth: 95
GlyphClass: 1
Flags: W
LayerCount: 2
Fore
SplineSet
20 90 m 1,0,-1
 30 90 l 1,1,-1
 30 80 l 1,2,-1
 20 80 l 1,3,-1
 20 90 l 1,4,-1
 20 90 l 1,0,-1
50 90 m 1,5,-1
 60 90 l 1,6,-1
 60 80 l 1,7,-1
 50 80 l 1,8,-1
 50 90 l 1,5,-1
10 80 m 1,9,-1
 20 80 l 1,10,-1
 20 70 l 1,11,-1
 10 70 l 1,12,-1
 10 80 l 1,9,-1
30 80 m 1,13,-1
 50 80 l 1,14,-1
 50 70 l 1,15,-1
 30 70 l 1,16,-1
 30 80 l 1,17,-1
 30 80 l 1,13,-1
10 60 m 1,18,-1
 20 60 l 1,19,-1
 20 50 l 1,20,-1
 30 50 l 1,21,-1
 30 60 l 1,22,-1
 50 60 l 1,23,-1
 50 50 l 1,24,-1
 30 50 l 1,25,-1
 30 40 l 1,26,-1
 20 40 l 1,27,-1
 20 0 l 1,28,-1
 10 0 l 1,29,-1
 10 60 l 1,30,-1
 10 60 l 1,18,-1
50 50 m 1,31,-1
 60 50 l 1,32,-1
 60 0 l 1,33,-1
 50 0 l 1,34,-1
 50 50 l 1,31,-1
EndSplineSet
EndChar

StartChar: ograve
Encoding: 242 242 150
Width: 60
VWidth: 95
GlyphClass: 1
Flags: W
LayerCount: 2
Fore
SplineSet
20 90 m 1,0,-1
 30 90 l 1,1,-1
 30 80 l 1,2,-1
 20 80 l 1,3,-1
 20 90 l 1,4,-1
 20 90 l 1,0,-1
30 80 m 1,5,-1
 40 80 l 1,6,-1
 40 70 l 1,7,-1
 30 70 l 1,8,-1
 30 80 l 1,5,-1
20 60 m 1,9,-1
 50 60 l 1,10,-1
 50 50 l 1,11,-1
 20 50 l 1,12,-1
 20 60 l 1,13,-1
 20 60 l 1,9,-1
10 50 m 1,14,-1
 20 50 l 1,15,-1
 20 10 l 1,16,-1
 10 10 l 1,17,-1
 10 50 l 1,14,-1
50 50 m 1,18,-1
 60 50 l 1,19,-1
 60 10 l 1,20,-1
 50 10 l 1,21,-1
 50 50 l 1,18,-1
20 10 m 1,22,-1
 50 10 l 1,23,-1
 50 0 l 1,24,-1
 20 0 l 1,25,-1
 20 10 l 1,26,-1
 20 10 l 1,22,-1
EndSplineSet
EndChar

StartChar: oacute
Encoding: 243 243 151
Width: 60
VWidth: 95
GlyphClass: 1
Flags: W
LayerCount: 2
Fore
SplineSet
40 90 m 1,0,-1
 50 90 l 1,1,-1
 50 80 l 1,2,-1
 40 80 l 1,3,-1
 40 90 l 1,0,-1
30 80 m 1,4,-1
 40 80 l 1,5,-1
 40 70 l 1,6,-1
 30 70 l 1,7,-1
 30 80 l 1,4,-1
20 60 m 1,8,-1
 50 60 l 1,9,-1
 50 50 l 1,10,-1
 20 50 l 1,11,-1
 20 60 l 1,12,-1
 20 60 l 1,8,-1
10 50 m 1,13,-1
 20 50 l 1,14,-1
 20 10 l 1,15,-1
 10 10 l 1,16,-1
 10 50 l 1,13,-1
50 50 m 1,17,-1
 60 50 l 1,18,-1
 60 10 l 1,19,-1
 50 10 l 1,20,-1
 50 50 l 1,17,-1
20 10 m 1,21,-1
 50 10 l 1,22,-1
 50 0 l 1,23,-1
 20 0 l 1,24,-1
 20 10 l 1,25,-1
 20 10 l 1,21,-1
EndSplineSet
EndChar

StartChar: ocircumflex
Encoding: 244 244 152
Width: 60
VWidth: 95
GlyphClass: 1
Flags: W
LayerCount: 2
Fore
SplineSet
30 90 m 1,0,-1
 40 90 l 1,1,-1
 40 80 l 1,2,-1
 30 80 l 1,3,-1
 30 90 l 1,0,-1
20 80 m 1,4,-1
 30 80 l 1,5,-1
 30 70 l 1,6,-1
 20 70 l 1,7,-1
 20 80 l 1,8,-1
 20 80 l 1,4,-1
40 80 m 1,9,-1
 50 80 l 1,10,-1
 50 70 l 1,11,-1
 40 70 l 1,12,-1
 40 80 l 1,9,-1
20 60 m 1,13,-1
 50 60 l 1,14,-1
 50 50 l 1,15,-1
 20 50 l 1,16,-1
 20 60 l 1,17,-1
 20 60 l 1,13,-1
10 50 m 1,18,-1
 20 50 l 1,19,-1
 20 10 l 1,20,-1
 10 10 l 1,21,-1
 10 50 l 1,18,-1
50 50 m 1,22,-1
 60 50 l 1,23,-1
 60 10 l 1,24,-1
 50 10 l 1,25,-1
 50 50 l 1,22,-1
20 10 m 1,26,-1
 50 10 l 1,27,-1
 50 0 l 1,28,-1
 20 0 l 1,29,-1
 20 10 l 1,30,-1
 20 10 l 1,26,-1
EndSplineSet
EndChar

StartChar: otilde
Encoding: 245 245 153
Width: 60
VWidth: 95
GlyphClass: 1
Flags: W
LayerCount: 2
Fore
SplineSet
20 90 m 1,0,-1
 30 90 l 1,1,-1
 30 80 l 1,2,-1
 20 80 l 1,3,-1
 20 90 l 1,4,-1
 20 90 l 1,0,-1
50 90 m 1,5,-1
 60 90 l 1,6,-1
 60 80 l 1,7,-1
 50 80 l 1,8,-1
 50 90 l 1,5,-1
10 80 m 1,9,-1
 20 80 l 1,10,-1
 20 70 l 1,11,-1
 10 70 l 1,12,-1
 10 80 l 1,9,-1
30 80 m 1,13,-1
 50 80 l 1,14,-1
 50 70 l 1,15,-1
 30 70 l 1,16,-1
 30 80 l 1,17,-1
 30 80 l 1,13,-1
20 60 m 1,18,-1
 50 60 l 1,19,-1
 50 50 l 1,20,-1
 20 50 l 1,21,-1
 20 60 l 1,22,-1
 20 60 l 1,18,-1
10 50 m 1,23,-1
 20 50 l 1,24,-1
 20 10 l 1,25,-1
 10 10 l 1,26,-1
 10 50 l 1,23,-1
50 50 m 1,27,-1
 60 50 l 1,28,-1
 60 10 l 1,29,-1
 50 10 l 1,30,-1
 50 50 l 1,27,-1
20 10 m 1,31,-1
 50 10 l 1,32,-1
 50 0 l 1,33,-1
 20 0 l 1,34,-1
 20 10 l 1,35,-1
 20 10 l 1,31,-1
EndSplineSet
EndChar

StartChar: odieresis
Encoding: 246 246 154
Width: 60
VWidth: 95
GlyphClass: 1
Flags: W
LayerCount: 2
Fore
SplineSet
20 80 m 1,0,-1
 30 80 l 1,1,-1
 30 70 l 1,2,-1
 20 70 l 1,3,-1
 20 80 l 1,4,-1
 20 80 l 1,0,-1
40 80 m 1,5,-1
 50 80 l 1,6,-1
 50 70 l 1,7,-1
 40 70 l 1,8,-1
 40 80 l 1,5,-1
20 60 m 1,9,-1
 50 60 l 1,10,-1
 50 50 l 1,11,-1
 20 50 l 1,12,-1
 20 60 l 1,13,-1
 20 60 l 1,9,-1
10 50 m 1,14,-1
 20 50 l 1,15,-1
 20 10 l 1,16,-1
 10 10 l 1,17,-1
 10 50 l 1,14,-1
50 50 m 1,18,-1
 60 50 l 1,19,-1
 60 10 l 1,20,-1
 50 10 l 1,21,-1
 50 50 l 1,18,-1
20 10 m 1,22,-1
 50 10 l 1,23,-1
 50 0 l 1,24,-1
 20 0 l 1,25,-1
 20 10 l 1,26,-1
 20 10 l 1,22,-1
EndSplineSet
EndChar

StartChar: divide
Encoding: 247 247 155
Width: 60
VWidth: 95
GlyphClass: 1
Flags: W
LayerCount: 2
Fore
SplineSet
30 80 m 1,0,-1
 40 80 l 1,1,-1
 40 60 l 1,2,-1
 30 60 l 1,3,-1
 30 80 l 1,0,-1
10 50 m 1,4,-1
 60 50 l 1,5,-1
 60 40 l 1,6,-1
 10 40 l 1,7,-1
 10 50 l 1,8,-1
 10 50 l 1,4,-1
30 30 m 1,9,-1
 40 30 l 1,10,-1
 40 10 l 1,11,-1
 30 10 l 1,12,-1
 30 30 l 1,9,-1
EndSplineSet
EndChar

StartChar: oslash
Encoding: 248 248 156
Width: 60
VWidth: 95
GlyphClass: 1
Flags: W
LayerCount: 2
Fore
SplineSet
20 70 m 1,0,-1
 40 70 l 1,1,-1
 40 60 l 1,2,-1
 20 60 l 1,3,-1
 20 70 l 1,0,-1
50 70 m 1,4,-1
 60 70 l 1,5,-1
 60 60 l 1,6,-1
 50 60 l 1,7,-1
 50 70 l 1,4,-1
10 60 m 1,8,-1
 20 60 l 1,9,-1
 20 20 l 1,10,-1
 10 20 l 1,11,-1
 10 60 l 1,12,-1
 10 60 l 1,8,-1
40 60 m 1,13,-1
 50 60 l 1,14,-1
 50 50 l 1,15,-1
 40 50 l 1,16,-1
 40 60 l 1,13,-1
30 50 m 1,17,-1
 40 50 l 1,18,-1
 40 20 l 1,19,-1
 30 20 l 1,20,-1
 30 50 l 1,21,-1
 30 50 l 1,17,-1
50 50 m 1,22,-1
 60 50 l 1,23,-1
 60 10 l 1,24,-1
 50 10 l 1,25,-1
 50 50 l 1,22,-1
20 20 m 1,26,-1
 30 20 l 1,27,-1
 30 10 l 1,28,-1
 20 10 l 1,29,-1
 20 20 l 1,30,-1
 20 20 l 1,26,-1
10 10 m 1,31,-1
 20 10 l 1,32,-1
 20 0 l 1,33,-1
 10 0 l 1,34,-1
 10 10 l 1,31,-1
30 10 m 1,35,-1
 50 10 l 1,36,-1
 50 0 l 1,37,-1
 30 0 l 1,38,-1
 30 10 l 1,39,-1
 30 10 l 1,35,-1
EndSplineSet
EndChar

StartChar: ugrave
Encoding: 249 249 157
Width: 60
VWidth: 95
GlyphClass: 1
Flags: W
LayerCount: 2
Fore
SplineSet
20 90 m 1,0,-1
 30 90 l 1,1,-1
 30 80 l 1,2,-1
 20 80 l 1,3,-1
 20 90 l 1,4,-1
 20 90 l 1,0,-1
30 80 m 1,5,-1
 40 80 l 1,6,-1
 40 70 l 1,7,-1
 30 70 l 1,8,-1
 30 80 l 1,5,-1
10 70 m 1,9,-1
 20 70 l 1,10,-1
 20 10 l 1,11,-1
 10 10 l 1,12,-1
 10 70 l 1,9,-1
50 70 m 1,13,-1
 60 70 l 1,14,-1
 60 0 l 1,15,-1
 50 0 l 1,16,-1
 50 10 l 1,17,-1
 40 10 l 1,18,-1
 40 20 l 1,19,-1
 50 20 l 1,20,-1
 50 70 l 1,21,-1
 50 70 l 1,13,-1
20 10 m 1,22,-1
 40 10 l 1,23,-1
 40 0 l 1,24,-1
 20 0 l 1,25,-1
 20 10 l 1,22,-1
EndSplineSet
EndChar

StartChar: uacute
Encoding: 250 250 158
Width: 60
VWidth: 95
GlyphClass: 1
Flags: W
LayerCount: 2
Fore
SplineSet
40 90 m 1,0,-1
 50 90 l 1,1,-1
 50 80 l 1,2,-1
 40 80 l 1,3,-1
 40 90 l 1,0,-1
30 80 m 1,4,-1
 40 80 l 1,5,-1
 40 70 l 1,6,-1
 30 70 l 1,7,-1
 30 80 l 1,4,-1
10 70 m 1,8,-1
 20 70 l 1,9,-1
 20 10 l 1,10,-1
 10 10 l 1,11,-1
 10 70 l 1,8,-1
50 70 m 1,12,-1
 60 70 l 1,13,-1
 60 0 l 1,14,-1
 50 0 l 1,15,-1
 50 10 l 1,16,-1
 40 10 l 1,17,-1
 40 20 l 1,18,-1
 50 20 l 1,19,-1
 50 70 l 1,20,-1
 50 70 l 1,12,-1
20 10 m 1,21,-1
 40 10 l 1,22,-1
 40 0 l 1,23,-1
 20 0 l 1,24,-1
 20 10 l 1,21,-1
EndSplineSet
EndChar

StartChar: ucircumflex
Encoding: 251 251 159
Width: 60
VWidth: 95
GlyphClass: 1
Flags: W
LayerCount: 2
Fore
SplineSet
30 90 m 1,0,-1
 40 90 l 1,1,-1
 40 80 l 1,2,-1
 30 80 l 1,3,-1
 30 90 l 1,0,-1
20 80 m 1,4,-1
 30 80 l 1,5,-1
 30 70 l 1,6,-1
 20 70 l 1,7,-1
 20 80 l 1,8,-1
 20 80 l 1,4,-1
40 80 m 1,9,-1
 50 80 l 1,10,-1
 50 70 l 1,11,-1
 40 70 l 1,12,-1
 40 80 l 1,9,-1
10 60 m 1,13,-1
 20 60 l 1,14,-1
 20 10 l 1,15,-1
 10 10 l 1,16,-1
 10 60 l 1,17,-1
 10 60 l 1,13,-1
50 60 m 1,18,-1
 60 60 l 1,19,-1
 60 0 l 1,20,-1
 50 0 l 1,21,-1
 50 10 l 1,22,-1
 40 10 l 1,23,-1
 40 20 l 1,24,-1
 50 20 l 1,25,-1
 50 60 l 1,26,-1
 50 60 l 1,18,-1
20 10 m 1,27,-1
 40 10 l 1,28,-1
 40 0 l 1,29,-1
 20 0 l 1,30,-1
 20 10 l 1,27,-1
EndSplineSet
EndChar

StartChar: udieresis
Encoding: 252 252 160
Width: 60
VWidth: 95
GlyphClass: 1
Flags: W
LayerCount: 2
Fore
SplineSet
20 90 m 1,0,-1
 30 90 l 1,1,-1
 30 80 l 1,2,-1
 20 80 l 1,3,-1
 20 90 l 1,4,-1
 20 90 l 1,0,-1
40 90 m 1,5,-1
 50 90 l 1,6,-1
 50 80 l 1,7,-1
 40 80 l 1,8,-1
 40 90 l 1,5,-1
10 70 m 1,9,-1
 20 70 l 1,10,-1
 20 10 l 1,11,-1
 10 10 l 1,12,-1
 10 70 l 1,9,-1
50 70 m 1,13,-1
 60 70 l 1,14,-1
 60 0 l 1,15,-1
 50 0 l 1,16,-1
 50 10 l 1,17,-1
 40 10 l 1,18,-1
 40 20 l 1,19,-1
 50 20 l 1,20,-1
 50 70 l 1,21,-1
 50 70 l 1,13,-1
20 10 m 1,22,-1
 40 10 l 1,23,-1
 40 0 l 1,24,-1
 20 0 l 1,25,-1
 20 10 l 1,22,-1
EndSplineSet
EndChar

StartChar: yacute
Encoding: 253 253 161
Width: 60
VWidth: 95
GlyphClass: 1
Flags: W
LayerCount: 2
Fore
SplineSet
40 90 m 1,0,-1
 50 90 l 1,1,-1
 50 80 l 1,2,-1
 40 80 l 1,3,-1
 40 90 l 1,0,-1
30 80 m 1,4,-1
 40 80 l 1,5,-1
 40 70 l 1,6,-1
 30 70 l 1,7,-1
 30 80 l 1,4,-1
10 70 m 1,8,-1
 20 70 l 1,9,-1
 20 50 l 1,10,-1
 10 50 l 1,11,-1
 10 70 l 1,8,-1
50 70 m 1,12,-1
 60 70 l 1,13,-1
 60 50 l 1,14,-1
 50 50 l 1,15,-1
 50 70 l 1,12,-1
20 50 m 1,16,-1
 30 50 l 1,17,-1
 30 30 l 1,18,-1
 20 30 l 1,19,-1
 20 50 l 1,20,-1
 20 50 l 1,16,-1
40 50 m 1,21,-1
 50 50 l 1,22,-1
 50 30 l 1,23,-1
 40 30 l 1,24,-1
 40 50 l 1,21,-1
30 30 m 1,25,-1
 40 30 l 1,26,-1
 40 10 l 1,27,-1
 30 10 l 1,28,-1
 30 30 l 1,25,-1
10 10 m 1,29,-1
 30 10 l 1,30,-1
 30 0 l 1,31,-1
 10 0 l 1,32,-1
 10 10 l 1,33,-1
 10 10 l 1,29,-1
EndSplineSet
EndChar

StartChar: thorn
Encoding: 254 254 162
Width: 60
VWidth: 95
GlyphClass: 1
Flags: W
LayerCount: 2
Fore
SplineSet
10 90 m 1,0,-1
 20 90 l 1,1,-1
 20 60 l 1,2,-1
 30 60 l 1,3,-1
 30 70 l 1,4,-1
 50 70 l 1,5,-1
 50 60 l 1,6,-1
 30 60 l 1,7,-1
 30 50 l 1,8,-1
 20 50 l 1,9,-1
 20 30 l 1,10,-1
 30 30 l 1,11,-1
 30 20 l 1,12,-1
 20 20 l 1,13,-1
 20 0 l 1,14,-1
 10 0 l 1,15,-1
 10 90 l 1,16,-1
 10 90 l 1,0,-1
50 60 m 1,17,-1
 60 60 l 1,18,-1
 60 20 l 1,19,-1
 50 20 l 1,20,-1
 50 60 l 1,21,-1
 50 60 l 1,17,-1
30 20 m 1,22,-1
 50 20 l 1,23,-1
 50 10 l 1,24,-1
 30 10 l 1,25,-1
 30 20 l 1,26,-1
 30 20 l 1,22,-1
EndSplineSet
EndChar

StartChar: ydieresis
Encoding: 255 255 163
Width: 60
VWidth: 95
GlyphClass: 1
Flags: W
LayerCount: 2
Fore
SplineSet
20 90 m 1,0,-1
 30 90 l 1,1,-1
 30 80 l 1,2,-1
 20 80 l 1,3,-1
 20 90 l 1,4,-1
 20 90 l 1,0,-1
40 90 m 1,5,-1
 50 90 l 1,6,-1
 50 80 l 1,7,-1
 40 80 l 1,8,-1
 40 90 l 1,5,-1
10 70 m 1,9,-1
 20 70 l 1,10,-1
 20 50 l 1,11,-1
 10 50 l 1,12,-1
 10 70 l 1,9,-1
50 70 m 1,13,-1
 60 70 l 1,14,-1
 60 50 l 1,15,-1
 50 50 l 1,16,-1
 50 70 l 1,13,-1
20 50 m 1,17,-1
 30 50 l 1,18,-1
 30 30 l 1,19,-1
 20 30 l 1,20,-1
 20 50 l 1,21,-1
 20 50 l 1,17,-1
40 50 m 1,22,-1
 50 50 l 1,23,-1
 50 30 l 1,24,-1
 40 30 l 1,25,-1
 40 50 l 1,22,-1
30 30 m 1,26,-1
 40 30 l 1,27,-1
 40 10 l 1,28,-1
 30 10 l 1,29,-1
 30 30 l 1,26,-1
10 10 m 1,30,-1
 30 10 l 1,31,-1
 30 0 l 1,32,-1
 10 0 l 1,33,-1
 10 10 l 1,34,-1
 10 10 l 1,30,-1
EndSplineSet
EndChar

StartChar: Abreve
Encoding: 258 258 164
Width: 60
VWidth: 95
GlyphClass: 1
Flags: W
LayerCount: 2
Fore
SplineSet
10 90 m 1,0,-1
 20 90 l 1,1,-1
 20 80 l 1,2,-1
 10 80 l 1,3,-1
 10 90 l 1,0,-1
50 90 m 1,4,-1
 60 90 l 1,5,-1
 60 80 l 1,6,-1
 50 80 l 1,7,-1
 50 90 l 1,4,-1
20 80 m 1,8,-1
 50 80 l 1,9,-1
 50 70 l 1,10,-1
 40 70 l 1,11,-1
 40 60 l 1,12,-1
 30 60 l 1,13,-1
 30 70 l 1,14,-1
 20 70 l 1,15,-1
 20 80 l 1,16,-1
 20 80 l 1,8,-1
20 60 m 1,17,-1
 30 60 l 1,18,-1
 30 40 l 1,19,-1
 20 40 l 1,20,-1
 20 60 l 1,21,-1
 20 60 l 1,17,-1
40 60 m 1,22,-1
 50 60 l 1,23,-1
 50 40 l 1,24,-1
 40 40 l 1,25,-1
 40 60 l 1,26,-1
 40 60 l 1,22,-1
10 40 m 1,27,-1
 20 40 l 1,28,-1
 20 30 l 1,29,-1
 50 30 l 1,30,-1
 50 40 l 1,31,-1
 60 40 l 1,32,-1
 60 0 l 1,33,-1
 50 0 l 1,34,-1
 50 20 l 1,35,-1
 20 20 l 1,36,-1
 20 0 l 1,37,-1
 10 0 l 1,38,-1
 10 40 l 1,39,-1
 10 40 l 1,27,-1
EndSplineSet
EndChar

StartChar: abreve
Encoding: 259 259 165
Width: 60
VWidth: 95
GlyphClass: 1
Flags: W
LayerCount: 2
Fore
SplineSet
10 90 m 1,0,-1
 20 90 l 1,1,-1
 20 80 l 1,2,-1
 10 80 l 1,3,-1
 10 90 l 1,0,-1
50 90 m 1,4,-1
 60 90 l 1,5,-1
 60 80 l 1,6,-1
 50 80 l 1,7,-1
 50 90 l 1,4,-1
20 80 m 1,8,-1
 50 80 l 1,9,-1
 50 70 l 1,10,-1
 20 70 l 1,11,-1
 20 80 l 1,12,-1
 20 80 l 1,8,-1
20 60 m 1,13,-1
 50 60 l 1,14,-1
 50 50 l 1,15,-1
 20 50 l 1,16,-1
 20 60 l 1,17,-1
 20 60 l 1,13,-1
50 50 m 1,18,-1
 60 50 l 1,19,-1
 60 0 l 1,20,-1
 20 0 l 1,21,-1
 20 10 l 1,22,-1
 10 10 l 1,23,-1
 10 30 l 1,24,-1
 20 30 l 1,25,-1
 20 40 l 1,26,-1
 50 40 l 1,27,-1
 50 50 l 1,28,-1
 50 50 l 1,18,-1
30 30 m 1,29,-1
 20 30 l 1,30,-1
 20 10 l 1,31,-1
 50 10 l 1,32,-1
 50 30 l 1,33,-1
 30 30 l 1,34,-1
 30 30 l 1,29,-1
EndSplineSet
EndChar

StartChar: Aogonek
Encoding: 260 260 166
Width: 60
VWidth: 95
GlyphClass: 1
Flags: W
LayerCount: 2
Fore
SplineSet
30 90 m 1,0,-1
 40 90 l 1,1,-1
 40 80 l 1,2,-1
 30 80 l 1,3,-1
 30 90 l 1,0,-1
20 80 m 1,4,-1
 30 80 l 1,5,-1
 30 60 l 1,6,-1
 20 60 l 1,7,-1
 20 80 l 1,8,-1
 20 80 l 1,4,-1
40 80 m 1,9,-1
 50 80 l 1,10,-1
 50 60 l 1,11,-1
 40 60 l 1,12,-1
 40 80 l 1,9,-1
10 60 m 1,13,-1
 20 60 l 1,14,-1
 20 50 l 1,15,-1
 50 50 l 1,16,-1
 50 60 l 1,17,-1
 60 60 l 1,18,-1
 60 20 l 1,19,-1
 50 20 l 1,20,-1
 50 40 l 1,21,-1
 20 40 l 1,22,-1
 20 20 l 1,23,-1
 10 20 l 1,24,-1
 10 60 l 1,25,-1
 10 60 l 1,13,-1
40 20 m 1,26,-1
 50 20 l 1,27,-1
 50 10 l 1,28,-1
 60 10 l 1,29,-1
 60 0 l 1,30,-1
 40 0 l 1,31,-1
 40 20 l 1,26,-1
EndSplineSet
EndChar

StartChar: aogonek
Encoding: 261 261 167
Width: 60
VWidth: 95
GlyphClass: 1
Flags: W
LayerCount: 2
Fore
SplineSet
20 80 m 1,0,-1
 50 80 l 1,1,-1
 50 70 l 1,2,-1
 20 70 l 1,3,-1
 20 80 l 1,4,-1
 20 80 l 1,0,-1
50 70 m 1,5,-1
 60 70 l 1,6,-1
 60 20 l 1,7,-1
 50 20 l 1,8,-1
 50 10 l 1,9,-1
 60 10 l 1,10,-1
 60 0 l 1,11,-1
 40 0 l 1,12,-1
 40 20 l 1,13,-1
 20 20 l 1,14,-1
 20 30 l 1,15,-1
 10 30 l 1,16,-1
 10 50 l 1,17,-1
 20 50 l 1,18,-1
 20 60 l 1,19,-1
 50 60 l 1,20,-1
 50 70 l 1,21,-1
 50 70 l 1,5,-1
30 50 m 1,22,-1
 20 50 l 1,23,-1
 20 30 l 1,24,-1
 50 30 l 1,25,-1
 50 50 l 1,26,-1
 30 50 l 1,27,-1
 30 50 l 1,22,-1
EndSplineSet
EndChar

StartChar: Cacute
Encoding: 262 262 168
Width: 60
VWidth: 95
GlyphClass: 1
Flags: W
LayerCount: 2
Fore
SplineSet
40 90 m 1,0,-1
 50 90 l 1,1,-1
 50 80 l 1,2,-1
 40 80 l 1,3,-1
 40 90 l 1,0,-1
30 80 m 1,4,-1
 40 80 l 1,5,-1
 40 70 l 1,6,-1
 50 70 l 1,7,-1
 50 60 l 1,8,-1
 20 60 l 1,9,-1
 20 70 l 1,10,-1
 30 70 l 1,11,-1
 30 80 l 1,12,-1
 30 80 l 1,4,-1
10 60 m 1,13,-1
 20 60 l 1,14,-1
 20 10 l 1,15,-1
 10 10 l 1,16,-1
 10 60 l 1,17,-1
 10 60 l 1,13,-1
50 60 m 1,18,-1
 60 60 l 1,19,-1
 60 50 l 1,20,-1
 50 50 l 1,21,-1
 50 60 l 1,18,-1
50 20 m 1,22,-1
 60 20 l 1,23,-1
 60 10 l 1,24,-1
 50 10 l 1,25,-1
 50 20 l 1,22,-1
20 10 m 1,26,-1
 50 10 l 1,27,-1
 50 0 l 1,28,-1
 20 0 l 1,29,-1
 20 10 l 1,30,-1
 20 10 l 1,26,-1
EndSplineSet
EndChar

StartChar: cacute
Encoding: 263 263 169
Width: 60
VWidth: 95
GlyphClass: 1
Flags: W
LayerCount: 2
Fore
SplineSet
40 90 m 1,0,-1
 50 90 l 1,1,-1
 50 80 l 1,2,-1
 40 80 l 1,3,-1
 40 90 l 1,0,-1
30 80 m 1,4,-1
 40 80 l 1,5,-1
 40 70 l 1,6,-1
 30 70 l 1,7,-1
 30 80 l 1,4,-1
20 60 m 1,8,-1
 50 60 l 1,9,-1
 50 50 l 1,10,-1
 20 50 l 1,11,-1
 20 60 l 1,12,-1
 20 60 l 1,8,-1
10 50 m 1,13,-1
 20 50 l 1,14,-1
 20 10 l 1,15,-1
 10 10 l 1,16,-1
 10 50 l 1,13,-1
50 50 m 1,17,-1
 60 50 l 1,18,-1
 60 40 l 1,19,-1
 50 40 l 1,20,-1
 50 50 l 1,17,-1
50 20 m 1,21,-1
 60 20 l 1,22,-1
 60 10 l 1,23,-1
 50 10 l 1,24,-1
 50 20 l 1,21,-1
20 10 m 1,25,-1
 50 10 l 1,26,-1
 50 0 l 1,27,-1
 20 0 l 1,28,-1
 20 10 l 1,29,-1
 20 10 l 1,25,-1
EndSplineSet
EndChar

StartChar: Ccaron
Encoding: 268 268 170
Width: 60
VWidth: 95
GlyphClass: 1
Flags: W
LayerCount: 2
Fore
SplineSet
20 90 m 1,0,-1
 30 90 l 1,1,-1
 30 80 l 1,2,-1
 20 80 l 1,3,-1
 20 90 l 1,4,-1
 20 90 l 1,0,-1
40 90 m 1,5,-1
 50 90 l 1,6,-1
 50 80 l 1,7,-1
 40 80 l 1,8,-1
 40 90 l 1,5,-1
30 80 m 1,9,-1
 40 80 l 1,10,-1
 40 70 l 1,11,-1
 50 70 l 1,12,-1
 50 60 l 1,13,-1
 20 60 l 1,14,-1
 20 70 l 1,15,-1
 30 70 l 1,16,-1
 30 80 l 1,17,-1
 30 80 l 1,9,-1
10 60 m 1,18,-1
 20 60 l 1,19,-1
 20 10 l 1,20,-1
 10 10 l 1,21,-1
 10 60 l 1,22,-1
 10 60 l 1,18,-1
50 60 m 1,23,-1
 60 60 l 1,24,-1
 60 50 l 1,25,-1
 50 50 l 1,26,-1
 50 60 l 1,23,-1
50 20 m 1,27,-1
 60 20 l 1,28,-1
 60 10 l 1,29,-1
 50 10 l 1,30,-1
 50 20 l 1,27,-1
20 10 m 1,31,-1
 50 10 l 1,32,-1
 50 0 l 1,33,-1
 20 0 l 1,34,-1
 20 10 l 1,35,-1
 20 10 l 1,31,-1
EndSplineSet
EndChar

StartChar: ccaron
Encoding: 269 269 171
Width: 60
VWidth: 95
GlyphClass: 1
Flags: W
LayerCount: 2
Fore
SplineSet
20 90 m 1,0,-1
 30 90 l 1,1,-1
 30 80 l 1,2,-1
 20 80 l 1,3,-1
 20 90 l 1,4,-1
 20 90 l 1,0,-1
40 90 m 1,5,-1
 50 90 l 1,6,-1
 50 80 l 1,7,-1
 40 80 l 1,8,-1
 40 90 l 1,5,-1
30 80 m 1,9,-1
 40 80 l 1,10,-1
 40 70 l 1,11,-1
 30 70 l 1,12,-1
 30 80 l 1,9,-1
20 60 m 1,13,-1
 50 60 l 1,14,-1
 50 50 l 1,15,-1
 20 50 l 1,16,-1
 20 60 l 1,17,-1
 20 60 l 1,13,-1
10 50 m 1,18,-1
 20 50 l 1,19,-1
 20 10 l 1,20,-1
 10 10 l 1,21,-1
 10 50 l 1,18,-1
50 50 m 1,22,-1
 60 50 l 1,23,-1
 60 40 l 1,24,-1
 50 40 l 1,25,-1
 50 50 l 1,22,-1
50 20 m 1,26,-1
 60 20 l 1,27,-1
 60 10 l 1,28,-1
 50 10 l 1,29,-1
 50 20 l 1,26,-1
20 10 m 1,30,-1
 50 10 l 1,31,-1
 50 0 l 1,32,-1
 20 0 l 1,33,-1
 20 10 l 1,34,-1
 20 10 l 1,30,-1
EndSplineSet
EndChar

StartChar: Dcaron
Encoding: 270 270 172
Width: 60
VWidth: 95
GlyphClass: 1
Flags: W
LayerCount: 2
Fore
SplineSet
20 90 m 1,0,-1
 30 90 l 1,1,-1
 30 80 l 1,2,-1
 20 80 l 1,3,-1
 20 90 l 1,4,-1
 20 90 l 1,0,-1
40 90 m 1,5,-1
 50 90 l 1,6,-1
 50 80 l 1,7,-1
 40 80 l 1,8,-1
 40 90 l 1,5,-1
30 80 m 1,9,-1
 40 80 l 1,10,-1
 40 60 l 1,11,-1
 20 60 l 1,12,-1
 20 10 l 1,13,-1
 40 10 l 1,14,-1
 40 20 l 1,15,-1
 50 20 l 1,16,-1
 50 50 l 1,17,-1
 40 50 l 1,18,-1
 40 60 l 1,19,-1
 50 60 l 1,20,-1
 50 50 l 1,21,-1
 60 50 l 1,22,-1
 60 20 l 1,23,-1
 50 20 l 1,24,-1
 50 10 l 1,25,-1
 40 10 l 1,26,-1
 40 0 l 1,27,-1
 10 0 l 1,28,-1
 10 70 l 1,29,-1
 30 70 l 1,30,-1
 30 80 l 1,31,-1
 30 80 l 1,9,-1
EndSplineSet
EndChar

StartChar: dcaron
Encoding: 271 271 173
Width: 60
VWidth: 95
GlyphClass: 1
Flags: W
LayerCount: 2
Fore
SplineSet
30 90 m 1,0,-1
 40 90 l 1,1,-1
 40 0 l 1,2,-1
 20 0 l 1,3,-1
 20 10 l 1,4,-1
 10 10 l 1,5,-1
 10 50 l 1,6,-1
 20 50 l 1,7,-1
 20 60 l 1,8,-1
 30 60 l 1,9,-1
 30 90 l 1,0,-1
50 90 m 1,10,-1
 60 90 l 1,11,-1
 60 70 l 1,12,-1
 50 70 l 1,13,-1
 50 90 l 1,10,-1
30 50 m 1,14,-1
 20 50 l 1,15,-1
 20 10 l 1,16,-1
 30 10 l 1,17,-1
 30 50 l 1,14,-1
EndSplineSet
EndChar

StartChar: Dcroat
Encoding: 272 272 174
Width: 60
VWidth: 95
GlyphClass: 1
Flags: W
LayerCount: 2
Fore
SplineSet
20 90 m 1,0,-1
 50 90 l 1,1,-1
 50 80 l 1,2,-1
 30 80 l 1,3,-1
 30 50 l 1,4,-1
 40 50 l 1,5,-1
 40 40 l 1,6,-1
 30 40 l 1,7,-1
 30 10 l 1,8,-1
 50 10 l 1,9,-1
 50 80 l 1,10,-1
 60 80 l 1,11,-1
 60 10 l 1,12,-1
 50 10 l 1,13,-1
 50 0 l 1,14,-1
 20 0 l 1,15,-1
 20 40 l 1,16,-1
 10 40 l 1,17,-1
 10 50 l 1,18,-1
 20 50 l 1,19,-1
 20 90 l 1,20,-1
 20 90 l 1,0,-1
EndSplineSet
EndChar

StartChar: dcroat
Encoding: 273 273 175
Width: 60
VWidth: 95
GlyphClass: 1
Flags: W
LayerCount: 2
Fore
SplineSet
40 90 m 1,0,-1
 50 90 l 1,1,-1
 50 80 l 1,2,-1
 60 80 l 1,3,-1
 60 70 l 1,4,-1
 50 70 l 1,5,-1
 50 0 l 1,6,-1
 20 0 l 1,7,-1
 20 10 l 1,8,-1
 10 10 l 1,9,-1
 10 50 l 1,10,-1
 20 50 l 1,11,-1
 20 60 l 1,12,-1
 40 60 l 1,13,-1
 40 70 l 1,14,-1
 20 70 l 1,15,-1
 20 80 l 1,16,-1
 40 80 l 1,17,-1
 40 90 l 1,18,-1
 40 90 l 1,0,-1
30 50 m 1,19,-1
 20 50 l 1,20,-1
 20 10 l 1,21,-1
 40 10 l 1,22,-1
 40 50 l 1,23,-1
 30 50 l 1,24,-1
 30 50 l 1,19,-1
EndSplineSet
EndChar

StartChar: Ebreve
Encoding: 276 276 176
Width: 60
VWidth: 95
GlyphClass: 1
Flags: W
LayerCount: 2
Fore
SplineSet
20 90 m 1,0,-1
 30 90 l 1,1,-1
 30 80 l 1,2,-1
 20 80 l 1,3,-1
 20 90 l 1,4,-1
 20 90 l 1,0,-1
40 90 m 1,5,-1
 50 90 l 1,6,-1
 50 80 l 1,7,-1
 40 80 l 1,8,-1
 40 90 l 1,5,-1
30 80 m 1,9,-1
 40 80 l 1,10,-1
 40 70 l 1,11,-1
 60 70 l 1,12,-1
 60 60 l 1,13,-1
 20 60 l 1,14,-1
 20 40 l 1,15,-1
 50 40 l 1,16,-1
 50 30 l 1,17,-1
 20 30 l 1,18,-1
 20 10 l 1,19,-1
 60 10 l 1,20,-1
 60 0 l 1,21,-1
 10 0 l 1,22,-1
 10 70 l 1,23,-1
 30 70 l 1,24,-1
 30 80 l 1,25,-1
 30 80 l 1,9,-1
EndSplineSet
EndChar

StartChar: Eogonek
Encoding: 280 280 177
Width: 60
VWidth: 95
GlyphClass: 1
Flags: W
LayerCount: 2
Fore
SplineSet
10 90 m 1,0,-1
 60 90 l 1,1,-1
 60 80 l 1,2,-1
 20 80 l 1,3,-1
 20 60 l 1,4,-1
 50 60 l 1,5,-1
 50 50 l 1,6,-1
 20 50 l 1,7,-1
 20 30 l 1,8,-1
 60 30 l 1,9,-1
 60 20 l 1,10,-1
 40 20 l 1,11,-1
 40 10 l 1,12,-1
 50 10 l 1,13,-1
 50 0 l 1,14,-1
 30 0 l 1,15,-1
 30 20 l 1,16,-1
 10 20 l 1,17,-1
 10 90 l 1,18,-1
 10 90 l 1,0,-1
EndSplineSet
EndChar

StartChar: eogonek
Encoding: 281 281 178
Width: 60
VWidth: 95
GlyphClass: 1
Flags: W
LayerCount: 2
Fore
SplineSet
20 80 m 1,0,-1
 50 80 l 1,1,-1
 50 70 l 1,2,-1
 20 70 l 1,3,-1
 20 80 l 1,4,-1
 20 80 l 1,0,-1
10 70 m 1,5,-1
 20 70 l 1,6,-1
 20 60 l 1,7,-1
 50 60 l 1,8,-1
 50 70 l 1,9,-1
 60 70 l 1,10,-1
 60 50 l 1,11,-1
 20 50 l 1,12,-1
 20 30 l 1,13,-1
 10 30 l 1,14,-1
 10 70 l 1,15,-1
 10 70 l 1,5,-1
50 40 m 1,16,-1
 60 40 l 1,17,-1
 60 30 l 1,18,-1
 50 30 l 1,19,-1
 50 40 l 1,16,-1
20 30 m 1,20,-1
 50 30 l 1,21,-1
 50 20 l 1,22,-1
 40 20 l 1,23,-1
 40 10 l 1,24,-1
 50 10 l 1,25,-1
 50 0 l 1,26,-1
 30 0 l 1,27,-1
 30 20 l 1,28,-1
 20 20 l 1,29,-1
 20 30 l 1,30,-1
 20 30 l 1,20,-1
EndSplineSet
EndChar

StartChar: ecaron
Encoding: 283 283 179
Width: 60
VWidth: 95
GlyphClass: 1
Flags: W
LayerCount: 2
Fore
SplineSet
20 90 m 1,0,-1
 30 90 l 1,1,-1
 30 80 l 1,2,-1
 20 80 l 1,3,-1
 20 90 l 1,4,-1
 20 90 l 1,0,-1
40 90 m 1,5,-1
 50 90 l 1,6,-1
 50 80 l 1,7,-1
 40 80 l 1,8,-1
 40 90 l 1,5,-1
30 80 m 1,9,-1
 40 80 l 1,10,-1
 40 70 l 1,11,-1
 30 70 l 1,12,-1
 30 80 l 1,9,-1
20 60 m 1,13,-1
 50 60 l 1,14,-1
 50 50 l 1,15,-1
 20 50 l 1,16,-1
 20 60 l 1,17,-1
 20 60 l 1,13,-1
10 50 m 1,18,-1
 20 50 l 1,19,-1
 20 40 l 1,20,-1
 50 40 l 1,21,-1
 50 50 l 1,22,-1
 60 50 l 1,23,-1
 60 30 l 1,24,-1
 20 30 l 1,25,-1
 20 10 l 1,26,-1
 10 10 l 1,27,-1
 10 50 l 1,28,-1
 10 50 l 1,18,-1
50 20 m 1,29,-1
 60 20 l 1,30,-1
 60 10 l 1,31,-1
 50 10 l 1,32,-1
 50 20 l 1,29,-1
20 10 m 1,33,-1
 50 10 l 1,34,-1
 50 0 l 1,35,-1
 20 0 l 1,36,-1
 20 10 l 1,37,-1
 20 10 l 1,33,-1
EndSplineSet
EndChar

StartChar: Lacute
Encoding: 313 313 180
Width: 60
VWidth: 95
GlyphClass: 1
Flags: W
LayerCount: 2
Fore
SplineSet
20 90 m 1,0,-1
 30 90 l 1,1,-1
 30 80 l 1,2,-1
 20 80 l 1,3,-1
 20 90 l 1,4,-1
 20 90 l 1,0,-1
10 80 m 1,5,-1
 20 80 l 1,6,-1
 20 70 l 1,7,-1
 10 70 l 1,8,-1
 10 80 l 1,5,-1
10 60 m 1,9,-1
 20 60 l 1,10,-1
 20 10 l 1,11,-1
 60 10 l 1,12,-1
 60 0 l 1,13,-1
 10 0 l 1,14,-1
 10 60 l 1,15,-1
 10 60 l 1,9,-1
EndSplineSet
EndChar

StartChar: lacute
Encoding: 314 314 181
Width: 60
VWidth: 95
GlyphClass: 1
Flags: W
LayerCount: 2
Fore
SplineSet
40 90 m 1,0,-1
 50 90 l 1,1,-1
 50 80 l 1,2,-1
 40 80 l 1,3,-1
 40 90 l 1,0,-1
20 80 m 1,4,-1
 40 80 l 1,5,-1
 40 10 l 1,6,-1
 50 10 l 1,7,-1
 50 0 l 1,8,-1
 20 0 l 1,9,-1
 20 10 l 1,10,-1
 30 10 l 1,11,-1
 30 70 l 1,12,-1
 20 70 l 1,13,-1
 20 80 l 1,14,-1
 20 80 l 1,4,-1
EndSplineSet
EndChar

StartChar: Lcaron
Encoding: 317 317 182
Width: 60
VWidth: 95
GlyphClass: 1
Flags: W
LayerCount: 2
Fore
SplineSet
10 90 m 1,0,-1
 20 90 l 1,1,-1
 20 10 l 1,2,-1
 60 10 l 1,3,-1
 60 0 l 1,4,-1
 10 0 l 1,5,-1
 10 90 l 1,6,-1
 10 90 l 1,0,-1
30 90 m 1,7,-1
 40 90 l 1,8,-1
 40 70 l 1,9,-1
 30 70 l 1,10,-1
 30 90 l 1,7,-1
EndSplineSet
EndChar

StartChar: lcaron
Encoding: 318 318 183
Width: 60
VWidth: 95
GlyphClass: 1
Flags: W
LayerCount: 2
Fore
SplineSet
20 90 m 1,0,-1
 40 90 l 1,1,-1
 40 10 l 1,2,-1
 50 10 l 1,3,-1
 50 0 l 1,4,-1
 20 0 l 1,5,-1
 20 10 l 1,6,-1
 30 10 l 1,7,-1
 30 80 l 1,8,-1
 20 80 l 1,9,-1
 20 90 l 1,10,-1
 20 90 l 1,0,-1
50 90 m 1,11,-1
 60 90 l 1,12,-1
 60 70 l 1,13,-1
 50 70 l 1,14,-1
 50 90 l 1,11,-1
EndSplineSet
EndChar

StartChar: Lslash
Encoding: 321 321 184
Width: 60
VWidth: 95
GlyphClass: 1
Flags: W
LayerCount: 2
Fore
SplineSet
20 90 m 1,0,-1
 30 90 l 1,1,-1
 30 60 l 1,2,-1
 40 60 l 1,3,-1
 40 70 l 1,4,-1
 50 70 l 1,5,-1
 50 60 l 1,6,-1
 40 60 l 1,7,-1
 40 50 l 1,8,-1
 30 50 l 1,9,-1
 30 10 l 1,10,-1
 60 10 l 1,11,-1
 60 0 l 1,12,-1
 20 0 l 1,13,-1
 20 40 l 1,14,-1
 10 40 l 1,15,-1
 10 50 l 1,16,-1
 20 50 l 1,17,-1
 20 90 l 1,18,-1
 20 90 l 1,0,-1
EndSplineSet
EndChar

StartChar: lslash
Encoding: 322 322 185
Width: 60
VWidth: 95
GlyphClass: 1
Flags: W
LayerCount: 2
Fore
SplineSet
20 90 m 1,0,-1
 40 90 l 1,1,-1
 40 60 l 1,2,-1
 50 60 l 1,3,-1
 50 50 l 1,4,-1
 40 50 l 1,5,-1
 40 10 l 1,6,-1
 50 10 l 1,7,-1
 50 0 l 1,8,-1
 20 0 l 1,9,-1
 20 10 l 1,10,-1
 30 10 l 1,11,-1
 30 40 l 1,12,-1
 20 40 l 1,13,-1
 20 50 l 1,14,-1
 30 50 l 1,15,-1
 30 80 l 1,16,-1
 20 80 l 1,17,-1
 20 90 l 1,18,-1
 20 90 l 1,0,-1
EndSplineSet
EndChar

StartChar: Nacute
Encoding: 323 323 186
Width: 60
VWidth: 95
GlyphClass: 1
Flags: W
LayerCount: 2
Fore
SplineSet
40 90 m 1,0,-1
 50 90 l 1,1,-1
 50 80 l 1,2,-1
 40 80 l 1,3,-1
 40 90 l 1,0,-1
30 80 m 1,4,-1
 40 80 l 1,5,-1
 40 70 l 1,6,-1
 30 70 l 1,7,-1
 30 80 l 1,4,-1
10 70 m 1,8,-1
 20 70 l 1,9,-1
 20 60 l 1,10,-1
 30 60 l 1,11,-1
 30 40 l 1,12,-1
 20 40 l 1,13,-1
 20 0 l 1,14,-1
 10 0 l 1,15,-1
 10 70 l 1,16,-1
 10 70 l 1,8,-1
50 70 m 1,17,-1
 60 70 l 1,18,-1
 60 0 l 1,19,-1
 50 0 l 1,20,-1
 50 10 l 1,21,-1
 40 10 l 1,22,-1
 40 30 l 1,23,-1
 30 30 l 1,24,-1
 30 40 l 1,25,-1
 40 40 l 1,26,-1
 40 30 l 1,27,-1
 50 30 l 1,28,-1
 50 70 l 1,29,-1
 50 70 l 1,17,-1
EndSplineSet
EndChar

StartChar: nacute
Encoding: 324 324 187
Width: 60
VWidth: 95
GlyphClass: 1
Flags: W
LayerCount: 2
Fore
SplineSet
40 90 m 1,0,-1
 50 90 l 1,1,-1
 50 80 l 1,2,-1
 40 80 l 1,3,-1
 40 90 l 1,0,-1
30 80 m 1,4,-1
 40 80 l 1,5,-1
 40 70 l 1,6,-1
 30 70 l 1,7,-1
 30 80 l 1,4,-1
10 60 m 1,8,-1
 20 60 l 1,9,-1
 20 50 l 1,10,-1
 30 50 l 1,11,-1
 30 60 l 1,12,-1
 50 60 l 1,13,-1
 50 50 l 1,14,-1
 30 50 l 1,15,-1
 30 40 l 1,16,-1
 20 40 l 1,17,-1
 20 0 l 1,18,-1
 10 0 l 1,19,-1
 10 60 l 1,20,-1
 10 60 l 1,8,-1
50 50 m 1,21,-1
 60 50 l 1,22,-1
 60 0 l 1,23,-1
 50 0 l 1,24,-1
 50 50 l 1,21,-1
EndSplineSet
EndChar

StartChar: Ncaron
Encoding: 327 327 188
Width: 60
VWidth: 95
GlyphClass: 1
Flags: W
LayerCount: 2
Fore
SplineSet
20 90 m 1,0,-1
 30 90 l 1,1,-1
 30 80 l 1,2,-1
 20 80 l 1,3,-1
 20 90 l 1,4,-1
 20 90 l 1,0,-1
40 90 m 1,5,-1
 50 90 l 1,6,-1
 50 80 l 1,7,-1
 40 80 l 1,8,-1
 40 90 l 1,5,-1
30 80 m 1,9,-1
 40 80 l 1,10,-1
 40 70 l 1,11,-1
 30 70 l 1,12,-1
 30 80 l 1,9,-1
10 70 m 1,13,-1
 20 70 l 1,14,-1
 20 60 l 1,15,-1
 30 60 l 1,16,-1
 30 40 l 1,17,-1
 20 40 l 1,18,-1
 20 0 l 1,19,-1
 10 0 l 1,20,-1
 10 70 l 1,21,-1
 10 70 l 1,13,-1
50 70 m 1,22,-1
 60 70 l 1,23,-1
 60 0 l 1,24,-1
 50 0 l 1,25,-1
 50 10 l 1,26,-1
 40 10 l 1,27,-1
 40 30 l 1,28,-1
 30 30 l 1,29,-1
 30 40 l 1,30,-1
 40 40 l 1,31,-1
 40 30 l 1,32,-1
 50 30 l 1,33,-1
 50 70 l 1,34,-1
 50 70 l 1,22,-1
EndSplineSet
EndChar

StartChar: ncaron
Encoding: 328 328 189
Width: 60
VWidth: 95
GlyphClass: 1
Flags: W
LayerCount: 2
Fore
SplineSet
20 90 m 1,0,-1
 30 90 l 1,1,-1
 30 80 l 1,2,-1
 20 80 l 1,3,-1
 20 90 l 1,4,-1
 20 90 l 1,0,-1
40 90 m 1,5,-1
 50 90 l 1,6,-1
 50 80 l 1,7,-1
 40 80 l 1,8,-1
 40 90 l 1,5,-1
30 80 m 1,9,-1
 40 80 l 1,10,-1
 40 70 l 1,11,-1
 30 70 l 1,12,-1
 30 80 l 1,9,-1
10 60 m 1,13,-1
 20 60 l 1,14,-1
 20 50 l 1,15,-1
 30 50 l 1,16,-1
 30 60 l 1,17,-1
 50 60 l 1,18,-1
 50 50 l 1,19,-1
 30 50 l 1,20,-1
 30 40 l 1,21,-1
 20 40 l 1,22,-1
 20 0 l 1,23,-1
 10 0 l 1,24,-1
 10 60 l 1,25,-1
 10 60 l 1,13,-1
50 50 m 1,26,-1
 60 50 l 1,27,-1
 60 0 l 1,28,-1
 50 0 l 1,29,-1
 50 50 l 1,26,-1
EndSplineSet
EndChar

StartChar: Ohungarumlaut
Encoding: 336 336 190
Width: 60
VWidth: 95
GlyphClass: 1
Flags: W
LayerCount: 2
Fore
SplineSet
20 90 m 1,0,-1
 30 90 l 1,1,-1
 30 80 l 1,2,-1
 20 80 l 1,3,-1
 20 90 l 1,4,-1
 20 90 l 1,0,-1
50 90 m 1,5,-1
 60 90 l 1,6,-1
 60 80 l 1,7,-1
 50 80 l 1,8,-1
 50 90 l 1,5,-1
10 80 m 1,9,-1
 20 80 l 1,10,-1
 20 70 l 1,11,-1
 10 70 l 1,12,-1
 10 80 l 1,9,-1
40 80 m 1,13,-1
 50 80 l 1,14,-1
 50 60 l 1,15,-1
 20 60 l 1,16,-1
 20 70 l 1,17,-1
 40 70 l 1,18,-1
 40 80 l 1,19,-1
 40 80 l 1,13,-1
10 60 m 1,20,-1
 20 60 l 1,21,-1
 20 10 l 1,22,-1
 10 10 l 1,23,-1
 10 60 l 1,24,-1
 10 60 l 1,20,-1
50 60 m 1,25,-1
 60 60 l 1,26,-1
 60 10 l 1,27,-1
 50 10 l 1,28,-1
 50 60 l 1,29,-1
 50 60 l 1,25,-1
20 10 m 1,30,-1
 50 10 l 1,31,-1
 50 0 l 1,32,-1
 20 0 l 1,33,-1
 20 10 l 1,34,-1
 20 10 l 1,30,-1
EndSplineSet
EndChar

StartChar: ohungarumlaut
Encoding: 337 337 191
Width: 60
VWidth: 95
GlyphClass: 1
Flags: W
LayerCount: 2
Fore
SplineSet
20 90 m 1,0,-1
 30 90 l 1,1,-1
 30 80 l 1,2,-1
 20 80 l 1,3,-1
 20 90 l 1,4,-1
 20 90 l 1,0,-1
50 90 m 1,5,-1
 60 90 l 1,6,-1
 60 80 l 1,7,-1
 50 80 l 1,8,-1
 50 90 l 1,5,-1
10 80 m 1,9,-1
 20 80 l 1,10,-1
 20 70 l 1,11,-1
 10 70 l 1,12,-1
 10 80 l 1,9,-1
40 80 m 1,13,-1
 50 80 l 1,14,-1
 50 70 l 1,15,-1
 40 70 l 1,16,-1
 40 80 l 1,13,-1
20 60 m 1,17,-1
 50 60 l 1,18,-1
 50 50 l 1,19,-1
 20 50 l 1,20,-1
 20 60 l 1,21,-1
 20 60 l 1,17,-1
10 50 m 1,22,-1
 20 50 l 1,23,-1
 20 10 l 1,24,-1
 10 10 l 1,25,-1
 10 50 l 1,22,-1
50 50 m 1,26,-1
 60 50 l 1,27,-1
 60 10 l 1,28,-1
 50 10 l 1,29,-1
 50 50 l 1,26,-1
20 10 m 1,30,-1
 50 10 l 1,31,-1
 50 0 l 1,32,-1
 20 0 l 1,33,-1
 20 10 l 1,34,-1
 20 10 l 1,30,-1
EndSplineSet
EndChar

StartChar: OE
Encoding: 338 338 192
Width: 60
VWidth: 95
GlyphClass: 1
Flags: W
LayerCount: 2
Fore
SplineSet
20 90 m 1,0,-1
 60 90 l 1,1,-1
 60 80 l 1,2,-1
 40 80 l 1,3,-1
 40 50 l 1,4,-1
 60 50 l 1,5,-1
 60 40 l 1,6,-1
 40 40 l 1,7,-1
 40 10 l 1,8,-1
 60 10 l 1,9,-1
 60 0 l 1,10,-1
 20 0 l 1,11,-1
 20 10 l 1,12,-1
 10 10 l 1,13,-1
 10 80 l 1,14,-1
 20 80 l 1,15,-1
 20 90 l 1,16,-1
 20 90 l 1,0,-1
30 80 m 1,17,-1
 20 80 l 1,18,-1
 20 10 l 1,19,-1
 30 10 l 1,20,-1
 30 80 l 1,17,-1
EndSplineSet
EndChar

StartChar: oe
Encoding: 339 339 193
Width: 60
VWidth: 95
GlyphClass: 1
Flags: W
LayerCount: 2
Fore
SplineSet
20 70 m 1,0,-1
 30 70 l 1,1,-1
 30 60 l 1,2,-1
 20 60 l 1,3,-1
 20 70 l 1,4,-1
 20 70 l 1,0,-1
40 70 m 1,5,-1
 50 70 l 1,6,-1
 50 60 l 1,7,-1
 40 60 l 1,8,-1
 40 70 l 1,5,-1
10 60 m 1,9,-1
 20 60 l 1,10,-1
 20 10 l 1,11,-1
 10 10 l 1,12,-1
 10 60 l 1,13,-1
 10 60 l 1,9,-1
30 60 m 1,14,-1
 40 60 l 1,15,-1
 40 40 l 1,16,-1
 50 40 l 1,17,-1
 50 60 l 1,18,-1
 60 60 l 1,19,-1
 60 30 l 1,20,-1
 40 30 l 1,21,-1
 40 10 l 1,22,-1
 30 10 l 1,23,-1
 30 60 l 1,24,-1
 30 60 l 1,14,-1
20 10 m 1,25,-1
 30 10 l 1,26,-1
 30 0 l 1,27,-1
 20 0 l 1,28,-1
 20 10 l 1,29,-1
 20 10 l 1,25,-1
40 10 m 1,30,-1
 60 10 l 1,31,-1
 60 0 l 1,32,-1
 40 0 l 1,33,-1
 40 10 l 1,30,-1
EndSplineSet
EndChar

StartChar: Racute
Encoding: 340 340 194
Width: 60
VWidth: 95
GlyphClass: 1
Flags: W
LayerCount: 2
Fore
SplineSet
40 90 m 1,0,-1
 50 90 l 1,1,-1
 50 80 l 1,2,-1
 40 80 l 1,3,-1
 40 90 l 1,0,-1
30 80 m 1,4,-1
 40 80 l 1,5,-1
 40 70 l 1,6,-1
 50 70 l 1,7,-1
 50 60 l 1,8,-1
 20 60 l 1,9,-1
 20 40 l 1,10,-1
 50 40 l 1,11,-1
 50 60 l 1,12,-1
 60 60 l 1,13,-1
 60 40 l 1,14,-1
 50 40 l 1,15,-1
 50 20 l 1,16,-1
 40 20 l 1,17,-1
 40 30 l 1,18,-1
 20 30 l 1,19,-1
 20 0 l 1,20,-1
 10 0 l 1,21,-1
 10 70 l 1,22,-1
 30 70 l 1,23,-1
 30 80 l 1,24,-1
 30 80 l 1,4,-1
50 20 m 1,25,-1
 60 20 l 1,26,-1
 60 0 l 1,27,-1
 50 0 l 1,28,-1
 50 20 l 1,25,-1
EndSplineSet
EndChar

StartChar: racute
Encoding: 341 341 195
Width: 60
VWidth: 95
GlyphClass: 1
Flags: W
LayerCount: 2
Fore
SplineSet
40 90 m 1,0,-1
 50 90 l 1,1,-1
 50 80 l 1,2,-1
 40 80 l 1,3,-1
 40 90 l 1,0,-1
30 80 m 1,4,-1
 40 80 l 1,5,-1
 40 70 l 1,6,-1
 30 70 l 1,7,-1
 30 80 l 1,4,-1
10 60 m 1,8,-1
 20 60 l 1,9,-1
 20 50 l 1,10,-1
 30 50 l 1,11,-1
 30 60 l 1,12,-1
 60 60 l 1,13,-1
 60 50 l 1,14,-1
 30 50 l 1,15,-1
 30 40 l 1,16,-1
 20 40 l 1,17,-1
 20 0 l 1,18,-1
 10 0 l 1,19,-1
 10 60 l 1,20,-1
 10 60 l 1,8,-1
EndSplineSet
EndChar

StartChar: Rcaron
Encoding: 344 344 196
Width: 60
VWidth: 95
GlyphClass: 1
Flags: W
LayerCount: 2
Fore
SplineSet
20 90 m 1,0,-1
 30 90 l 1,1,-1
 30 80 l 1,2,-1
 20 80 l 1,3,-1
 20 90 l 1,4,-1
 20 90 l 1,0,-1
40 90 m 1,5,-1
 50 90 l 1,6,-1
 50 80 l 1,7,-1
 40 80 l 1,8,-1
 40 90 l 1,5,-1
30 80 m 1,9,-1
 40 80 l 1,10,-1
 40 70 l 1,11,-1
 50 70 l 1,12,-1
 50 60 l 1,13,-1
 20 60 l 1,14,-1
 20 40 l 1,15,-1
 50 40 l 1,16,-1
 50 60 l 1,17,-1
 60 60 l 1,18,-1
 60 40 l 1,19,-1
 50 40 l 1,20,-1
 50 20 l 1,21,-1
 40 20 l 1,22,-1
 40 30 l 1,23,-1
 20 30 l 1,24,-1
 20 0 l 1,25,-1
 10 0 l 1,26,-1
 10 70 l 1,27,-1
 30 70 l 1,28,-1
 30 80 l 1,29,-1
 30 80 l 1,9,-1
50 20 m 1,30,-1
 60 20 l 1,31,-1
 60 0 l 1,32,-1
 50 0 l 1,33,-1
 50 20 l 1,30,-1
EndSplineSet
EndChar

StartChar: rcaron
Encoding: 345 345 197
Width: 60
VWidth: 95
GlyphClass: 1
Flags: W
LayerCount: 2
Fore
SplineSet
20 90 m 1,0,-1
 30 90 l 1,1,-1
 30 80 l 1,2,-1
 20 80 l 1,3,-1
 20 90 l 1,4,-1
 20 90 l 1,0,-1
40 90 m 1,5,-1
 50 90 l 1,6,-1
 50 80 l 1,7,-1
 40 80 l 1,8,-1
 40 90 l 1,5,-1
30 80 m 1,9,-1
 40 80 l 1,10,-1
 40 70 l 1,11,-1
 30 70 l 1,12,-1
 30 80 l 1,9,-1
10 60 m 1,13,-1
 20 60 l 1,14,-1
 20 50 l 1,15,-1
 30 50 l 1,16,-1
 30 60 l 1,17,-1
 60 60 l 1,18,-1
 60 50 l 1,19,-1
 30 50 l 1,20,-1
 30 40 l 1,21,-1
 20 40 l 1,22,-1
 20 0 l 1,23,-1
 10 0 l 1,24,-1
 10 60 l 1,25,-1
 10 60 l 1,13,-1
EndSplineSet
EndChar

StartChar: Sacute
Encoding: 346 346 198
Width: 60
VWidth: 95
GlyphClass: 1
Flags: W
LayerCount: 2
Fore
SplineSet
40 90 m 1,0,-1
 50 90 l 1,1,-1
 50 80 l 1,2,-1
 40 80 l 1,3,-1
 40 90 l 1,0,-1
30 80 m 1,4,-1
 40 80 l 1,5,-1
 40 70 l 1,6,-1
 60 70 l 1,7,-1
 60 60 l 1,8,-1
 20 60 l 1,9,-1
 20 70 l 1,10,-1
 30 70 l 1,11,-1
 30 80 l 1,12,-1
 30 80 l 1,4,-1
10 60 m 1,13,-1
 20 60 l 1,14,-1
 20 40 l 1,15,-1
 10 40 l 1,16,-1
 10 60 l 1,17,-1
 10 60 l 1,13,-1
20 40 m 1,18,-1
 50 40 l 1,19,-1
 50 30 l 1,20,-1
 20 30 l 1,21,-1
 20 40 l 1,22,-1
 20 40 l 1,18,-1
50 30 m 1,23,-1
 60 30 l 1,24,-1
 60 10 l 1,25,-1
 50 10 l 1,26,-1
 50 30 l 1,23,-1
10 10 m 1,27,-1
 50 10 l 1,28,-1
 50 0 l 1,29,-1
 10 0 l 1,30,-1
 10 10 l 1,31,-1
 10 10 l 1,27,-1
EndSplineSet
EndChar

StartChar: sacute
Encoding: 347 347 199
Width: 60
VWidth: 95
GlyphClass: 1
Flags: W
LayerCount: 2
Fore
SplineSet
40 90 m 1,0,-1
 50 90 l 1,1,-1
 50 80 l 1,2,-1
 40 80 l 1,3,-1
 40 90 l 1,0,-1
30 80 m 1,4,-1
 40 80 l 1,5,-1
 40 70 l 1,6,-1
 30 70 l 1,7,-1
 30 80 l 1,4,-1
20 60 m 1,8,-1
 60 60 l 1,9,-1
 60 50 l 1,10,-1
 20 50 l 1,11,-1
 20 60 l 1,12,-1
 20 60 l 1,8,-1
10 50 m 1,13,-1
 20 50 l 1,14,-1
 20 40 l 1,15,-1
 10 40 l 1,16,-1
 10 50 l 1,13,-1
20 40 m 1,17,-1
 50 40 l 1,18,-1
 50 30 l 1,19,-1
 20 30 l 1,20,-1
 20 40 l 1,21,-1
 20 40 l 1,17,-1
50 30 m 1,22,-1
 60 30 l 1,23,-1
 60 10 l 1,24,-1
 50 10 l 1,25,-1
 50 30 l 1,22,-1
10 10 m 1,26,-1
 50 10 l 1,27,-1
 50 0 l 1,28,-1
 10 0 l 1,29,-1
 10 10 l 1,30,-1
 10 10 l 1,26,-1
EndSplineSet
EndChar

StartChar: Scaron
Encoding: 352 352 200
Width: 60
VWidth: 95
GlyphClass: 1
Flags: W
LayerCount: 2
Fore
SplineSet
20 90 m 1,0,-1
 30 90 l 1,1,-1
 30 80 l 1,2,-1
 20 80 l 1,3,-1
 20 90 l 1,4,-1
 20 90 l 1,0,-1
40 90 m 1,5,-1
 50 90 l 1,6,-1
 50 80 l 1,7,-1
 40 80 l 1,8,-1
 40 90 l 1,5,-1
30 80 m 1,9,-1
 40 80 l 1,10,-1
 40 70 l 1,11,-1
 60 70 l 1,12,-1
 60 60 l 1,13,-1
 20 60 l 1,14,-1
 20 70 l 1,15,-1
 30 70 l 1,16,-1
 30 80 l 1,17,-1
 30 80 l 1,9,-1
10 60 m 1,18,-1
 20 60 l 1,19,-1
 20 40 l 1,20,-1
 10 40 l 1,21,-1
 10 60 l 1,22,-1
 10 60 l 1,18,-1
20 40 m 1,23,-1
 50 40 l 1,24,-1
 50 30 l 1,25,-1
 20 30 l 1,26,-1
 20 40 l 1,27,-1
 20 40 l 1,23,-1
50 30 m 1,28,-1
 60 30 l 1,29,-1
 60 10 l 1,30,-1
 50 10 l 1,31,-1
 50 30 l 1,28,-1
10 10 m 1,32,-1
 50 10 l 1,33,-1
 50 0 l 1,34,-1
 10 0 l 1,35,-1
 10 10 l 1,36,-1
 10 10 l 1,32,-1
EndSplineSet
EndChar

StartChar: scaron
Encoding: 353 353 201
Width: 60
VWidth: 95
GlyphClass: 1
Flags: W
LayerCount: 2
Fore
SplineSet
20 90 m 1,0,-1
 30 90 l 1,1,-1
 30 80 l 1,2,-1
 20 80 l 1,3,-1
 20 90 l 1,4,-1
 20 90 l 1,0,-1
40 90 m 1,5,-1
 50 90 l 1,6,-1
 50 80 l 1,7,-1
 40 80 l 1,8,-1
 40 90 l 1,5,-1
30 80 m 1,9,-1
 40 80 l 1,10,-1
 40 70 l 1,11,-1
 30 70 l 1,12,-1
 30 80 l 1,9,-1
20 60 m 1,13,-1
 60 60 l 1,14,-1
 60 50 l 1,15,-1
 20 50 l 1,16,-1
 20 60 l 1,17,-1
 20 60 l 1,13,-1
10 50 m 1,18,-1
 20 50 l 1,19,-1
 20 40 l 1,20,-1
 10 40 l 1,21,-1
 10 50 l 1,18,-1
20 40 m 1,22,-1
 50 40 l 1,23,-1
 50 30 l 1,24,-1
 20 30 l 1,25,-1
 20 40 l 1,26,-1
 20 40 l 1,22,-1
50 30 m 1,27,-1
 60 30 l 1,28,-1
 60 10 l 1,29,-1
 50 10 l 1,30,-1
 50 30 l 1,27,-1
10 10 m 1,31,-1
 50 10 l 1,32,-1
 50 0 l 1,33,-1
 10 0 l 1,34,-1
 10 10 l 1,35,-1
 10 10 l 1,31,-1
EndSplineSet
EndChar

StartChar: Tcaron
Encoding: 356 356 202
Width: 60
VWidth: 95
GlyphClass: 1
Flags: W
LayerCount: 2
Fore
SplineSet
20 90 m 1,0,-1
 30 90 l 1,1,-1
 30 80 l 1,2,-1
 20 80 l 1,3,-1
 20 90 l 1,4,-1
 20 90 l 1,0,-1
40 90 m 1,5,-1
 50 90 l 1,6,-1
 50 80 l 1,7,-1
 40 80 l 1,8,-1
 40 90 l 1,5,-1
30 80 m 1,9,-1
 40 80 l 1,10,-1
 40 70 l 1,11,-1
 30 70 l 1,12,-1
 30 80 l 1,9,-1
10 60 m 1,13,-1
 60 60 l 1,14,-1
 60 50 l 1,15,-1
 40 50 l 1,16,-1
 40 0 l 1,17,-1
 30 0 l 1,18,-1
 30 50 l 1,19,-1
 10 50 l 1,20,-1
 10 60 l 1,21,-1
 10 60 l 1,13,-1
EndSplineSet
EndChar

StartChar: tcaron
Encoding: 357 357 203
Width: 60
VWidth: 95
GlyphClass: 1
Flags: W
LayerCount: 2
Fore
SplineSet
20 90 m 1,0,-1
 30 90 l 1,1,-1
 30 70 l 1,2,-1
 50 70 l 1,3,-1
 50 90 l 1,4,-1
 60 90 l 1,5,-1
 60 70 l 1,6,-1
 50 70 l 1,7,-1
 50 60 l 1,8,-1
 30 60 l 1,9,-1
 30 10 l 1,10,-1
 20 10 l 1,11,-1
 20 60 l 1,12,-1
 10 60 l 1,13,-1
 10 70 l 1,14,-1
 20 70 l 1,15,-1
 20 90 l 1,16,-1
 20 90 l 1,0,-1
50 20 m 1,17,-1
 60 20 l 1,18,-1
 60 10 l 1,19,-1
 50 10 l 1,20,-1
 50 20 l 1,17,-1
30 10 m 1,21,-1
 50 10 l 1,22,-1
 50 0 l 1,23,-1
 30 0 l 1,24,-1
 30 10 l 1,25,-1
 30 10 l 1,21,-1
EndSplineSet
EndChar

StartChar: Uring
Encoding: 366 366 204
Width: 60
VWidth: 95
GlyphClass: 1
Flags: W
LayerCount: 2
Fore
SplineSet
30 90 m 1,0,-1
 40 90 l 1,1,-1
 40 80 l 1,2,-1
 30 80 l 1,3,-1
 30 90 l 1,0,-1
20 80 m 1,4,-1
 30 80 l 1,5,-1
 30 70 l 1,6,-1
 20 70 l 1,7,-1
 20 80 l 1,8,-1
 20 80 l 1,4,-1
40 80 m 1,9,-1
 50 80 l 1,10,-1
 50 70 l 1,11,-1
 40 70 l 1,12,-1
 40 80 l 1,9,-1
30 70 m 1,13,-1
 40 70 l 1,14,-1
 40 60 l 1,15,-1
 30 60 l 1,16,-1
 30 70 l 1,13,-1
10 60 m 1,17,-1
 20 60 l 1,18,-1
 20 10 l 1,19,-1
 10 10 l 1,20,-1
 10 60 l 1,21,-1
 10 60 l 1,17,-1
50 60 m 1,22,-1
 60 60 l 1,23,-1
 60 10 l 1,24,-1
 50 10 l 1,25,-1
 50 60 l 1,26,-1
 50 60 l 1,22,-1
20 10 m 1,27,-1
 50 10 l 1,28,-1
 50 0 l 1,29,-1
 20 0 l 1,30,-1
 20 10 l 1,31,-1
 20 10 l 1,27,-1
EndSplineSet
EndChar

StartChar: uring
Encoding: 367 367 205
Width: 60
VWidth: 95
GlyphClass: 1
Flags: W
LayerCount: 2
Fore
SplineSet
30 90 m 1,0,-1
 40 90 l 1,1,-1
 40 80 l 1,2,-1
 30 80 l 1,3,-1
 30 90 l 1,0,-1
20 80 m 1,4,-1
 30 80 l 1,5,-1
 30 70 l 1,6,-1
 20 70 l 1,7,-1
 20 80 l 1,8,-1
 20 80 l 1,4,-1
40 80 m 1,9,-1
 50 80 l 1,10,-1
 50 70 l 1,11,-1
 40 70 l 1,12,-1
 40 80 l 1,9,-1
30 70 m 1,13,-1
 40 70 l 1,14,-1
 40 60 l 1,15,-1
 30 60 l 1,16,-1
 30 70 l 1,13,-1
10 60 m 1,17,-1
 20 60 l 1,18,-1
 20 10 l 1,19,-1
 10 10 l 1,20,-1
 10 60 l 1,21,-1
 10 60 l 1,17,-1
50 60 m 1,22,-1
 60 60 l 1,23,-1
 60 0 l 1,24,-1
 50 0 l 1,25,-1
 50 10 l 1,26,-1
 40 10 l 1,27,-1
 40 20 l 1,28,-1
 50 20 l 1,29,-1
 50 60 l 1,30,-1
 50 60 l 1,22,-1
20 10 m 1,31,-1
 40 10 l 1,32,-1
 40 0 l 1,33,-1
 20 0 l 1,34,-1
 20 10 l 1,31,-1
EndSplineSet
EndChar

StartChar: Uhungarumlaut
Encoding: 368 368 206
Width: 60
VWidth: 95
GlyphClass: 1
Flags: W
LayerCount: 2
Fore
SplineSet
20 90 m 1,0,-1
 30 90 l 1,1,-1
 30 80 l 1,2,-1
 20 80 l 1,3,-1
 20 90 l 1,4,-1
 20 90 l 1,0,-1
50 90 m 1,5,-1
 60 90 l 1,6,-1
 60 80 l 1,7,-1
 50 80 l 1,8,-1
 50 90 l 1,5,-1
10 80 m 1,9,-1
 20 80 l 1,10,-1
 20 70 l 1,11,-1
 10 70 l 1,12,-1
 10 80 l 1,9,-1
40 80 m 1,13,-1
 50 80 l 1,14,-1
 50 70 l 1,15,-1
 40 70 l 1,16,-1
 40 80 l 1,13,-1
10 60 m 1,17,-1
 20 60 l 1,18,-1
 20 10 l 1,19,-1
 10 10 l 1,20,-1
 10 60 l 1,21,-1
 10 60 l 1,17,-1
50 60 m 1,22,-1
 60 60 l 1,23,-1
 60 10 l 1,24,-1
 50 10 l 1,25,-1
 50 60 l 1,26,-1
 50 60 l 1,22,-1
20 10 m 1,27,-1
 50 10 l 1,28,-1
 50 0 l 1,29,-1
 20 0 l 1,30,-1
 20 10 l 1,31,-1
 20 10 l 1,27,-1
EndSplineSet
EndChar

StartChar: uhungarumlaut
Encoding: 369 369 207
Width: 60
VWidth: 95
GlyphClass: 1
Flags: W
LayerCount: 2
Fore
SplineSet
20 90 m 1,0,-1
 30 90 l 1,1,-1
 30 80 l 1,2,-1
 20 80 l 1,3,-1
 20 90 l 1,4,-1
 20 90 l 1,0,-1
50 90 m 1,5,-1
 60 90 l 1,6,-1
 60 80 l 1,7,-1
 50 80 l 1,8,-1
 50 90 l 1,5,-1
10 80 m 1,9,-1
 20 80 l 1,10,-1
 20 70 l 1,11,-1
 10 70 l 1,12,-1
 10 80 l 1,9,-1
40 80 m 1,13,-1
 50 80 l 1,14,-1
 50 70 l 1,15,-1
 40 70 l 1,16,-1
 40 80 l 1,13,-1
10 60 m 1,17,-1
 20 60 l 1,18,-1
 20 10 l 1,19,-1
 10 10 l 1,20,-1
 10 60 l 1,21,-1
 10 60 l 1,17,-1
50 60 m 1,22,-1
 60 60 l 1,23,-1
 60 0 l 1,24,-1
 50 0 l 1,25,-1
 50 10 l 1,26,-1
 40 10 l 1,27,-1
 40 20 l 1,28,-1
 50 20 l 1,29,-1
 50 60 l 1,30,-1
 50 60 l 1,22,-1
20 10 m 1,31,-1
 40 10 l 1,32,-1
 40 0 l 1,33,-1
 20 0 l 1,34,-1
 20 10 l 1,31,-1
EndSplineSet
EndChar

StartChar: Ydieresis
Encoding: 376 376 208
Width: 60
VWidth: 95
GlyphClass: 1
Flags: W
LayerCount: 2
Fore
SplineSet
20 90 m 1,0,-1
 30 90 l 1,1,-1
 30 80 l 1,2,-1
 20 80 l 1,3,-1
 20 90 l 1,4,-1
 20 90 l 1,0,-1
40 90 m 1,5,-1
 50 90 l 1,6,-1
 50 80 l 1,7,-1
 40 80 l 1,8,-1
 40 90 l 1,5,-1
10 70 m 1,9,-1
 20 70 l 1,10,-1
 20 50 l 1,11,-1
 10 50 l 1,12,-1
 10 70 l 1,9,-1
50 70 m 1,13,-1
 60 70 l 1,14,-1
 60 50 l 1,15,-1
 50 50 l 1,16,-1
 50 70 l 1,13,-1
20 50 m 1,17,-1
 30 50 l 1,18,-1
 30 40 l 1,19,-1
 20 40 l 1,20,-1
 20 50 l 1,21,-1
 20 50 l 1,17,-1
40 50 m 1,22,-1
 50 50 l 1,23,-1
 50 40 l 1,24,-1
 40 40 l 1,25,-1
 40 50 l 1,22,-1
30 40 m 1,26,-1
 40 40 l 1,27,-1
 40 0 l 1,28,-1
 30 0 l 1,29,-1
 30 40 l 1,26,-1
EndSplineSet
EndChar

StartChar: Zacute
Encoding: 377 377 209
Width: 60
VWidth: 95
GlyphClass: 1
Flags: W
LayerCount: 2
Fore
SplineSet
40 90 m 1,0,-1
 50 90 l 1,1,-1
 50 80 l 1,2,-1
 40 80 l 1,3,-1
 40 90 l 1,0,-1
30 80 m 1,4,-1
 40 80 l 1,5,-1
 40 70 l 1,6,-1
 60 70 l 1,7,-1
 60 50 l 1,8,-1
 50 50 l 1,9,-1
 50 60 l 1,10,-1
 10 60 l 1,11,-1
 10 70 l 1,12,-1
 30 70 l 1,13,-1
 30 80 l 1,14,-1
 30 80 l 1,4,-1
40 50 m 1,15,-1
 50 50 l 1,16,-1
 50 40 l 1,17,-1
 40 40 l 1,18,-1
 40 50 l 1,15,-1
30 40 m 1,19,-1
 40 40 l 1,20,-1
 40 30 l 1,21,-1
 30 30 l 1,22,-1
 30 40 l 1,19,-1
20 30 m 1,23,-1
 30 30 l 1,24,-1
 30 20 l 1,25,-1
 20 20 l 1,26,-1
 20 30 l 1,27,-1
 20 30 l 1,23,-1
10 20 m 1,28,-1
 20 20 l 1,29,-1
 20 10 l 1,30,-1
 60 10 l 1,31,-1
 60 0 l 1,32,-1
 10 0 l 1,33,-1
 10 20 l 1,34,-1
 10 20 l 1,28,-1
EndSplineSet
EndChar

StartChar: zacute
Encoding: 378 378 210
Width: 60
VWidth: 95
GlyphClass: 1
Flags: W
LayerCount: 2
Fore
SplineSet
40 90 m 1,0,-1
 50 90 l 1,1,-1
 50 80 l 1,2,-1
 40 80 l 1,3,-1
 40 90 l 1,0,-1
30 80 m 1,4,-1
 40 80 l 1,5,-1
 40 70 l 1,6,-1
 30 70 l 1,7,-1
 30 80 l 1,4,-1
10 60 m 1,8,-1
 60 60 l 1,9,-1
 60 50 l 1,10,-1
 50 50 l 1,11,-1
 50 40 l 1,12,-1
 40 40 l 1,13,-1
 40 50 l 1,14,-1
 10 50 l 1,15,-1
 10 60 l 1,16,-1
 10 60 l 1,8,-1
30 40 m 1,17,-1
 40 40 l 1,18,-1
 40 30 l 1,19,-1
 30 30 l 1,20,-1
 30 40 l 1,17,-1
20 30 m 1,21,-1
 30 30 l 1,22,-1
 30 20 l 1,23,-1
 20 20 l 1,24,-1
 20 30 l 1,25,-1
 20 30 l 1,21,-1
10 20 m 1,26,-1
 20 20 l 1,27,-1
 20 10 l 1,28,-1
 60 10 l 1,29,-1
 60 0 l 1,30,-1
 10 0 l 1,31,-1
 10 20 l 1,32,-1
 10 20 l 1,26,-1
EndSplineSet
EndChar

StartChar: Zdotaccent
Encoding: 379 379 211
Width: 60
VWidth: 95
GlyphClass: 1
Flags: W
LayerCount: 2
Fore
SplineSet
30 90 m 1,0,-1
 40 90 l 1,1,-1
 40 80 l 1,2,-1
 30 80 l 1,3,-1
 30 90 l 1,0,-1
10 70 m 1,4,-1
 60 70 l 1,5,-1
 60 50 l 1,6,-1
 50 50 l 1,7,-1
 50 60 l 1,8,-1
 10 60 l 1,9,-1
 10 70 l 1,10,-1
 10 70 l 1,4,-1
40 50 m 1,11,-1
 50 50 l 1,12,-1
 50 40 l 1,13,-1
 40 40 l 1,14,-1
 40 50 l 1,11,-1
30 40 m 1,15,-1
 40 40 l 1,16,-1
 40 30 l 1,17,-1
 30 30 l 1,18,-1
 30 40 l 1,15,-1
20 30 m 1,19,-1
 30 30 l 1,20,-1
 30 20 l 1,21,-1
 20 20 l 1,22,-1
 20 30 l 1,23,-1
 20 30 l 1,19,-1
10 20 m 1,24,-1
 20 20 l 1,25,-1
 20 10 l 1,26,-1
 60 10 l 1,27,-1
 60 0 l 1,28,-1
 10 0 l 1,29,-1
 10 20 l 1,30,-1
 10 20 l 1,24,-1
EndSplineSet
EndChar

StartChar: zdotaccent
Encoding: 380 380 212
Width: 60
VWidth: 95
GlyphClass: 1
Flags: W
LayerCount: 2
Fore
SplineSet
30 80 m 1,0,-1
 40 80 l 1,1,-1
 40 70 l 1,2,-1
 30 70 l 1,3,-1
 30 80 l 1,0,-1
10 60 m 1,4,-1
 60 60 l 1,5,-1
 60 50 l 1,6,-1
 50 50 l 1,7,-1
 50 40 l 1,8,-1
 40 40 l 1,9,-1
 40 50 l 1,10,-1
 10 50 l 1,11,-1
 10 60 l 1,12,-1
 10 60 l 1,4,-1
30 40 m 1,13,-1
 40 40 l 1,14,-1
 40 30 l 1,15,-1
 30 30 l 1,16,-1
 30 40 l 1,13,-1
20 30 m 1,17,-1
 30 30 l 1,18,-1
 30 20 l 1,19,-1
 20 20 l 1,20,-1
 20 30 l 1,21,-1
 20 30 l 1,17,-1
10 20 m 1,22,-1
 20 20 l 1,23,-1
 20 10 l 1,24,-1
 60 10 l 1,25,-1
 60 0 l 1,26,-1
 10 0 l 1,27,-1
 10 20 l 1,28,-1
 10 20 l 1,22,-1
EndSplineSet
EndChar

StartChar: Zcaron
Encoding: 381 381 213
Width: 60
VWidth: 95
GlyphClass: 1
Flags: W
LayerCount: 2
Fore
SplineSet
20 90 m 1,0,-1
 30 90 l 1,1,-1
 30 80 l 1,2,-1
 20 80 l 1,3,-1
 20 90 l 1,4,-1
 20 90 l 1,0,-1
40 90 m 1,5,-1
 50 90 l 1,6,-1
 50 80 l 1,7,-1
 40 80 l 1,8,-1
 40 90 l 1,5,-1
30 80 m 1,9,-1
 40 80 l 1,10,-1
 40 70 l 1,11,-1
 60 70 l 1,12,-1
 60 50 l 1,13,-1
 50 50 l 1,14,-1
 50 60 l 1,15,-1
 10 60 l 1,16,-1
 10 70 l 1,17,-1
 30 70 l 1,18,-1
 30 80 l 1,19,-1
 30 80 l 1,9,-1
40 50 m 1,20,-1
 50 50 l 1,21,-1
 50 40 l 1,22,-1
 40 40 l 1,23,-1
 40 50 l 1,20,-1
30 40 m 1,24,-1
 40 40 l 1,25,-1
 40 30 l 1,26,-1
 30 30 l 1,27,-1
 30 40 l 1,24,-1
20 30 m 1,28,-1
 30 30 l 1,29,-1
 30 20 l 1,30,-1
 20 20 l 1,31,-1
 20 30 l 1,32,-1
 20 30 l 1,28,-1
10 20 m 1,33,-1
 20 20 l 1,34,-1
 20 10 l 1,35,-1
 60 10 l 1,36,-1
 60 0 l 1,37,-1
 10 0 l 1,38,-1
 10 20 l 1,39,-1
 10 20 l 1,33,-1
EndSplineSet
EndChar

StartChar: zcaron
Encoding: 382 382 214
Width: 60
VWidth: 95
GlyphClass: 1
Flags: W
LayerCount: 2
Fore
SplineSet
20 90 m 1,0,-1
 30 90 l 1,1,-1
 30 80 l 1,2,-1
 20 80 l 1,3,-1
 20 90 l 1,4,-1
 20 90 l 1,0,-1
40 90 m 1,5,-1
 50 90 l 1,6,-1
 50 80 l 1,7,-1
 40 80 l 1,8,-1
 40 90 l 1,5,-1
30 80 m 1,9,-1
 40 80 l 1,10,-1
 40 70 l 1,11,-1
 30 70 l 1,12,-1
 30 80 l 1,9,-1
10 60 m 1,13,-1
 60 60 l 1,14,-1
 60 50 l 1,15,-1
 50 50 l 1,16,-1
 50 40 l 1,17,-1
 40 40 l 1,18,-1
 40 50 l 1,19,-1
 10 50 l 1,20,-1
 10 60 l 1,21,-1
 10 60 l 1,13,-1
30 40 m 1,22,-1
 40 40 l 1,23,-1
 40 30 l 1,24,-1
 30 30 l 1,25,-1
 30 40 l 1,22,-1
20 30 m 1,26,-1
 30 30 l 1,27,-1
 30 20 l 1,28,-1
 20 20 l 1,29,-1
 20 30 l 1,30,-1
 20 30 l 1,26,-1
10 20 m 1,31,-1
 20 20 l 1,32,-1
 20 10 l 1,33,-1
 60 10 l 1,34,-1
 60 0 l 1,35,-1
 10 0 l 1,36,-1
 10 20 l 1,37,-1
 10 20 l 1,31,-1
EndSplineSet
EndChar

StartChar: uni01C5
Encoding: 453 453 215
Width: 60
VWidth: 95
GlyphClass: 1
Flags: W
LayerCount: 2
Fore
SplineSet
30 90 m 1,0,-1
 40 90 l 1,1,-1
 40 80 l 1,2,-1
 30 80 l 1,3,-1
 30 90 l 1,0,-1
50 90 m 1,4,-1
 60 90 l 1,5,-1
 60 80 l 1,6,-1
 50 80 l 1,7,-1
 50 90 l 1,4,-1
10 80 m 1,8,-1
 30 80 l 1,9,-1
 30 70 l 1,10,-1
 20 70 l 1,11,-1
 20 10 l 1,12,-1
 30 10 l 1,13,-1
 30 70 l 1,14,-1
 40 70 l 1,15,-1
 40 80 l 1,16,-1
 50 80 l 1,17,-1
 50 70 l 1,18,-1
 40 70 l 1,19,-1
 40 60 l 1,20,-1
 60 60 l 1,21,-1
 60 30 l 1,22,-1
 50 30 l 1,23,-1
 50 50 l 1,24,-1
 40 50 l 1,25,-1
 40 30 l 1,26,-1
 50 30 l 1,27,-1
 50 10 l 1,28,-1
 60 10 l 1,29,-1
 60 0 l 1,30,-1
 40 0 l 1,31,-1
 40 10 l 1,32,-1
 30 10 l 1,33,-1
 30 0 l 1,34,-1
 10 0 l 1,35,-1
 10 80 l 1,36,-1
 10 80 l 1,8,-1
EndSplineSet
EndChar

StartChar: uni01C6
Encoding: 454 454 216
Width: 60
VWidth: 95
GlyphClass: 1
Flags: W
LayerCount: 2
Fore
SplineSet
30 90 m 1,0,-1
 40 90 l 1,1,-1
 40 80 l 1,2,-1
 50 80 l 1,3,-1
 50 90 l 1,4,-1
 60 90 l 1,5,-1
 60 80 l 1,6,-1
 50 80 l 1,7,-1
 50 70 l 1,8,-1
 40 70 l 1,9,-1
 40 60 l 1,10,-1
 60 60 l 1,11,-1
 60 30 l 1,12,-1
 50 30 l 1,13,-1
 50 50 l 1,14,-1
 40 50 l 1,15,-1
 40 30 l 1,16,-1
 50 30 l 1,17,-1
 50 10 l 1,18,-1
 60 10 l 1,19,-1
 60 0 l 1,20,-1
 20 0 l 1,21,-1
 20 10 l 1,22,-1
 10 10 l 1,23,-1
 10 50 l 1,24,-1
 20 50 l 1,25,-1
 20 60 l 1,26,-1
 30 60 l 1,27,-1
 30 90 l 1,28,-1
 30 90 l 1,0,-1
30 50 m 1,29,-1
 20 50 l 1,30,-1
 20 10 l 1,31,-1
 30 10 l 1,32,-1
 30 50 l 1,29,-1
EndSplineSet
EndChar

StartChar: uni01C8
Encoding: 456 456 217
Width: 60
VWidth: 95
GlyphClass: 1
Flags: W
LayerCount: 2
Fore
SplineSet
10 90 m 1,0,-1
 20 90 l 1,1,-1
 20 30 l 1,2,-1
 40 30 l 1,3,-1
 40 20 l 1,4,-1
 10 20 l 1,5,-1
 10 90 l 1,6,-1
 10 90 l 1,0,-1
50 90 m 1,7,-1
 60 90 l 1,8,-1
 60 80 l 1,9,-1
 50 80 l 1,10,-1
 50 90 l 1,7,-1
40 70 m 1,11,-1
 60 70 l 1,12,-1
 60 10 l 1,13,-1
 50 10 l 1,14,-1
 50 60 l 1,15,-1
 40 60 l 1,16,-1
 40 70 l 1,11,-1
30 10 m 1,17,-1
 50 10 l 1,18,-1
 50 0 l 1,19,-1
 30 0 l 1,20,-1
 30 10 l 1,21,-1
 30 10 l 1,17,-1
EndSplineSet
EndChar

StartChar: uni01C9
Encoding: 457 457 218
Width: 60
VWidth: 95
GlyphClass: 1
Flags: W
LayerCount: 2
Fore
SplineSet
10 90 m 1,0,-1
 30 90 l 1,1,-1
 30 30 l 1,2,-1
 40 30 l 1,3,-1
 40 20 l 1,4,-1
 10 20 l 1,5,-1
 10 30 l 1,6,-1
 20 30 l 1,7,-1
 20 80 l 1,8,-1
 10 80 l 1,9,-1
 10 90 l 1,10,-1
 10 90 l 1,0,-1
50 90 m 1,11,-1
 60 90 l 1,12,-1
 60 80 l 1,13,-1
 50 80 l 1,14,-1
 50 90 l 1,11,-1
40 70 m 1,15,-1
 60 70 l 1,16,-1
 60 10 l 1,17,-1
 50 10 l 1,18,-1
 50 60 l 1,19,-1
 40 60 l 1,20,-1
 40 70 l 1,15,-1
30 10 m 1,21,-1
 50 10 l 1,22,-1
 50 0 l 1,23,-1
 30 0 l 1,24,-1
 30 10 l 1,25,-1
 30 10 l 1,21,-1
EndSplineSet
EndChar

StartChar: uni01CB
Encoding: 459 459 219
Width: 60
VWidth: 95
GlyphClass: 1
Flags: W
LayerCount: 2
Fore
SplineSet
10 90 m 1,0,-1
 20 90 l 1,1,-1
 20 80 l 1,2,-1
 30 80 l 1,3,-1
 30 70 l 1,4,-1
 20 70 l 1,5,-1
 20 40 l 1,6,-1
 10 40 l 1,7,-1
 10 90 l 1,8,-1
 10 90 l 1,0,-1
40 90 m 1,9,-1
 50 90 l 1,10,-1
 50 60 l 1,11,-1
 60 60 l 1,12,-1
 60 50 l 1,13,-1
 50 50 l 1,14,-1
 50 40 l 1,15,-1
 40 40 l 1,16,-1
 40 60 l 1,17,-1
 30 60 l 1,18,-1
 30 70 l 1,19,-1
 40 70 l 1,20,-1
 40 90 l 1,21,-1
 40 90 l 1,9,-1
50 40 m 1,22,-1
 60 40 l 1,23,-1
 60 10 l 1,24,-1
 50 10 l 1,25,-1
 50 40 l 1,26,-1
 50 40 l 1,22,-1
30 10 m 1,27,-1
 50 10 l 1,28,-1
 50 0 l 1,29,-1
 30 0 l 1,30,-1
 30 10 l 1,31,-1
 30 10 l 1,27,-1
EndSplineSet
EndChar

StartChar: uni01CC
Encoding: 460 460 220
Width: 60
VWidth: 95
GlyphClass: 1
Flags: W
LayerCount: 2
Fore
SplineSet
50 90 m 1,0,-1
 60 90 l 1,1,-1
 60 80 l 1,2,-1
 50 80 l 1,3,-1
 50 90 l 1,0,-1
10 70 m 1,4,-1
 30 70 l 1,5,-1
 30 60 l 1,6,-1
 20 60 l 1,7,-1
 20 20 l 1,8,-1
 10 20 l 1,9,-1
 10 70 l 1,10,-1
 10 70 l 1,4,-1
50 70 m 1,11,-1
 60 70 l 1,12,-1
 60 10 l 1,13,-1
 50 10 l 1,14,-1
 50 70 l 1,11,-1
30 60 m 1,15,-1
 40 60 l 1,16,-1
 40 20 l 1,17,-1
 30 20 l 1,18,-1
 30 60 l 1,19,-1
 30 60 l 1,15,-1
30 10 m 1,20,-1
 50 10 l 1,21,-1
 50 0 l 1,22,-1
 30 0 l 1,23,-1
 30 10 l 1,24,-1
 30 10 l 1,20,-1
EndSplineSet
EndChar

StartChar: uni026A
Encoding: 618 618 221
Width: 60
VWidth: 95
GlyphClass: 1
Flags: W
LayerCount: 2
Fore
SplineSet
20 60 m 1,0,-1
 50 60 l 1,1,-1
 50 50 l 1,2,-1
 40 50 l 1,3,-1
 40 10 l 1,4,-1
 50 10 l 1,5,-1
 50 0 l 1,6,-1
 20 0 l 1,7,-1
 20 10 l 1,8,-1
 30 10 l 1,9,-1
 30 50 l 1,10,-1
 20 50 l 1,11,-1
 20 60 l 1,12,-1
 20 60 l 1,0,-1
EndSplineSet
EndChar

StartChar: uni0274
Encoding: 628 628 222
Width: 60
VWidth: 95
GlyphClass: 1
Flags: W
LayerCount: 2
Fore
SplineSet
10 60 m 1,0,-1
 20 60 l 1,1,-1
 20 50 l 1,2,-1
 30 50 l 1,3,-1
 30 40 l 1,4,-1
 20 40 l 1,5,-1
 20 0 l 1,6,-1
 10 0 l 1,7,-1
 10 60 l 1,8,-1
 10 60 l 1,0,-1
50 60 m 1,9,-1
 60 60 l 1,10,-1
 60 0 l 1,11,-1
 50 0 l 1,12,-1
 50 20 l 1,13,-1
 40 20 l 1,14,-1
 40 30 l 1,15,-1
 30 30 l 1,16,-1
 30 40 l 1,17,-1
 40 40 l 1,18,-1
 40 30 l 1,19,-1
 50 30 l 1,20,-1
 50 60 l 1,21,-1
 50 60 l 1,9,-1
EndSplineSet
EndChar

StartChar: uni0299
Encoding: 665 665 223
Width: 60
VWidth: 95
GlyphClass: 1
Flags: W
LayerCount: 2
Fore
SplineSet
10 60 m 1,0,-1
 50 60 l 1,1,-1
 50 50 l 1,2,-1
 20 50 l 1,3,-1
 20 40 l 1,4,-1
 50 40 l 1,5,-1
 50 50 l 1,6,-1
 60 50 l 1,7,-1
 60 40 l 1,8,-1
 50 40 l 1,9,-1
 50 30 l 1,10,-1
 20 30 l 1,11,-1
 20 10 l 1,12,-1
 50 10 l 1,13,-1
 50 30 l 1,14,-1
 60 30 l 1,15,-1
 60 10 l 1,16,-1
 50 10 l 1,17,-1
 50 0 l 1,18,-1
 10 0 l 1,19,-1
 10 60 l 1,20,-1
 10 60 l 1,0,-1
EndSplineSet
EndChar

StartChar: uni02B3
Encoding: 691 691 224
Width: 60
VWidth: 95
GlyphClass: 1
Flags: W
LayerCount: 2
Fore
SplineSet
10 90 m 1,0,-1
 20 90 l 1,1,-1
 20 80 l 1,2,-1
 30 80 l 1,3,-1
 30 90 l 1,4,-1
 50 90 l 1,5,-1
 50 80 l 1,6,-1
 30 80 l 1,7,-1
 30 70 l 1,8,-1
 20 70 l 1,9,-1
 20 40 l 1,10,-1
 10 40 l 1,11,-1
 10 90 l 1,12,-1
 10 90 l 1,0,-1
EndSplineSet
EndChar

StartChar: uni0401
Encoding: 1025 1025 225
Width: 60
VWidth: 95
GlyphClass: 1
Flags: W
LayerCount: 2
Fore
SplineSet
20 90 m 1,0,-1
 30 90 l 1,1,-1
 30 80 l 1,2,-1
 40 80 l 1,3,-1
 40 90 l 1,4,-1
 50 90 l 1,5,-1
 50 80 l 1,6,-1
 60 80 l 1,7,-1
 60 70 l 1,8,-1
 20 70 l 1,9,-1
 20 50 l 1,10,-1
 50 50 l 1,11,-1
 50 40 l 1,12,-1
 20 40 l 1,13,-1
 20 10 l 1,14,-1
 60 10 l 1,15,-1
 60 0 l 1,16,-1
 10 0 l 1,17,-1
 10 80 l 1,18,-1
 20 80 l 1,19,-1
 20 90 l 1,20,-1
 20 90 l 1,0,-1
EndSplineSet
EndChar

StartChar: uni0402
Encoding: 1026 1026 226
Width: 60
VWidth: 95
GlyphClass: 1
Flags: W
LayerCount: 2
Fore
SplineSet
10 90 m 1,0,-1
 50 90 l 1,1,-1
 50 80 l 1,2,-1
 30 80 l 1,3,-1
 30 60 l 1,4,-1
 50 60 l 1,5,-1
 50 50 l 1,6,-1
 30 50 l 1,7,-1
 30 0 l 1,8,-1
 20 0 l 1,9,-1
 20 80 l 1,10,-1
 10 80 l 1,11,-1
 10 90 l 1,12,-1
 10 90 l 1,0,-1
50 50 m 1,13,-1
 60 50 l 1,14,-1
 60 10 l 1,15,-1
 50 10 l 1,16,-1
 50 50 l 1,13,-1
40 10 m 1,17,-1
 50 10 l 1,18,-1
 50 0 l 1,19,-1
 40 0 l 1,20,-1
 40 10 l 1,17,-1
EndSplineSet
EndChar

StartChar: uni0408
Encoding: 1032 1032 227
Width: 60
VWidth: 95
GlyphClass: 1
Flags: W
LayerCount: 2
Fore
SplineSet
40 90 m 1,0,-1
 50 90 l 1,1,-1
 50 10 l 1,2,-1
 40 10 l 1,3,-1
 40 90 l 1,0,-1
10 10 m 1,4,-1
 40 10 l 1,5,-1
 40 0 l 1,6,-1
 10 0 l 1,7,-1
 10 10 l 1,8,-1
 10 10 l 1,4,-1
EndSplineSet
EndChar

StartChar: uni0409
Encoding: 1033 1033 228
Width: 60
VWidth: 95
GlyphClass: 1
Flags: W
LayerCount: 2
Fore
SplineSet
10 90 m 1,0,-1
 40 90 l 1,1,-1
 40 50 l 1,2,-1
 50 50 l 1,3,-1
 50 40 l 1,4,-1
 40 40 l 1,5,-1
 40 10 l 1,6,-1
 50 10 l 1,7,-1
 50 40 l 1,8,-1
 60 40 l 1,9,-1
 60 10 l 1,10,-1
 50 10 l 1,11,-1
 50 0 l 1,12,-1
 30 0 l 1,13,-1
 30 80 l 1,14,-1
 20 80 l 1,15,-1
 20 0 l 1,16,-1
 10 0 l 1,17,-1
 10 90 l 1,18,-1
 10 90 l 1,0,-1
EndSplineSet
EndChar

StartChar: uni040A
Encoding: 1034 1034 229
Width: 60
VWidth: 95
GlyphClass: 1
Flags: W
LayerCount: 2
Fore
SplineSet
10 90 m 1,0,-1
 20 90 l 1,1,-1
 20 50 l 1,2,-1
 30 50 l 1,3,-1
 30 90 l 1,4,-1
 40 90 l 1,5,-1
 40 50 l 1,6,-1
 50 50 l 1,7,-1
 50 40 l 1,8,-1
 40 40 l 1,9,-1
 40 10 l 1,10,-1
 50 10 l 1,11,-1
 50 40 l 1,12,-1
 60 40 l 1,13,-1
 60 10 l 1,14,-1
 50 10 l 1,15,-1
 50 0 l 1,16,-1
 30 0 l 1,17,-1
 30 40 l 1,18,-1
 20 40 l 1,19,-1
 20 0 l 1,20,-1
 10 0 l 1,21,-1
 10 90 l 1,22,-1
 10 90 l 1,0,-1
EndSplineSet
EndChar

StartChar: uni040B
Encoding: 1035 1035 230
Width: 60
VWidth: 95
GlyphClass: 1
Flags: W
LayerCount: 2
Fore
SplineSet
10 90 m 1,0,-1
 50 90 l 1,1,-1
 50 80 l 1,2,-1
 30 80 l 1,3,-1
 30 50 l 1,4,-1
 50 50 l 1,5,-1
 50 40 l 1,6,-1
 30 40 l 1,7,-1
 30 0 l 1,8,-1
 20 0 l 1,9,-1
 20 80 l 1,10,-1
 10 80 l 1,11,-1
 10 90 l 1,12,-1
 10 90 l 1,0,-1
50 40 m 1,13,-1
 60 40 l 1,14,-1
 60 0 l 1,15,-1
 50 0 l 1,16,-1
 50 40 l 1,13,-1
EndSplineSet
EndChar

StartChar: uni040F
Encoding: 1039 1039 231
Width: 60
VWidth: 95
GlyphClass: 1
Flags: W
LayerCount: 2
Fore
SplineSet
10 90 m 1,0,-1
 20 90 l 1,1,-1
 20 20 l 1,2,-1
 50 20 l 1,3,-1
 50 90 l 1,4,-1
 60 90 l 1,5,-1
 60 10 l 1,6,-1
 40 10 l 1,7,-1
 40 0 l 1,8,-1
 30 0 l 1,9,-1
 30 10 l 1,10,-1
 10 10 l 1,11,-1
 10 90 l 1,12,-1
 10 90 l 1,0,-1
EndSplineSet
EndChar

StartChar: uni0410
Encoding: 1040 1040 232
Width: 60
VWidth: 95
GlyphClass: 1
Flags: W
LayerCount: 2
Fore
SplineSet
30 90 m 1,0,-1
 40 90 l 1,1,-1
 40 80 l 1,2,-1
 30 80 l 1,3,-1
 30 90 l 1,0,-1
20 80 m 1,4,-1
 30 80 l 1,5,-1
 30 60 l 1,6,-1
 20 60 l 1,7,-1
 20 80 l 1,8,-1
 20 80 l 1,4,-1
40 80 m 1,9,-1
 50 80 l 1,10,-1
 50 60 l 1,11,-1
 40 60 l 1,12,-1
 40 80 l 1,9,-1
10 60 m 1,13,-1
 20 60 l 1,14,-1
 20 40 l 1,15,-1
 50 40 l 1,16,-1
 50 60 l 1,17,-1
 60 60 l 1,18,-1
 60 0 l 1,19,-1
 50 0 l 1,20,-1
 50 30 l 1,21,-1
 20 30 l 1,22,-1
 20 0 l 1,23,-1
 10 0 l 1,24,-1
 10 60 l 1,25,-1
 10 60 l 1,13,-1
EndSplineSet
EndChar

StartChar: uni0411
Encoding: 1041 1041 233
Width: 60
VWidth: 95
GlyphClass: 1
Flags: W
LayerCount: 2
Fore
SplineSet
10 90 m 1,0,-1
 60 90 l 1,1,-1
 60 80 l 1,2,-1
 20 80 l 1,3,-1
 20 50 l 1,4,-1
 50 50 l 1,5,-1
 50 40 l 1,6,-1
 20 40 l 1,7,-1
 20 10 l 1,8,-1
 50 10 l 1,9,-1
 50 40 l 1,10,-1
 60 40 l 1,11,-1
 60 10 l 1,12,-1
 50 10 l 1,13,-1
 50 0 l 1,14,-1
 10 0 l 1,15,-1
 10 90 l 1,16,-1
 10 90 l 1,0,-1
EndSplineSet
EndChar

StartChar: uni0412
Encoding: 1042 1042 234
Width: 60
VWidth: 95
GlyphClass: 1
Flags: W
LayerCount: 2
Fore
SplineSet
10 90 m 1,0,-1
 50 90 l 1,1,-1
 50 80 l 1,2,-1
 20 80 l 1,3,-1
 20 50 l 1,4,-1
 50 50 l 1,5,-1
 50 80 l 1,6,-1
 60 80 l 1,7,-1
 60 50 l 1,8,-1
 50 50 l 1,9,-1
 50 40 l 1,10,-1
 20 40 l 1,11,-1
 20 10 l 1,12,-1
 50 10 l 1,13,-1
 50 40 l 1,14,-1
 60 40 l 1,15,-1
 60 10 l 1,16,-1
 50 10 l 1,17,-1
 50 0 l 1,18,-1
 10 0 l 1,19,-1
 10 90 l 1,20,-1
 10 90 l 1,0,-1
EndSplineSet
EndChar

StartChar: uni0413
Encoding: 1043 1043 235
Width: 60
VWidth: 95
GlyphClass: 1
Flags: W
LayerCount: 2
Fore
SplineSet
10 90 m 1,0,-1
 60 90 l 1,1,-1
 60 80 l 1,2,-1
 20 80 l 1,3,-1
 20 0 l 1,4,-1
 10 0 l 1,5,-1
 10 90 l 1,6,-1
 10 90 l 1,0,-1
EndSplineSet
EndChar

StartChar: uni0414
Encoding: 1044 1044 236
Width: 60
VWidth: 95
GlyphClass: 1
Flags: W
LayerCount: 2
Fore
SplineSet
20 90 m 1,0,-1
 50 90 l 1,1,-1
 50 20 l 1,2,-1
 60 20 l 1,3,-1
 60 0 l 1,4,-1
 50 0 l 1,5,-1
 50 10 l 1,6,-1
 20 10 l 1,7,-1
 20 0 l 1,8,-1
 10 0 l 1,9,-1
 10 40 l 1,10,-1
 20 40 l 1,11,-1
 20 90 l 1,12,-1
 20 90 l 1,0,-1
40 80 m 1,13,-1
 30 80 l 1,14,-1
 30 40 l 1,15,-1
 20 40 l 1,16,-1
 20 20 l 1,17,-1
 40 20 l 1,18,-1
 40 80 l 1,13,-1
EndSplineSet
EndChar

StartChar: uni0415
Encoding: 1045 1045 237
Width: 60
VWidth: 95
GlyphClass: 1
Flags: W
LayerCount: 2
Fore
SplineSet
10 90 m 1,0,-1
 60 90 l 1,1,-1
 60 80 l 1,2,-1
 20 80 l 1,3,-1
 20 50 l 1,4,-1
 50 50 l 1,5,-1
 50 40 l 1,6,-1
 20 40 l 1,7,-1
 20 10 l 1,8,-1
 60 10 l 1,9,-1
 60 0 l 1,10,-1
 10 0 l 1,11,-1
 10 90 l 1,12,-1
 10 90 l 1,0,-1
EndSplineSet
EndChar

StartChar: uni0416
Encoding: 1046 1046 238
Width: 60
VWidth: 95
GlyphClass: 1
Flags: W
LayerCount: 2
Fore
SplineSet
10 90 m 1,0,-1
 20 90 l 1,1,-1
 20 50 l 1,2,-1
 10 50 l 1,3,-1
 10 90 l 1,0,-1
30 90 m 1,4,-1
 40 90 l 1,5,-1
 40 50 l 1,6,-1
 50 50 l 1,7,-1
 50 90 l 1,8,-1
 60 90 l 1,9,-1
 60 50 l 1,10,-1
 50 50 l 1,11,-1
 50 40 l 1,12,-1
 40 40 l 1,13,-1
 40 0 l 1,14,-1
 30 0 l 1,15,-1
 30 40 l 1,16,-1
 20 40 l 1,17,-1
 20 50 l 1,18,-1
 30 50 l 1,19,-1
 30 90 l 1,20,-1
 30 90 l 1,4,-1
10 40 m 1,21,-1
 20 40 l 1,22,-1
 20 0 l 1,23,-1
 10 0 l 1,24,-1
 10 40 l 1,21,-1
50 40 m 1,25,-1
 60 40 l 1,26,-1
 60 0 l 1,27,-1
 50 0 l 1,28,-1
 50 40 l 1,25,-1
EndSplineSet
EndChar

StartChar: uni0417
Encoding: 1047 1047 239
Width: 60
VWidth: 95
GlyphClass: 1
Flags: W
LayerCount: 2
Fore
SplineSet
20 90 m 1,0,-1
 50 90 l 1,1,-1
 50 80 l 1,2,-1
 20 80 l 1,3,-1
 20 90 l 1,4,-1
 20 90 l 1,0,-1
10 80 m 1,5,-1
 20 80 l 1,6,-1
 20 70 l 1,7,-1
 10 70 l 1,8,-1
 10 80 l 1,5,-1
50 80 m 1,9,-1
 60 80 l 1,10,-1
 60 50 l 1,11,-1
 50 50 l 1,12,-1
 50 80 l 1,9,-1
20 50 m 1,13,-1
 50 50 l 1,14,-1
 50 40 l 1,15,-1
 20 40 l 1,16,-1
 20 50 l 1,17,-1
 20 50 l 1,13,-1
50 40 m 1,18,-1
 60 40 l 1,19,-1
 60 10 l 1,20,-1
 50 10 l 1,21,-1
 50 40 l 1,22,-1
 50 40 l 1,18,-1
10 20 m 1,23,-1
 20 20 l 1,24,-1
 20 10 l 1,25,-1
 10 10 l 1,26,-1
 10 20 l 1,23,-1
20 10 m 1,27,-1
 50 10 l 1,28,-1
 50 0 l 1,29,-1
 20 0 l 1,30,-1
 20 10 l 1,31,-1
 20 10 l 1,27,-1
EndSplineSet
EndChar

StartChar: uni0418
Encoding: 1048 1048 240
Width: 60
VWidth: 95
GlyphClass: 1
Flags: W
LayerCount: 2
Fore
SplineSet
10 90 m 1,0,-1
 20 90 l 1,1,-1
 20 40 l 1,2,-1
 30 40 l 1,3,-1
 30 60 l 1,4,-1
 40 60 l 1,5,-1
 40 80 l 1,6,-1
 50 80 l 1,7,-1
 50 90 l 1,8,-1
 60 90 l 1,9,-1
 60 0 l 1,10,-1
 50 0 l 1,11,-1
 50 60 l 1,12,-1
 40 60 l 1,13,-1
 40 40 l 1,14,-1
 30 40 l 1,15,-1
 30 20 l 1,16,-1
 20 20 l 1,17,-1
 20 0 l 1,18,-1
 10 0 l 1,19,-1
 10 90 l 1,20,-1
 10 90 l 1,0,-1
EndSplineSet
EndChar

StartChar: uni0419
Encoding: 1049 1049 241
Width: 60
VWidth: 95
GlyphClass: 1
Flags: W
LayerCount: 2
Fore
SplineSet
20 90 m 1,0,-1
 30 90 l 1,1,-1
 30 80 l 1,2,-1
 40 80 l 1,3,-1
 40 90 l 1,4,-1
 50 90 l 1,5,-1
 50 70 l 1,6,-1
 20 70 l 1,7,-1
 20 90 l 1,8,-1
 20 90 l 1,0,-1
10 70 m 1,9,-1
 20 70 l 1,10,-1
 20 30 l 1,11,-1
 30 30 l 1,12,-1
 30 40 l 1,13,-1
 40 40 l 1,14,-1
 40 60 l 1,15,-1
 50 60 l 1,16,-1
 50 70 l 1,17,-1
 60 70 l 1,18,-1
 60 0 l 1,19,-1
 50 0 l 1,20,-1
 50 40 l 1,21,-1
 40 40 l 1,22,-1
 40 30 l 1,23,-1
 30 30 l 1,24,-1
 30 10 l 1,25,-1
 20 10 l 1,26,-1
 20 0 l 1,27,-1
 10 0 l 1,28,-1
 10 70 l 1,29,-1
 10 70 l 1,9,-1
EndSplineSet
EndChar

StartChar: uni041A
Encoding: 1050 1050 242
Width: 60
VWidth: 95
GlyphClass: 1
Flags: W
LayerCount: 2
Fore
SplineSet
10 90 m 1,0,-1
 20 90 l 1,1,-1
 20 50 l 1,2,-1
 30 50 l 1,3,-1
 30 60 l 1,4,-1
 40 60 l 1,5,-1
 40 80 l 1,6,-1
 50 80 l 1,7,-1
 50 90 l 1,8,-1
 60 90 l 1,9,-1
 60 80 l 1,10,-1
 50 80 l 1,11,-1
 50 60 l 1,12,-1
 40 60 l 1,13,-1
 40 50 l 1,14,-1
 30 50 l 1,15,-1
 30 40 l 1,16,-1
 20 40 l 1,17,-1
 20 0 l 1,18,-1
 10 0 l 1,19,-1
 10 90 l 1,20,-1
 10 90 l 1,0,-1
30 40 m 1,21,-1
 40 40 l 1,22,-1
 40 30 l 1,23,-1
 30 30 l 1,24,-1
 30 40 l 1,21,-1
40 30 m 1,25,-1
 50 30 l 1,26,-1
 50 10 l 1,27,-1
 40 10 l 1,28,-1
 40 30 l 1,25,-1
50 10 m 1,29,-1
 60 10 l 1,30,-1
 60 0 l 1,31,-1
 50 0 l 1,32,-1
 50 10 l 1,29,-1
EndSplineSet
EndChar

StartChar: uni041B
Encoding: 1051 1051 243
Width: 60
VWidth: 95
GlyphClass: 1
Flags: W
LayerCount: 2
Fore
SplineSet
20 90 m 1,0,-1
 60 90 l 1,1,-1
 60 0 l 1,2,-1
 50 0 l 1,3,-1
 50 80 l 1,4,-1
 30 80 l 1,5,-1
 30 20 l 1,6,-1
 20 20 l 1,7,-1
 20 90 l 1,8,-1
 20 90 l 1,0,-1
10 20 m 1,9,-1
 20 20 l 1,10,-1
 20 0 l 1,11,-1
 10 0 l 1,12,-1
 10 20 l 1,9,-1
EndSplineSet
EndChar

StartChar: uni041C
Encoding: 1052 1052 244
Width: 60
VWidth: 95
GlyphClass: 1
Flags: W
LayerCount: 2
Fore
SplineSet
10 90 m 1,0,-1
 20 90 l 1,1,-1
 20 70 l 1,2,-1
 30 70 l 1,3,-1
 30 40 l 1,4,-1
 20 40 l 1,5,-1
 20 0 l 1,6,-1
 10 0 l 1,7,-1
 10 90 l 1,8,-1
 10 90 l 1,0,-1
50 90 m 1,9,-1
 60 90 l 1,10,-1
 60 0 l 1,11,-1
 50 0 l 1,12,-1
 50 40 l 1,13,-1
 40 40 l 1,14,-1
 40 70 l 1,15,-1
 50 70 l 1,16,-1
 50 90 l 1,9,-1
30 40 m 1,17,-1
 40 40 l 1,18,-1
 40 10 l 1,19,-1
 30 10 l 1,20,-1
 30 40 l 1,21,-1
 30 40 l 1,17,-1
EndSplineSet
EndChar

StartChar: uni041D
Encoding: 1053 1053 245
Width: 60
VWidth: 95
GlyphClass: 1
Flags: W
LayerCount: 2
Fore
SplineSet
10 90 m 1,0,-1
 20 90 l 1,1,-1
 20 50 l 1,2,-1
 50 50 l 1,3,-1
 50 90 l 1,4,-1
 60 90 l 1,5,-1
 60 0 l 1,6,-1
 50 0 l 1,7,-1
 50 40 l 1,8,-1
 20 40 l 1,9,-1
 20 0 l 1,10,-1
 10 0 l 1,11,-1
 10 90 l 1,12,-1
 10 90 l 1,0,-1
EndSplineSet
EndChar

StartChar: uni041E
Encoding: 1054 1054 246
Width: 60
VWidth: 95
GlyphClass: 1
Flags: W
LayerCount: 2
Fore
SplineSet
20 90 m 1,0,-1
 50 90 l 1,1,-1
 50 80 l 1,2,-1
 20 80 l 1,3,-1
 20 90 l 1,4,-1
 20 90 l 1,0,-1
10 80 m 1,5,-1
 20 80 l 1,6,-1
 20 10 l 1,7,-1
 10 10 l 1,8,-1
 10 80 l 1,5,-1
50 80 m 1,9,-1
 60 80 l 1,10,-1
 60 10 l 1,11,-1
 50 10 l 1,12,-1
 50 80 l 1,9,-1
20 10 m 1,13,-1
 50 10 l 1,14,-1
 50 0 l 1,15,-1
 20 0 l 1,16,-1
 20 10 l 1,17,-1
 20 10 l 1,13,-1
EndSplineSet
EndChar

StartChar: uni041F
Encoding: 1055 1055 247
Width: 60
VWidth: 95
GlyphClass: 1
Flags: W
LayerCount: 2
Fore
SplineSet
10 90 m 1,0,-1
 60 90 l 1,1,-1
 60 0 l 1,2,-1
 50 0 l 1,3,-1
 50 80 l 1,4,-1
 20 80 l 1,5,-1
 20 0 l 1,6,-1
 10 0 l 1,7,-1
 10 90 l 1,8,-1
 10 90 l 1,0,-1
EndSplineSet
EndChar

StartChar: uni0420
Encoding: 1056 1056 248
Width: 60
VWidth: 95
GlyphClass: 1
Flags: W
LayerCount: 2
Fore
SplineSet
10 90 m 1,0,-1
 50 90 l 1,1,-1
 50 80 l 1,2,-1
 20 80 l 1,3,-1
 20 50 l 1,4,-1
 50 50 l 1,5,-1
 50 80 l 1,6,-1
 60 80 l 1,7,-1
 60 50 l 1,8,-1
 50 50 l 1,9,-1
 50 40 l 1,10,-1
 20 40 l 1,11,-1
 20 0 l 1,12,-1
 10 0 l 1,13,-1
 10 90 l 1,14,-1
 10 90 l 1,0,-1
EndSplineSet
EndChar

StartChar: uni0421
Encoding: 1057 1057 249
Width: 60
VWidth: 95
GlyphClass: 1
Flags: W
LayerCount: 2
Fore
SplineSet
20 90 m 1,0,-1
 50 90 l 1,1,-1
 50 80 l 1,2,-1
 20 80 l 1,3,-1
 20 90 l 1,4,-1
 20 90 l 1,0,-1
10 80 m 1,5,-1
 20 80 l 1,6,-1
 20 10 l 1,7,-1
 10 10 l 1,8,-1
 10 80 l 1,5,-1
50 80 m 1,9,-1
 60 80 l 1,10,-1
 60 70 l 1,11,-1
 50 70 l 1,12,-1
 50 80 l 1,9,-1
50 20 m 1,13,-1
 60 20 l 1,14,-1
 60 10 l 1,15,-1
 50 10 l 1,16,-1
 50 20 l 1,13,-1
20 10 m 1,17,-1
 50 10 l 1,18,-1
 50 0 l 1,19,-1
 20 0 l 1,20,-1
 20 10 l 1,21,-1
 20 10 l 1,17,-1
EndSplineSet
EndChar

StartChar: uni0422
Encoding: 1058 1058 250
Width: 60
VWidth: 95
GlyphClass: 1
Flags: W
LayerCount: 2
Fore
SplineSet
10 90 m 1,0,-1
 60 90 l 1,1,-1
 60 80 l 1,2,-1
 40 80 l 1,3,-1
 40 0 l 1,4,-1
 30 0 l 1,5,-1
 30 80 l 1,6,-1
 10 80 l 1,7,-1
 10 90 l 1,8,-1
 10 90 l 1,0,-1
EndSplineSet
EndChar

StartChar: uni0423
Encoding: 1059 1059 251
Width: 60
VWidth: 95
GlyphClass: 1
Flags: W
LayerCount: 2
Fore
SplineSet
10 90 m 1,0,-1
 20 90 l 1,1,-1
 20 60 l 1,2,-1
 10 60 l 1,3,-1
 10 90 l 1,0,-1
50 90 m 1,4,-1
 60 90 l 1,5,-1
 60 60 l 1,6,-1
 50 60 l 1,7,-1
 50 90 l 1,4,-1
20 60 m 1,8,-1
 30 60 l 1,9,-1
 30 30 l 1,10,-1
 20 30 l 1,11,-1
 20 60 l 1,12,-1
 20 60 l 1,8,-1
40 60 m 1,13,-1
 50 60 l 1,14,-1
 50 30 l 1,15,-1
 40 30 l 1,16,-1
 40 60 l 1,13,-1
30 30 m 1,17,-1
 40 30 l 1,18,-1
 40 10 l 1,19,-1
 30 10 l 1,20,-1
 30 30 l 1,17,-1
10 10 m 1,21,-1
 30 10 l 1,22,-1
 30 0 l 1,23,-1
 10 0 l 1,24,-1
 10 10 l 1,25,-1
 10 10 l 1,21,-1
EndSplineSet
EndChar

StartChar: uni0424
Encoding: 1060 1060 252
Width: 60
VWidth: 95
GlyphClass: 1
Flags: W
LayerCount: 2
Fore
SplineSet
30 90 m 1,0,-1
 40 90 l 1,1,-1
 40 80 l 1,2,-1
 50 80 l 1,3,-1
 50 70 l 1,4,-1
 40 70 l 1,5,-1
 40 20 l 1,6,-1
 50 20 l 1,7,-1
 50 70 l 1,8,-1
 60 70 l 1,9,-1
 60 20 l 1,10,-1
 50 20 l 1,11,-1
 50 10 l 1,12,-1
 40 10 l 1,13,-1
 40 0 l 1,14,-1
 30 0 l 1,15,-1
 30 10 l 1,16,-1
 20 10 l 1,17,-1
 20 20 l 1,18,-1
 10 20 l 1,19,-1
 10 70 l 1,20,-1
 20 70 l 1,21,-1
 20 80 l 1,22,-1
 30 80 l 1,23,-1
 30 90 l 1,24,-1
 30 90 l 1,0,-1
30 70 m 1,25,-1
 20 70 l 1,26,-1
 20 20 l 1,27,-1
 30 20 l 1,28,-1
 30 70 l 1,25,-1
EndSplineSet
EndChar

StartChar: uni0425
Encoding: 1061 1061 253
Width: 60
VWidth: 95
GlyphClass: 1
Flags: W
LayerCount: 2
Fore
SplineSet
10 90 m 1,0,-1
 20 90 l 1,1,-1
 20 70 l 1,2,-1
 10 70 l 1,3,-1
 10 90 l 1,0,-1
50 90 m 1,4,-1
 60 90 l 1,5,-1
 60 70 l 1,6,-1
 50 70 l 1,7,-1
 50 90 l 1,4,-1
20 70 m 1,8,-1
 30 70 l 1,9,-1
 30 50 l 1,10,-1
 20 50 l 1,11,-1
 20 70 l 1,12,-1
 20 70 l 1,8,-1
40 70 m 1,13,-1
 50 70 l 1,14,-1
 50 50 l 1,15,-1
 40 50 l 1,16,-1
 40 70 l 1,13,-1
30 50 m 1,17,-1
 40 50 l 1,18,-1
 40 40 l 1,19,-1
 30 40 l 1,20,-1
 30 50 l 1,17,-1
20 40 m 1,21,-1
 30 40 l 1,22,-1
 30 20 l 1,23,-1
 20 20 l 1,24,-1
 20 40 l 1,25,-1
 20 40 l 1,21,-1
40 40 m 1,26,-1
 50 40 l 1,27,-1
 50 20 l 1,28,-1
 40 20 l 1,29,-1
 40 40 l 1,26,-1
10 20 m 1,30,-1
 20 20 l 1,31,-1
 20 0 l 1,32,-1
 10 0 l 1,33,-1
 10 20 l 1,30,-1
50 20 m 1,34,-1
 60 20 l 1,35,-1
 60 0 l 1,36,-1
 50 0 l 1,37,-1
 50 20 l 1,34,-1
EndSplineSet
EndChar

StartChar: uni0426
Encoding: 1062 1062 254
Width: 60
VWidth: 95
GlyphClass: 1
Flags: W
LayerCount: 2
Fore
SplineSet
10 90 m 1,0,-1
 20 90 l 1,1,-1
 20 20 l 1,2,-1
 40 20 l 1,3,-1
 40 90 l 1,4,-1
 50 90 l 1,5,-1
 50 20 l 1,6,-1
 60 20 l 1,7,-1
 60 0 l 1,8,-1
 50 0 l 1,9,-1
 50 10 l 1,10,-1
 10 10 l 1,11,-1
 10 90 l 1,12,-1
 10 90 l 1,0,-1
EndSplineSet
EndChar

StartChar: uni0427
Encoding: 1063 1063 255
Width: 60
VWidth: 95
GlyphClass: 1
Flags: W
LayerCount: 2
Fore
SplineSet
10 90 m 1,0,-1
 20 90 l 1,1,-1
 20 50 l 1,2,-1
 10 50 l 1,3,-1
 10 90 l 1,0,-1
50 90 m 1,4,-1
 60 90 l 1,5,-1
 60 0 l 1,6,-1
 50 0 l 1,7,-1
 50 40 l 1,8,-1
 20 40 l 1,9,-1
 20 50 l 1,10,-1
 50 50 l 1,11,-1
 50 90 l 1,4,-1
EndSplineSet
EndChar

StartChar: uni0428
Encoding: 1064 1064 256
Width: 60
VWidth: 95
GlyphClass: 1
Flags: W
LayerCount: 2
Fore
SplineSet
10 90 m 1,0,-1
 20 90 l 1,1,-1
 20 10 l 1,2,-1
 30 10 l 1,3,-1
 30 90 l 1,4,-1
 40 90 l 1,5,-1
 40 10 l 1,6,-1
 50 10 l 1,7,-1
 50 90 l 1,8,-1
 60 90 l 1,9,-1
 60 0 l 1,10,-1
 10 0 l 1,11,-1
 10 90 l 1,12,-1
 10 90 l 1,0,-1
EndSplineSet
EndChar

StartChar: uni0429
Encoding: 1065 1065 257
Width: 60
VWidth: 95
GlyphClass: 1
Flags: W
LayerCount: 2
Fore
SplineSet
10 90 m 1,0,-1
 20 90 l 1,1,-1
 20 20 l 1,2,-1
 30 20 l 1,3,-1
 30 90 l 1,4,-1
 40 90 l 1,5,-1
 40 20 l 1,6,-1
 50 20 l 1,7,-1
 50 90 l 1,8,-1
 60 90 l 1,9,-1
 60 0 l 1,10,-1
 50 0 l 1,11,-1
 50 10 l 1,12,-1
 10 10 l 1,13,-1
 10 90 l 1,14,-1
 10 90 l 1,0,-1
EndSplineSet
EndChar

StartChar: uni042A
Encoding: 1066 1066 258
Width: 60
VWidth: 95
GlyphClass: 1
Flags: W
LayerCount: 2
Fore
SplineSet
10 90 m 1,0,-1
 30 90 l 1,1,-1
 30 60 l 1,2,-1
 50 60 l 1,3,-1
 50 50 l 1,4,-1
 30 50 l 1,5,-1
 30 10 l 1,6,-1
 50 10 l 1,7,-1
 50 50 l 1,8,-1
 60 50 l 1,9,-1
 60 10 l 1,10,-1
 50 10 l 1,11,-1
 50 0 l 1,12,-1
 20 0 l 1,13,-1
 20 80 l 1,14,-1
 10 80 l 1,15,-1
 10 90 l 1,16,-1
 10 90 l 1,0,-1
EndSplineSet
EndChar

StartChar: uni042B
Encoding: 1067 1067 259
Width: 60
VWidth: 95
GlyphClass: 1
Flags: W
LayerCount: 2
Fore
SplineSet
10 90 m 1,0,-1
 20 90 l 1,1,-1
 20 60 l 1,2,-1
 40 60 l 1,3,-1
 40 50 l 1,4,-1
 20 50 l 1,5,-1
 20 10 l 1,6,-1
 40 10 l 1,7,-1
 40 50 l 1,8,-1
 50 50 l 1,9,-1
 50 90 l 1,10,-1
 60 90 l 1,11,-1
 60 0 l 1,12,-1
 50 0 l 1,13,-1
 50 10 l 1,14,-1
 40 10 l 1,15,-1
 40 0 l 1,16,-1
 10 0 l 1,17,-1
 10 90 l 1,18,-1
 10 90 l 1,0,-1
EndSplineSet
EndChar

StartChar: uni042C
Encoding: 1068 1068 260
Width: 60
VWidth: 95
GlyphClass: 1
Flags: W
LayerCount: 2
Fore
SplineSet
10 90 m 1,0,-1
 20 90 l 1,1,-1
 20 60 l 1,2,-1
 50 60 l 1,3,-1
 50 50 l 1,4,-1
 20 50 l 1,5,-1
 20 10 l 1,6,-1
 50 10 l 1,7,-1
 50 50 l 1,8,-1
 60 50 l 1,9,-1
 60 10 l 1,10,-1
 50 10 l 1,11,-1
 50 0 l 1,12,-1
 10 0 l 1,13,-1
 10 90 l 1,14,-1
 10 90 l 1,0,-1
EndSplineSet
EndChar

StartChar: uni042D
Encoding: 1069 1069 261
Width: 60
VWidth: 95
GlyphClass: 1
Flags: W
LayerCount: 2
Fore
SplineSet
20 90 m 1,0,-1
 50 90 l 1,1,-1
 50 80 l 1,2,-1
 20 80 l 1,3,-1
 20 90 l 1,4,-1
 20 90 l 1,0,-1
10 80 m 1,5,-1
 20 80 l 1,6,-1
 20 70 l 1,7,-1
 10 70 l 1,8,-1
 10 80 l 1,5,-1
50 80 m 1,9,-1
 60 80 l 1,10,-1
 60 10 l 1,11,-1
 50 10 l 1,12,-1
 50 40 l 1,13,-1
 20 40 l 1,14,-1
 20 50 l 1,15,-1
 50 50 l 1,16,-1
 50 80 l 1,17,-1
 50 80 l 1,9,-1
10 20 m 1,18,-1
 20 20 l 1,19,-1
 20 10 l 1,20,-1
 10 10 l 1,21,-1
 10 20 l 1,18,-1
20 10 m 1,22,-1
 50 10 l 1,23,-1
 50 0 l 1,24,-1
 20 0 l 1,25,-1
 20 10 l 1,26,-1
 20 10 l 1,22,-1
EndSplineSet
EndChar

StartChar: uni042E
Encoding: 1070 1070 262
Width: 60
VWidth: 95
GlyphClass: 1
Flags: W
LayerCount: 2
Fore
SplineSet
10 90 m 1,0,-1
 20 90 l 1,1,-1
 20 50 l 1,2,-1
 30 50 l 1,3,-1
 30 80 l 1,4,-1
 40 80 l 1,5,-1
 40 90 l 1,6,-1
 50 90 l 1,7,-1
 50 80 l 1,8,-1
 40 80 l 1,9,-1
 40 10 l 1,10,-1
 30 10 l 1,11,-1
 30 40 l 1,12,-1
 20 40 l 1,13,-1
 20 0 l 1,14,-1
 10 0 l 1,15,-1
 10 90 l 1,16,-1
 10 90 l 1,0,-1
50 80 m 1,17,-1
 60 80 l 1,18,-1
 60 10 l 1,19,-1
 50 10 l 1,20,-1
 50 80 l 1,17,-1
40 10 m 1,21,-1
 50 10 l 1,22,-1
 50 0 l 1,23,-1
 40 0 l 1,24,-1
 40 10 l 1,21,-1
EndSplineSet
EndChar

StartChar: uni042F
Encoding: 1071 1071 263
Width: 60
VWidth: 95
GlyphClass: 1
Flags: W
LayerCount: 2
Fore
SplineSet
20 90 m 1,0,-1
 60 90 l 1,1,-1
 60 0 l 1,2,-1
 50 0 l 1,3,-1
 50 40 l 1,4,-1
 40 40 l 1,5,-1
 40 30 l 1,6,-1
 30 30 l 1,7,-1
 30 40 l 1,8,-1
 20 40 l 1,9,-1
 20 50 l 1,10,-1
 10 50 l 1,11,-1
 10 80 l 1,12,-1
 20 80 l 1,13,-1
 20 90 l 1,14,-1
 20 90 l 1,0,-1
30 80 m 1,15,-1
 20 80 l 1,16,-1
 20 50 l 1,17,-1
 50 50 l 1,18,-1
 50 80 l 1,19,-1
 30 80 l 1,20,-1
 30 80 l 1,15,-1
20 30 m 1,21,-1
 30 30 l 1,22,-1
 30 10 l 1,23,-1
 20 10 l 1,24,-1
 20 30 l 1,25,-1
 20 30 l 1,21,-1
10 10 m 1,26,-1
 20 10 l 1,27,-1
 20 0 l 1,28,-1
 10 0 l 1,29,-1
 10 10 l 1,26,-1
EndSplineSet
EndChar

StartChar: uni0430
Encoding: 1072 1072 264
Width: 60
VWidth: 95
GlyphClass: 1
Flags: W
LayerCount: 2
Fore
SplineSet
20 70 m 1,0,-1
 50 70 l 1,1,-1
 50 60 l 1,2,-1
 20 60 l 1,3,-1
 20 70 l 1,4,-1
 20 70 l 1,0,-1
50 60 m 1,5,-1
 60 60 l 1,6,-1
 60 0 l 1,7,-1
 20 0 l 1,8,-1
 20 10 l 1,9,-1
 10 10 l 1,10,-1
 10 40 l 1,11,-1
 20 40 l 1,12,-1
 20 50 l 1,13,-1
 50 50 l 1,14,-1
 50 60 l 1,15,-1
 50 60 l 1,5,-1
30 40 m 1,16,-1
 20 40 l 1,17,-1
 20 10 l 1,18,-1
 50 10 l 1,19,-1
 50 40 l 1,20,-1
 30 40 l 1,21,-1
 30 40 l 1,16,-1
EndSplineSet
EndChar

StartChar: uni0431
Encoding: 1073 1073 265
Width: 60
VWidth: 95
GlyphClass: 1
Flags: W
LayerCount: 2
Fore
SplineSet
40 90 m 1,0,-1
 50 90 l 1,1,-1
 50 80 l 1,2,-1
 40 80 l 1,3,-1
 40 90 l 1,0,-1
20 80 m 1,4,-1
 40 80 l 1,5,-1
 40 70 l 1,6,-1
 20 70 l 1,7,-1
 20 80 l 1,4,-1
10 70 m 1,8,-1
 20 70 l 1,9,-1
 20 60 l 1,10,-1
 50 60 l 1,11,-1
 50 50 l 1,12,-1
 20 50 l 1,13,-1
 20 10 l 1,14,-1
 10 10 l 1,15,-1
 10 70 l 1,16,-1
 10 70 l 1,8,-1
50 50 m 1,17,-1
 60 50 l 1,18,-1
 60 10 l 1,19,-1
 50 10 l 1,20,-1
 50 50 l 1,17,-1
20 10 m 1,21,-1
 50 10 l 1,22,-1
 50 0 l 1,23,-1
 20 0 l 1,24,-1
 20 10 l 1,25,-1
 20 10 l 1,21,-1
EndSplineSet
EndChar

StartChar: uni0432
Encoding: 1074 1074 266
Width: 60
VWidth: 95
GlyphClass: 1
Flags: W
LayerCount: 2
Fore
SplineSet
10 70 m 1,0,-1
 50 70 l 1,1,-1
 50 60 l 1,2,-1
 20 60 l 1,3,-1
 20 40 l 1,4,-1
 50 40 l 1,5,-1
 50 60 l 1,6,-1
 60 60 l 1,7,-1
 60 40 l 1,8,-1
 50 40 l 1,9,-1
 50 30 l 1,10,-1
 20 30 l 1,11,-1
 20 10 l 1,12,-1
 50 10 l 1,13,-1
 50 30 l 1,14,-1
 60 30 l 1,15,-1
 60 10 l 1,16,-1
 50 10 l 1,17,-1
 50 0 l 1,18,-1
 10 0 l 1,19,-1
 10 70 l 1,20,-1
 10 70 l 1,0,-1
EndSplineSet
EndChar

StartChar: uni0433
Encoding: 1075 1075 267
Width: 60
VWidth: 95
GlyphClass: 1
Flags: W
LayerCount: 2
Fore
SplineSet
10 70 m 1,0,-1
 60 70 l 1,1,-1
 60 60 l 1,2,-1
 20 60 l 1,3,-1
 20 0 l 1,4,-1
 10 0 l 1,5,-1
 10 70 l 1,6,-1
 10 70 l 1,0,-1
EndSplineSet
EndChar

StartChar: uni0434
Encoding: 1076 1076 268
Width: 60
VWidth: 95
GlyphClass: 1
Flags: W
LayerCount: 2
Fore
SplineSet
20 70 m 1,0,-1
 50 70 l 1,1,-1
 50 20 l 1,2,-1
 60 20 l 1,3,-1
 60 0 l 1,4,-1
 50 0 l 1,5,-1
 50 10 l 1,6,-1
 20 10 l 1,7,-1
 20 70 l 1,8,-1
 20 70 l 1,0,-1
40 60 m 1,9,-1
 30 60 l 1,10,-1
 30 20 l 1,11,-1
 40 20 l 1,12,-1
 40 60 l 1,13,-1
 40 60 l 1,9,-1
10 10 m 1,14,-1
 20 10 l 1,15,-1
 20 0 l 1,16,-1
 10 0 l 1,17,-1
 10 10 l 1,14,-1
EndSplineSet
EndChar

StartChar: uni0435
Encoding: 1077 1077 269
Width: 60
VWidth: 95
GlyphClass: 1
Flags: W
LayerCount: 2
Fore
SplineSet
20 70 m 1,0,-1
 50 70 l 1,1,-1
 50 60 l 1,2,-1
 20 60 l 1,3,-1
 20 70 l 1,4,-1
 20 70 l 1,0,-1
10 60 m 1,5,-1
 20 60 l 1,6,-1
 20 40 l 1,7,-1
 50 40 l 1,8,-1
 50 60 l 1,9,-1
 60 60 l 1,10,-1
 60 30 l 1,11,-1
 20 30 l 1,12,-1
 20 10 l 1,13,-1
 10 10 l 1,14,-1
 10 60 l 1,15,-1
 10 60 l 1,5,-1
50 20 m 1,16,-1
 60 20 l 1,17,-1
 60 10 l 1,18,-1
 50 10 l 1,19,-1
 50 20 l 1,16,-1
20 10 m 1,20,-1
 50 10 l 1,21,-1
 50 0 l 1,22,-1
 20 0 l 1,23,-1
 20 10 l 1,24,-1
 20 10 l 1,20,-1
EndSplineSet
EndChar

StartChar: uni0436
Encoding: 1078 1078 270
Width: 60
VWidth: 95
GlyphClass: 1
Flags: W
LayerCount: 2
Fore
SplineSet
10 70 m 1,0,-1
 20 70 l 1,1,-1
 20 40 l 1,2,-1
 10 40 l 1,3,-1
 10 70 l 1,0,-1
30 70 m 1,4,-1
 40 70 l 1,5,-1
 40 40 l 1,6,-1
 50 40 l 1,7,-1
 50 70 l 1,8,-1
 60 70 l 1,9,-1
 60 40 l 1,10,-1
 50 40 l 1,11,-1
 50 30 l 1,12,-1
 40 30 l 1,13,-1
 40 0 l 1,14,-1
 30 0 l 1,15,-1
 30 30 l 1,16,-1
 20 30 l 1,17,-1
 20 40 l 1,18,-1
 30 40 l 1,19,-1
 30 70 l 1,20,-1
 30 70 l 1,4,-1
10 30 m 1,21,-1
 20 30 l 1,22,-1
 20 0 l 1,23,-1
 10 0 l 1,24,-1
 10 30 l 1,25,-1
 10 30 l 1,21,-1
50 30 m 1,26,-1
 60 30 l 1,27,-1
 60 0 l 1,28,-1
 50 0 l 1,29,-1
 50 30 l 1,30,-1
 50 30 l 1,26,-1
EndSplineSet
EndChar

StartChar: uni0437
Encoding: 1079 1079 271
Width: 60
VWidth: 95
GlyphClass: 1
Flags: W
LayerCount: 2
Fore
SplineSet
20 70 m 1,0,-1
 50 70 l 1,1,-1
 50 60 l 1,2,-1
 20 60 l 1,3,-1
 20 70 l 1,4,-1
 20 70 l 1,0,-1
10 60 m 1,5,-1
 20 60 l 1,6,-1
 20 50 l 1,7,-1
 10 50 l 1,8,-1
 10 60 l 1,5,-1
50 60 m 1,9,-1
 60 60 l 1,10,-1
 60 40 l 1,11,-1
 50 40 l 1,12,-1
 50 60 l 1,13,-1
 50 60 l 1,9,-1
20 40 m 1,14,-1
 50 40 l 1,15,-1
 50 30 l 1,16,-1
 20 30 l 1,17,-1
 20 40 l 1,18,-1
 20 40 l 1,14,-1
50 30 m 1,19,-1
 60 30 l 1,20,-1
 60 10 l 1,21,-1
 50 10 l 1,22,-1
 50 30 l 1,19,-1
10 20 m 1,23,-1
 20 20 l 1,24,-1
 20 10 l 1,25,-1
 10 10 l 1,26,-1
 10 20 l 1,23,-1
20 10 m 1,27,-1
 50 10 l 1,28,-1
 50 0 l 1,29,-1
 20 0 l 1,30,-1
 20 10 l 1,31,-1
 20 10 l 1,27,-1
EndSplineSet
EndChar

StartChar: uni0438
Encoding: 1080 1080 272
Width: 60
VWidth: 95
GlyphClass: 1
Flags: W
LayerCount: 2
Fore
SplineSet
10 70 m 1,0,-1
 20 70 l 1,1,-1
 20 30 l 1,2,-1
 30 30 l 1,3,-1
 30 50 l 1,4,-1
 40 50 l 1,5,-1
 40 60 l 1,6,-1
 50 60 l 1,7,-1
 50 70 l 1,8,-1
 60 70 l 1,9,-1
 60 0 l 1,10,-1
 50 0 l 1,11,-1
 50 50 l 1,12,-1
 40 50 l 1,13,-1
 40 30 l 1,14,-1
 30 30 l 1,15,-1
 30 20 l 1,16,-1
 20 20 l 1,17,-1
 20 0 l 1,18,-1
 10 0 l 1,19,-1
 10 70 l 1,20,-1
 10 70 l 1,0,-1
EndSplineSet
EndChar

StartChar: uni0439
Encoding: 1081 1081 273
Width: 60
VWidth: 95
GlyphClass: 1
Flags: W
LayerCount: 2
Fore
SplineSet
20 90 m 1,0,-1
 30 90 l 1,1,-1
 30 80 l 1,2,-1
 40 80 l 1,3,-1
 40 90 l 1,4,-1
 50 90 l 1,5,-1
 50 70 l 1,6,-1
 20 70 l 1,7,-1
 20 90 l 1,8,-1
 20 90 l 1,0,-1
10 70 m 1,9,-1
 20 70 l 1,10,-1
 20 30 l 1,11,-1
 30 30 l 1,12,-1
 30 50 l 1,13,-1
 40 50 l 1,14,-1
 40 60 l 1,15,-1
 50 60 l 1,16,-1
 50 70 l 1,17,-1
 60 70 l 1,18,-1
 60 0 l 1,19,-1
 50 0 l 1,20,-1
 50 50 l 1,21,-1
 40 50 l 1,22,-1
 40 30 l 1,23,-1
 30 30 l 1,24,-1
 30 20 l 1,25,-1
 20 20 l 1,26,-1
 20 0 l 1,27,-1
 10 0 l 1,28,-1
 10 70 l 1,29,-1
 10 70 l 1,9,-1
EndSplineSet
EndChar

StartChar: uni043A
Encoding: 1082 1082 274
Width: 60
VWidth: 95
GlyphClass: 1
Flags: W
LayerCount: 2
Fore
SplineSet
10 70 m 1,0,-1
 20 70 l 1,1,-1
 20 40 l 1,2,-1
 30 40 l 1,3,-1
 30 50 l 1,4,-1
 40 50 l 1,5,-1
 40 60 l 1,6,-1
 50 60 l 1,7,-1
 50 70 l 1,8,-1
 60 70 l 1,9,-1
 60 60 l 1,10,-1
 50 60 l 1,11,-1
 50 50 l 1,12,-1
 40 50 l 1,13,-1
 40 40 l 1,14,-1
 30 40 l 1,15,-1
 30 30 l 1,16,-1
 20 30 l 1,17,-1
 20 0 l 1,18,-1
 10 0 l 1,19,-1
 10 70 l 1,20,-1
 10 70 l 1,0,-1
30 30 m 1,21,-1
 40 30 l 1,22,-1
 40 20 l 1,23,-1
 30 20 l 1,24,-1
 30 30 l 1,21,-1
40 20 m 1,25,-1
 50 20 l 1,26,-1
 50 10 l 1,27,-1
 40 10 l 1,28,-1
 40 20 l 1,25,-1
50 10 m 1,29,-1
 60 10 l 1,30,-1
 60 0 l 1,31,-1
 50 0 l 1,32,-1
 50 10 l 1,29,-1
EndSplineSet
EndChar

StartChar: uni043B
Encoding: 1083 1083 275
Width: 60
VWidth: 95
GlyphClass: 1
Flags: W
LayerCount: 2
Fore
SplineSet
20 70 m 1,0,-1
 60 70 l 1,1,-1
 60 0 l 1,2,-1
 50 0 l 1,3,-1
 50 60 l 1,4,-1
 30 60 l 1,5,-1
 30 10 l 1,6,-1
 20 10 l 1,7,-1
 20 70 l 1,8,-1
 20 70 l 1,0,-1
10 10 m 1,9,-1
 20 10 l 1,10,-1
 20 0 l 1,11,-1
 10 0 l 1,12,-1
 10 10 l 1,9,-1
EndSplineSet
EndChar

StartChar: uni043C
Encoding: 1084 1084 276
Width: 60
VWidth: 95
GlyphClass: 1
Flags: W
LayerCount: 2
Fore
SplineSet
10 70 m 1,0,-1
 20 70 l 1,1,-1
 20 50 l 1,2,-1
 30 50 l 1,3,-1
 30 30 l 1,4,-1
 20 30 l 1,5,-1
 20 0 l 1,6,-1
 10 0 l 1,7,-1
 10 70 l 1,8,-1
 10 70 l 1,0,-1
50 70 m 1,9,-1
 60 70 l 1,10,-1
 60 0 l 1,11,-1
 50 0 l 1,12,-1
 50 30 l 1,13,-1
 40 30 l 1,14,-1
 40 50 l 1,15,-1
 50 50 l 1,16,-1
 50 70 l 1,17,-1
 50 70 l 1,9,-1
30 30 m 1,18,-1
 40 30 l 1,19,-1
 40 10 l 1,20,-1
 30 10 l 1,21,-1
 30 30 l 1,18,-1
EndSplineSet
EndChar

StartChar: uni043D
Encoding: 1085 1085 277
Width: 60
VWidth: 95
GlyphClass: 1
Flags: W
LayerCount: 2
Fore
SplineSet
10 70 m 1,0,-1
 20 70 l 1,1,-1
 20 40 l 1,2,-1
 50 40 l 1,3,-1
 50 70 l 1,4,-1
 60 70 l 1,5,-1
 60 0 l 1,6,-1
 50 0 l 1,7,-1
 50 30 l 1,8,-1
 20 30 l 1,9,-1
 20 0 l 1,10,-1
 10 0 l 1,11,-1
 10 70 l 1,12,-1
 10 70 l 1,0,-1
EndSplineSet
EndChar

StartChar: uni043E
Encoding: 1086 1086 278
Width: 60
VWidth: 95
GlyphClass: 1
Flags: W
LayerCount: 2
Fore
SplineSet
20 70 m 1,0,-1
 50 70 l 1,1,-1
 50 60 l 1,2,-1
 20 60 l 1,3,-1
 20 70 l 1,4,-1
 20 70 l 1,0,-1
10 60 m 1,5,-1
 20 60 l 1,6,-1
 20 10 l 1,7,-1
 10 10 l 1,8,-1
 10 60 l 1,9,-1
 10 60 l 1,5,-1
50 60 m 1,10,-1
 60 60 l 1,11,-1
 60 10 l 1,12,-1
 50 10 l 1,13,-1
 50 60 l 1,14,-1
 50 60 l 1,10,-1
20 10 m 1,15,-1
 50 10 l 1,16,-1
 50 0 l 1,17,-1
 20 0 l 1,18,-1
 20 10 l 1,19,-1
 20 10 l 1,15,-1
EndSplineSet
EndChar

StartChar: uni043F
Encoding: 1087 1087 279
Width: 60
VWidth: 95
GlyphClass: 1
Flags: W
LayerCount: 2
Fore
SplineSet
10 70 m 1,0,-1
 60 70 l 1,1,-1
 60 0 l 1,2,-1
 50 0 l 1,3,-1
 50 60 l 1,4,-1
 20 60 l 1,5,-1
 20 0 l 1,6,-1
 10 0 l 1,7,-1
 10 70 l 1,8,-1
 10 70 l 1,0,-1
EndSplineSet
EndChar

StartChar: uni0440
Encoding: 1088 1088 280
Width: 60
VWidth: 95
GlyphClass: 1
Flags: W
LayerCount: 2
Fore
SplineSet
10 70 m 1,0,-1
 50 70 l 1,1,-1
 50 60 l 1,2,-1
 20 60 l 1,3,-1
 20 30 l 1,4,-1
 50 30 l 1,5,-1
 50 60 l 1,6,-1
 60 60 l 1,7,-1
 60 30 l 1,8,-1
 50 30 l 1,9,-1
 50 20 l 1,10,-1
 20 20 l 1,11,-1
 20 0 l 1,12,-1
 10 0 l 1,13,-1
 10 70 l 1,14,-1
 10 70 l 1,0,-1
EndSplineSet
EndChar

StartChar: uni0441
Encoding: 1089 1089 281
Width: 60
VWidth: 95
GlyphClass: 1
Flags: W
LayerCount: 2
Fore
SplineSet
20 70 m 1,0,-1
 50 70 l 1,1,-1
 50 60 l 1,2,-1
 20 60 l 1,3,-1
 20 70 l 1,4,-1
 20 70 l 1,0,-1
10 60 m 1,5,-1
 20 60 l 1,6,-1
 20 10 l 1,7,-1
 10 10 l 1,8,-1
 10 60 l 1,9,-1
 10 60 l 1,5,-1
50 60 m 1,10,-1
 60 60 l 1,11,-1
 60 50 l 1,12,-1
 50 50 l 1,13,-1
 50 60 l 1,10,-1
50 20 m 1,14,-1
 60 20 l 1,15,-1
 60 10 l 1,16,-1
 50 10 l 1,17,-1
 50 20 l 1,14,-1
20 10 m 1,18,-1
 50 10 l 1,19,-1
 50 0 l 1,20,-1
 20 0 l 1,21,-1
 20 10 l 1,22,-1
 20 10 l 1,18,-1
EndSplineSet
EndChar

StartChar: uni0442
Encoding: 1090 1090 282
Width: 60
VWidth: 95
GlyphClass: 1
Flags: W
LayerCount: 2
Fore
SplineSet
10 70 m 1,0,-1
 60 70 l 1,1,-1
 60 60 l 1,2,-1
 40 60 l 1,3,-1
 40 0 l 1,4,-1
 30 0 l 1,5,-1
 30 60 l 1,6,-1
 10 60 l 1,7,-1
 10 70 l 1,8,-1
 10 70 l 1,0,-1
EndSplineSet
EndChar

StartChar: uni0443
Encoding: 1091 1091 283
Width: 60
VWidth: 95
GlyphClass: 1
Flags: W
LayerCount: 2
Fore
SplineSet
10 70 m 1,0,-1
 20 70 l 1,1,-1
 20 50 l 1,2,-1
 10 50 l 1,3,-1
 10 70 l 1,0,-1
50 70 m 1,4,-1
 60 70 l 1,5,-1
 60 50 l 1,6,-1
 50 50 l 1,7,-1
 50 70 l 1,4,-1
20 50 m 1,8,-1
 30 50 l 1,9,-1
 30 30 l 1,10,-1
 20 30 l 1,11,-1
 20 50 l 1,12,-1
 20 50 l 1,8,-1
40 50 m 1,13,-1
 50 50 l 1,14,-1
 50 30 l 1,15,-1
 40 30 l 1,16,-1
 40 50 l 1,13,-1
30 30 m 1,17,-1
 40 30 l 1,18,-1
 40 10 l 1,19,-1
 30 10 l 1,20,-1
 30 30 l 1,17,-1
10 10 m 1,21,-1
 30 10 l 1,22,-1
 30 0 l 1,23,-1
 10 0 l 1,24,-1
 10 10 l 1,25,-1
 10 10 l 1,21,-1
EndSplineSet
EndChar

StartChar: uni0444
Encoding: 1092 1092 284
Width: 60
VWidth: 95
GlyphClass: 1
Flags: W
LayerCount: 2
Fore
SplineSet
30 90 m 1,0,-1
 40 90 l 1,1,-1
 40 70 l 1,2,-1
 50 70 l 1,3,-1
 50 60 l 1,4,-1
 40 60 l 1,5,-1
 40 30 l 1,6,-1
 50 30 l 1,7,-1
 50 60 l 1,8,-1
 60 60 l 1,9,-1
 60 30 l 1,10,-1
 50 30 l 1,11,-1
 50 20 l 1,12,-1
 40 20 l 1,13,-1
 40 0 l 1,14,-1
 30 0 l 1,15,-1
 30 20 l 1,16,-1
 20 20 l 1,17,-1
 20 30 l 1,18,-1
 10 30 l 1,19,-1
 10 60 l 1,20,-1
 20 60 l 1,21,-1
 20 70 l 1,22,-1
 30 70 l 1,23,-1
 30 90 l 1,24,-1
 30 90 l 1,0,-1
30 60 m 1,25,-1
 20 60 l 1,26,-1
 20 30 l 1,27,-1
 30 30 l 1,28,-1
 30 60 l 1,25,-1
EndSplineSet
EndChar

StartChar: uni0445
Encoding: 1093 1093 285
Width: 60
VWidth: 95
GlyphClass: 1
Flags: W
LayerCount: 2
Fore
SplineSet
10 70 m 1,0,-1
 20 70 l 1,1,-1
 20 50 l 1,2,-1
 10 50 l 1,3,-1
 10 70 l 1,0,-1
50 70 m 1,4,-1
 60 70 l 1,5,-1
 60 50 l 1,6,-1
 50 50 l 1,7,-1
 50 70 l 1,4,-1
20 50 m 1,8,-1
 30 50 l 1,9,-1
 30 40 l 1,10,-1
 20 40 l 1,11,-1
 20 50 l 1,12,-1
 20 50 l 1,8,-1
40 50 m 1,13,-1
 50 50 l 1,14,-1
 50 40 l 1,15,-1
 40 40 l 1,16,-1
 40 50 l 1,13,-1
30 40 m 1,17,-1
 40 40 l 1,18,-1
 40 30 l 1,19,-1
 30 30 l 1,20,-1
 30 40 l 1,17,-1
20 30 m 1,21,-1
 30 30 l 1,22,-1
 30 20 l 1,23,-1
 20 20 l 1,24,-1
 20 30 l 1,25,-1
 20 30 l 1,21,-1
40 30 m 1,26,-1
 50 30 l 1,27,-1
 50 20 l 1,28,-1
 40 20 l 1,29,-1
 40 30 l 1,26,-1
10 20 m 1,30,-1
 20 20 l 1,31,-1
 20 0 l 1,32,-1
 10 0 l 1,33,-1
 10 20 l 1,30,-1
50 20 m 1,34,-1
 60 20 l 1,35,-1
 60 0 l 1,36,-1
 50 0 l 1,37,-1
 50 20 l 1,34,-1
EndSplineSet
EndChar

StartChar: uni0446
Encoding: 1094 1094 286
Width: 60
VWidth: 95
GlyphClass: 1
Flags: W
LayerCount: 2
Fore
SplineSet
10 70 m 1,0,-1
 20 70 l 1,1,-1
 20 20 l 1,2,-1
 40 20 l 1,3,-1
 40 70 l 1,4,-1
 50 70 l 1,5,-1
 50 20 l 1,6,-1
 60 20 l 1,7,-1
 60 0 l 1,8,-1
 50 0 l 1,9,-1
 50 10 l 1,10,-1
 10 10 l 1,11,-1
 10 70 l 1,12,-1
 10 70 l 1,0,-1
EndSplineSet
EndChar

StartChar: uni0447
Encoding: 1095 1095 287
Width: 60
VWidth: 95
GlyphClass: 1
Flags: W
LayerCount: 2
Fore
SplineSet
10 70 m 1,0,-1
 20 70 l 1,1,-1
 20 40 l 1,2,-1
 10 40 l 1,3,-1
 10 70 l 1,0,-1
50 70 m 1,4,-1
 60 70 l 1,5,-1
 60 0 l 1,6,-1
 50 0 l 1,7,-1
 50 30 l 1,8,-1
 20 30 l 1,9,-1
 20 40 l 1,10,-1
 50 40 l 1,11,-1
 50 70 l 1,12,-1
 50 70 l 1,4,-1
EndSplineSet
EndChar

StartChar: uni0448
Encoding: 1096 1096 288
Width: 60
VWidth: 95
GlyphClass: 1
Flags: W
LayerCount: 2
Fore
SplineSet
10 70 m 1,0,-1
 20 70 l 1,1,-1
 20 10 l 1,2,-1
 30 10 l 1,3,-1
 30 70 l 1,4,-1
 40 70 l 1,5,-1
 40 10 l 1,6,-1
 50 10 l 1,7,-1
 50 70 l 1,8,-1
 60 70 l 1,9,-1
 60 0 l 1,10,-1
 10 0 l 1,11,-1
 10 70 l 1,12,-1
 10 70 l 1,0,-1
EndSplineSet
EndChar

StartChar: uni0449
Encoding: 1097 1097 289
Width: 60
VWidth: 95
GlyphClass: 1
Flags: W
LayerCount: 2
Fore
SplineSet
10 70 m 1,0,-1
 20 70 l 1,1,-1
 20 20 l 1,2,-1
 30 20 l 1,3,-1
 30 70 l 1,4,-1
 40 70 l 1,5,-1
 40 20 l 1,6,-1
 50 20 l 1,7,-1
 50 70 l 1,8,-1
 60 70 l 1,9,-1
 60 0 l 1,10,-1
 50 0 l 1,11,-1
 50 10 l 1,12,-1
 10 10 l 1,13,-1
 10 70 l 1,14,-1
 10 70 l 1,0,-1
EndSplineSet
EndChar

StartChar: uni044A
Encoding: 1098 1098 290
Width: 60
VWidth: 95
GlyphClass: 1
Flags: W
LayerCount: 2
Fore
SplineSet
10 70 m 1,0,-1
 30 70 l 1,1,-1
 30 40 l 1,2,-1
 50 40 l 1,3,-1
 50 30 l 1,4,-1
 30 30 l 1,5,-1
 30 10 l 1,6,-1
 50 10 l 1,7,-1
 50 30 l 1,8,-1
 60 30 l 1,9,-1
 60 10 l 1,10,-1
 50 10 l 1,11,-1
 50 0 l 1,12,-1
 20 0 l 1,13,-1
 20 60 l 1,14,-1
 10 60 l 1,15,-1
 10 70 l 1,16,-1
 10 70 l 1,0,-1
EndSplineSet
EndChar

StartChar: uni044B
Encoding: 1099 1099 291
Width: 60
VWidth: 95
GlyphClass: 1
Flags: W
LayerCount: 2
Fore
SplineSet
10 70 m 1,0,-1
 20 70 l 1,1,-1
 20 40 l 1,2,-1
 40 40 l 1,3,-1
 40 30 l 1,4,-1
 20 30 l 1,5,-1
 20 10 l 1,6,-1
 40 10 l 1,7,-1
 40 30 l 1,8,-1
 50 30 l 1,9,-1
 50 70 l 1,10,-1
 60 70 l 1,11,-1
 60 0 l 1,12,-1
 50 0 l 1,13,-1
 50 10 l 1,14,-1
 40 10 l 1,15,-1
 40 0 l 1,16,-1
 10 0 l 1,17,-1
 10 70 l 1,18,-1
 10 70 l 1,0,-1
EndSplineSet
EndChar

StartChar: uni044C
Encoding: 1100 1100 292
Width: 60
VWidth: 95
GlyphClass: 1
Flags: W
LayerCount: 2
Fore
SplineSet
10 70 m 1,0,-1
 20 70 l 1,1,-1
 20 40 l 1,2,-1
 50 40 l 1,3,-1
 50 30 l 1,4,-1
 20 30 l 1,5,-1
 20 10 l 1,6,-1
 50 10 l 1,7,-1
 50 30 l 1,8,-1
 60 30 l 1,9,-1
 60 10 l 1,10,-1
 50 10 l 1,11,-1
 50 0 l 1,12,-1
 10 0 l 1,13,-1
 10 70 l 1,14,-1
 10 70 l 1,0,-1
EndSplineSet
EndChar

StartChar: uni044D
Encoding: 1101 1101 293
Width: 60
VWidth: 95
GlyphClass: 1
Flags: W
LayerCount: 2
Fore
SplineSet
20 70 m 1,0,-1
 50 70 l 1,1,-1
 50 60 l 1,2,-1
 20 60 l 1,3,-1
 20 70 l 1,4,-1
 20 70 l 1,0,-1
10 60 m 1,5,-1
 20 60 l 1,6,-1
 20 50 l 1,7,-1
 10 50 l 1,8,-1
 10 60 l 1,5,-1
50 60 m 1,9,-1
 60 60 l 1,10,-1
 60 10 l 1,11,-1
 50 10 l 1,12,-1
 50 30 l 1,13,-1
 20 30 l 1,14,-1
 20 40 l 1,15,-1
 50 40 l 1,16,-1
 50 60 l 1,17,-1
 50 60 l 1,9,-1
10 20 m 1,18,-1
 20 20 l 1,19,-1
 20 10 l 1,20,-1
 10 10 l 1,21,-1
 10 20 l 1,18,-1
20 10 m 1,22,-1
 50 10 l 1,23,-1
 50 0 l 1,24,-1
 20 0 l 1,25,-1
 20 10 l 1,26,-1
 20 10 l 1,22,-1
EndSplineSet
EndChar

StartChar: uni044E
Encoding: 1102 1102 294
Width: 60
VWidth: 95
GlyphClass: 1
Flags: W
LayerCount: 2
Fore
SplineSet
10 70 m 1,0,-1
 20 70 l 1,1,-1
 20 40 l 1,2,-1
 30 40 l 1,3,-1
 30 60 l 1,4,-1
 40 60 l 1,5,-1
 40 70 l 1,6,-1
 50 70 l 1,7,-1
 50 60 l 1,8,-1
 40 60 l 1,9,-1
 40 10 l 1,10,-1
 30 10 l 1,11,-1
 30 30 l 1,12,-1
 20 30 l 1,13,-1
 20 0 l 1,14,-1
 10 0 l 1,15,-1
 10 70 l 1,16,-1
 10 70 l 1,0,-1
50 60 m 1,17,-1
 60 60 l 1,18,-1
 60 10 l 1,19,-1
 50 10 l 1,20,-1
 50 60 l 1,21,-1
 50 60 l 1,17,-1
40 10 m 1,22,-1
 50 10 l 1,23,-1
 50 0 l 1,24,-1
 40 0 l 1,25,-1
 40 10 l 1,22,-1
EndSplineSet
EndChar

StartChar: uni044F
Encoding: 1103 1103 295
Width: 60
VWidth: 95
GlyphClass: 1
Flags: W
LayerCount: 2
Fore
SplineSet
20 70 m 1,0,-1
 60 70 l 1,1,-1
 60 0 l 1,2,-1
 50 0 l 1,3,-1
 50 30 l 1,4,-1
 30 30 l 1,5,-1
 30 20 l 1,6,-1
 20 20 l 1,7,-1
 20 40 l 1,8,-1
 10 40 l 1,9,-1
 10 60 l 1,10,-1
 20 60 l 1,11,-1
 20 70 l 1,12,-1
 20 70 l 1,0,-1
30 60 m 1,13,-1
 20 60 l 1,14,-1
 20 40 l 1,15,-1
 50 40 l 1,16,-1
 50 60 l 1,17,-1
 30 60 l 1,18,-1
 30 60 l 1,13,-1
10 20 m 1,19,-1
 20 20 l 1,20,-1
 20 0 l 1,21,-1
 10 0 l 1,22,-1
 10 20 l 1,19,-1
EndSplineSet
EndChar

StartChar: uni0451
Encoding: 1105 1105 296
Width: 60
VWidth: 95
GlyphClass: 1
Flags: W
LayerCount: 2
Fore
SplineSet
20 90 m 1,0,-1
 30 90 l 1,1,-1
 30 80 l 1,2,-1
 20 80 l 1,3,-1
 20 90 l 1,4,-1
 20 90 l 1,0,-1
40 90 m 1,5,-1
 50 90 l 1,6,-1
 50 80 l 1,7,-1
 40 80 l 1,8,-1
 40 90 l 1,5,-1
20 70 m 1,9,-1
 50 70 l 1,10,-1
 50 60 l 1,11,-1
 20 60 l 1,12,-1
 20 70 l 1,13,-1
 20 70 l 1,9,-1
10 60 m 1,14,-1
 20 60 l 1,15,-1
 20 40 l 1,16,-1
 50 40 l 1,17,-1
 50 60 l 1,18,-1
 60 60 l 1,19,-1
 60 30 l 1,20,-1
 20 30 l 1,21,-1
 20 10 l 1,22,-1
 10 10 l 1,23,-1
 10 60 l 1,24,-1
 10 60 l 1,14,-1
50 20 m 1,25,-1
 60 20 l 1,26,-1
 60 10 l 1,27,-1
 50 10 l 1,28,-1
 50 20 l 1,25,-1
20 10 m 1,29,-1
 50 10 l 1,30,-1
 50 0 l 1,31,-1
 20 0 l 1,32,-1
 20 10 l 1,33,-1
 20 10 l 1,29,-1
EndSplineSet
EndChar

StartChar: uni0452
Encoding: 1106 1106 297
Width: 60
VWidth: 95
GlyphClass: 1
Flags: W
LayerCount: 2
Fore
SplineSet
20 90 m 1,0,-1
 30 90 l 1,1,-1
 30 80 l 1,2,-1
 50 80 l 1,3,-1
 50 70 l 1,4,-1
 30 70 l 1,5,-1
 30 60 l 1,6,-1
 50 60 l 1,7,-1
 50 50 l 1,8,-1
 30 50 l 1,9,-1
 30 20 l 1,10,-1
 20 20 l 1,11,-1
 20 70 l 1,12,-1
 10 70 l 1,13,-1
 10 80 l 1,14,-1
 20 80 l 1,15,-1
 20 90 l 1,16,-1
 20 90 l 1,0,-1
50 50 m 1,17,-1
 60 50 l 1,18,-1
 60 10 l 1,19,-1
 50 10 l 1,20,-1
 50 50 l 1,17,-1
30 10 m 1,21,-1
 50 10 l 1,22,-1
 50 0 l 1,23,-1
 30 0 l 1,24,-1
 30 10 l 1,25,-1
 30 10 l 1,21,-1
EndSplineSet
EndChar

StartChar: uni0458
Encoding: 1112 1112 298
Width: 60
VWidth: 95
GlyphClass: 1
Flags: W
LayerCount: 2
Fore
SplineSet
40 90 m 1,0,-1
 50 90 l 1,1,-1
 50 80 l 1,2,-1
 40 80 l 1,3,-1
 40 90 l 1,0,-1
30 70 m 1,4,-1
 50 70 l 1,5,-1
 50 10 l 1,6,-1
 40 10 l 1,7,-1
 40 60 l 1,8,-1
 30 60 l 1,9,-1
 30 70 l 1,10,-1
 30 70 l 1,4,-1
20 10 m 1,11,-1
 40 10 l 1,12,-1
 40 0 l 1,13,-1
 20 0 l 1,14,-1
 20 10 l 1,11,-1
EndSplineSet
EndChar

StartChar: uni0459
Encoding: 1113 1113 299
Width: 60
VWidth: 95
GlyphClass: 1
Flags: W
LayerCount: 2
Fore
SplineSet
10 70 m 1,0,-1
 40 70 l 1,1,-1
 40 40 l 1,2,-1
 50 40 l 1,3,-1
 50 30 l 1,4,-1
 40 30 l 1,5,-1
 40 10 l 1,6,-1
 50 10 l 1,7,-1
 50 30 l 1,8,-1
 60 30 l 1,9,-1
 60 10 l 1,10,-1
 50 10 l 1,11,-1
 50 0 l 1,12,-1
 30 0 l 1,13,-1
 30 60 l 1,14,-1
 20 60 l 1,15,-1
 20 0 l 1,16,-1
 10 0 l 1,17,-1
 10 70 l 1,18,-1
 10 70 l 1,0,-1
EndSplineSet
EndChar

StartChar: uni045A
Encoding: 1114 1114 300
Width: 60
VWidth: 95
GlyphClass: 1
Flags: W
LayerCount: 2
Fore
SplineSet
10 70 m 1,0,-1
 20 70 l 1,1,-1
 20 40 l 1,2,-1
 30 40 l 1,3,-1
 30 70 l 1,4,-1
 40 70 l 1,5,-1
 40 40 l 1,6,-1
 50 40 l 1,7,-1
 50 30 l 1,8,-1
 40 30 l 1,9,-1
 40 10 l 1,10,-1
 50 10 l 1,11,-1
 50 30 l 1,12,-1
 60 30 l 1,13,-1
 60 10 l 1,14,-1
 50 10 l 1,15,-1
 50 0 l 1,16,-1
 30 0 l 1,17,-1
 30 30 l 1,18,-1
 20 30 l 1,19,-1
 20 0 l 1,20,-1
 10 0 l 1,21,-1
 10 70 l 1,22,-1
 10 70 l 1,0,-1
EndSplineSet
EndChar

StartChar: uni045B
Encoding: 1115 1115 301
Width: 60
VWidth: 95
GlyphClass: 1
Flags: W
LayerCount: 2
Fore
SplineSet
20 90 m 1,0,-1
 30 90 l 1,1,-1
 30 80 l 1,2,-1
 50 80 l 1,3,-1
 50 70 l 1,4,-1
 30 70 l 1,5,-1
 30 50 l 1,6,-1
 50 50 l 1,7,-1
 50 40 l 1,8,-1
 30 40 l 1,9,-1
 30 0 l 1,10,-1
 20 0 l 1,11,-1
 20 70 l 1,12,-1
 10 70 l 1,13,-1
 10 80 l 1,14,-1
 20 80 l 1,15,-1
 20 90 l 1,16,-1
 20 90 l 1,0,-1
50 40 m 1,17,-1
 60 40 l 1,18,-1
 60 0 l 1,19,-1
 50 0 l 1,20,-1
 50 40 l 1,17,-1
EndSplineSet
EndChar

StartChar: uni045F
Encoding: 1119 1119 302
Width: 60
VWidth: 95
GlyphClass: 1
Flags: W
LayerCount: 2
Fore
SplineSet
10 70 m 1,0,-1
 20 70 l 1,1,-1
 20 20 l 1,2,-1
 50 20 l 1,3,-1
 50 70 l 1,4,-1
 60 70 l 1,5,-1
 60 10 l 1,6,-1
 40 10 l 1,7,-1
 40 0 l 1,8,-1
 30 0 l 1,9,-1
 30 10 l 1,10,-1
 10 10 l 1,11,-1
 10 70 l 1,12,-1
 10 70 l 1,0,-1
EndSplineSet
EndChar

StartChar: uni1D00
Encoding: 7424 7424 303
Width: 60
VWidth: 95
GlyphClass: 1
Flags: W
LayerCount: 2
Fore
SplineSet
30 60 m 1,0,-1
 40 60 l 1,1,-1
 40 50 l 1,2,-1
 30 50 l 1,3,-1
 30 60 l 1,0,-1
20 50 m 1,4,-1
 30 50 l 1,5,-1
 30 30 l 1,6,-1
 40 30 l 1,7,-1
 40 50 l 1,8,-1
 50 50 l 1,9,-1
 50 30 l 1,10,-1
 60 30 l 1,11,-1
 60 0 l 1,12,-1
 50 0 l 1,13,-1
 50 20 l 1,14,-1
 20 20 l 1,15,-1
 20 0 l 1,16,-1
 10 0 l 1,17,-1
 10 30 l 1,18,-1
 20 30 l 1,19,-1
 20 50 l 1,20,-1
 20 50 l 1,4,-1
EndSplineSet
EndChar

StartChar: uni1D04
Encoding: 7428 7428 304
Width: 60
VWidth: 95
GlyphClass: 1
Flags: W
LayerCount: 2
Fore
SplineSet
20 60 m 1,0,-1
 50 60 l 1,1,-1
 50 50 l 1,2,-1
 20 50 l 1,3,-1
 20 60 l 1,4,-1
 20 60 l 1,0,-1
10 50 m 1,5,-1
 20 50 l 1,6,-1
 20 10 l 1,7,-1
 10 10 l 1,8,-1
 10 50 l 1,5,-1
50 50 m 1,9,-1
 60 50 l 1,10,-1
 60 40 l 1,11,-1
 50 40 l 1,12,-1
 50 50 l 1,9,-1
50 20 m 1,13,-1
 60 20 l 1,14,-1
 60 10 l 1,15,-1
 50 10 l 1,16,-1
 50 20 l 1,13,-1
20 10 m 1,17,-1
 50 10 l 1,18,-1
 50 0 l 1,19,-1
 20 0 l 1,20,-1
 20 10 l 1,21,-1
 20 10 l 1,17,-1
EndSplineSet
EndChar

StartChar: uni1D0A
Encoding: 7434 7434 305
Width: 60
VWidth: 95
GlyphClass: 1
Flags: W
LayerCount: 2
Fore
SplineSet
40 60 m 1,0,-1
 50 60 l 1,1,-1
 50 10 l 1,2,-1
 40 10 l 1,3,-1
 40 60 l 1,4,-1
 40 60 l 1,0,-1
10 20 m 1,5,-1
 20 20 l 1,6,-1
 20 10 l 1,7,-1
 10 10 l 1,8,-1
 10 20 l 1,5,-1
20 10 m 1,9,-1
 40 10 l 1,10,-1
 40 0 l 1,11,-1
 20 0 l 1,12,-1
 20 10 l 1,9,-1
EndSplineSet
EndChar

StartChar: uni1D0B
Encoding: 7435 7435 306
Width: 60
VWidth: 95
GlyphClass: 1
Flags: W
LayerCount: 2
Fore
SplineSet
10 60 m 1,0,-1
 20 60 l 1,1,-1
 20 30 l 1,2,-1
 30 30 l 1,3,-1
 30 40 l 1,4,-1
 40 40 l 1,5,-1
 40 50 l 1,6,-1
 50 50 l 1,7,-1
 50 60 l 1,8,-1
 60 60 l 1,9,-1
 60 50 l 1,10,-1
 50 50 l 1,11,-1
 50 40 l 1,12,-1
 40 40 l 1,13,-1
 40 20 l 1,14,-1
 20 20 l 1,15,-1
 20 0 l 1,16,-1
 10 0 l 1,17,-1
 10 60 l 1,18,-1
 10 60 l 1,0,-1
40 20 m 1,19,-1
 50 20 l 1,20,-1
 50 10 l 1,21,-1
 40 10 l 1,22,-1
 40 20 l 1,19,-1
50 10 m 1,23,-1
 60 10 l 1,24,-1
 60 0 l 1,25,-1
 50 0 l 1,26,-1
 50 10 l 1,23,-1
EndSplineSet
EndChar

StartChar: uni1D18
Encoding: 7448 7448 307
Width: 60
VWidth: 95
GlyphClass: 1
Flags: W
LayerCount: 2
Fore
SplineSet
10 60 m 1,0,-1
 50 60 l 1,1,-1
 50 50 l 1,2,-1
 20 50 l 1,3,-1
 20 30 l 1,4,-1
 50 30 l 1,5,-1
 50 50 l 1,6,-1
 60 50 l 1,7,-1
 60 30 l 1,8,-1
 50 30 l 1,9,-1
 50 20 l 1,10,-1
 20 20 l 1,11,-1
 20 0 l 1,12,-1
 10 0 l 1,13,-1
 10 60 l 1,14,-1
 10 60 l 1,0,-1
EndSplineSet
EndChar

StartChar: uni1D1B
Encoding: 7451 7451 308
Width: 60
VWidth: 95
GlyphClass: 1
Flags: W
LayerCount: 2
Fore
SplineSet
10 60 m 1,0,-1
 60 60 l 1,1,-1
 60 50 l 1,2,-1
 40 50 l 1,3,-1
 40 0 l 1,4,-1
 30 0 l 1,5,-1
 30 50 l 1,6,-1
 10 50 l 1,7,-1
 10 60 l 1,8,-1
 10 60 l 1,0,-1
EndSplineSet
EndChar

StartChar: uni1D4D
Encoding: 7501 7501 309
Width: 60
VWidth: 95
GlyphClass: 1
Flags: W
LayerCount: 2
Fore
SplineSet
20 90 m 1,0,-1
 50 90 l 1,1,-1
 50 40 l 1,2,-1
 40 40 l 1,3,-1
 40 50 l 1,4,-1
 20 50 l 1,5,-1
 20 60 l 1,6,-1
 10 60 l 1,7,-1
 10 80 l 1,8,-1
 20 80 l 1,9,-1
 20 90 l 1,10,-1
 20 90 l 1,0,-1
30 80 m 1,11,-1
 20 80 l 1,12,-1
 20 60 l 1,13,-1
 40 60 l 1,14,-1
 40 80 l 1,15,-1
 30 80 l 1,16,-1
 30 80 l 1,11,-1
20 40 m 1,17,-1
 40 40 l 1,18,-1
 40 30 l 1,19,-1
 20 30 l 1,20,-1
 20 40 l 1,17,-1
EndSplineSet
EndChar

StartChar: ellipsis
Encoding: 8230 8230 310
Width: 60
VWidth: 95
GlyphClass: 1
Flags: W
LayerCount: 2
Fore
SplineSet
10 50 m 1,0,-1
 20 50 l 1,1,-1
 20 40 l 1,2,-1
 10 40 l 1,3,-1
 10 50 l 1,0,-1
30 50 m 1,4,-1
 40 50 l 1,5,-1
 40 40 l 1,6,-1
 30 40 l 1,7,-1
 30 50 l 1,4,-1
50 50 m 1,8,-1
 60 50 l 1,9,-1
 60 40 l 1,10,-1
 50 40 l 1,11,-1
 50 50 l 1,8,-1
EndSplineSet
EndChar

StartChar: uni2070
Encoding: 8304 8304 311
Width: 60
VWidth: 95
GlyphClass: 1
Flags: W
LayerCount: 2
Fore
SplineSet
20 90 m 1,0,-1
 50 90 l 1,1,-1
 50 80 l 1,2,-1
 20 80 l 1,3,-1
 20 90 l 1,4,-1
 20 90 l 1,0,-1
10 80 m 1,5,-1
 20 80 l 1,6,-1
 20 40 l 1,7,-1
 10 40 l 1,8,-1
 10 80 l 1,5,-1
50 80 m 1,9,-1
 60 80 l 1,10,-1
 60 40 l 1,11,-1
 50 40 l 1,12,-1
 50 80 l 1,9,-1
20 40 m 1,13,-1
 50 40 l 1,14,-1
 50 30 l 1,15,-1
 20 30 l 1,16,-1
 20 40 l 1,17,-1
 20 40 l 1,13,-1
EndSplineSet
EndChar

StartChar: uni2074
Encoding: 8308 8308 312
Width: 60
VWidth: 95
GlyphClass: 1
Flags: W
LayerCount: 2
Fore
SplineSet
40 90 m 1,0,-1
 50 90 l 1,1,-1
 50 50 l 1,2,-1
 60 50 l 1,3,-1
 60 40 l 1,4,-1
 50 40 l 1,5,-1
 50 30 l 1,6,-1
 40 30 l 1,7,-1
 40 40 l 1,8,-1
 10 40 l 1,9,-1
 10 60 l 1,10,-1
 20 60 l 1,11,-1
 20 70 l 1,12,-1
 30 70 l 1,13,-1
 30 80 l 1,14,-1
 40 80 l 1,15,-1
 40 90 l 1,16,-1
 40 90 l 1,0,-1
40 70 m 1,17,-1
 30 70 l 1,18,-1
 30 60 l 1,19,-1
 20 60 l 1,20,-1
 20 50 l 1,21,-1
 40 50 l 1,22,-1
 40 70 l 1,17,-1
EndSplineSet
EndChar

StartChar: uni2075
Encoding: 8309 8309 313
Width: 60
VWidth: 95
GlyphClass: 1
Flags: W
LayerCount: 2
Fore
SplineSet
10 90 m 1,0,-1
 60 90 l 1,1,-1
 60 80 l 1,2,-1
 20 80 l 1,3,-1
 20 70 l 1,4,-1
 50 70 l 1,5,-1
 50 60 l 1,6,-1
 10 60 l 1,7,-1
 10 90 l 1,8,-1
 10 90 l 1,0,-1
50 60 m 1,9,-1
 60 60 l 1,10,-1
 60 40 l 1,11,-1
 50 40 l 1,12,-1
 50 60 l 1,13,-1
 50 60 l 1,9,-1
10 50 m 1,14,-1
 20 50 l 1,15,-1
 20 40 l 1,16,-1
 10 40 l 1,17,-1
 10 50 l 1,14,-1
20 40 m 1,18,-1
 50 40 l 1,19,-1
 50 30 l 1,20,-1
 20 30 l 1,21,-1
 20 40 l 1,22,-1
 20 40 l 1,18,-1
EndSplineSet
EndChar

StartChar: uni2076
Encoding: 8310 8310 314
Width: 60
VWidth: 95
GlyphClass: 1
Flags: W
LayerCount: 2
Fore
SplineSet
20 90 m 1,0,-1
 50 90 l 1,1,-1
 50 80 l 1,2,-1
 20 80 l 1,3,-1
 20 90 l 1,4,-1
 20 90 l 1,0,-1
10 80 m 1,5,-1
 20 80 l 1,6,-1
 20 70 l 1,7,-1
 50 70 l 1,8,-1
 50 60 l 1,9,-1
 20 60 l 1,10,-1
 20 40 l 1,11,-1
 10 40 l 1,12,-1
 10 80 l 1,13,-1
 10 80 l 1,5,-1
50 60 m 1,14,-1
 60 60 l 1,15,-1
 60 40 l 1,16,-1
 50 40 l 1,17,-1
 50 60 l 1,18,-1
 50 60 l 1,14,-1
20 40 m 1,19,-1
 50 40 l 1,20,-1
 50 30 l 1,21,-1
 20 30 l 1,22,-1
 20 40 l 1,23,-1
 20 40 l 1,19,-1
EndSplineSet
EndChar

StartChar: uni2077
Encoding: 8311 8311 315
Width: 60
VWidth: 95
GlyphClass: 1
Flags: W
LayerCount: 2
Fore
SplineSet
10 90 m 1,0,-1
 60 90 l 1,1,-1
 60 70 l 1,2,-1
 50 70 l 1,3,-1
 50 80 l 1,4,-1
 10 80 l 1,5,-1
 10 90 l 1,6,-1
 10 90 l 1,0,-1
40 70 m 1,7,-1
 50 70 l 1,8,-1
 50 50 l 1,9,-1
 40 50 l 1,10,-1
 40 70 l 1,7,-1
30 50 m 1,11,-1
 40 50 l 1,12,-1
 40 30 l 1,13,-1
 30 30 l 1,14,-1
 30 50 l 1,11,-1
EndSplineSet
EndChar

StartChar: uni2078
Encoding: 8312 8312 316
Width: 60
VWidth: 95
GlyphClass: 1
Flags: W
LayerCount: 2
Fore
SplineSet
20 90 m 1,0,-1
 50 90 l 1,1,-1
 50 80 l 1,2,-1
 20 80 l 1,3,-1
 20 90 l 1,4,-1
 20 90 l 1,0,-1
10 80 m 1,5,-1
 20 80 l 1,6,-1
 20 70 l 1,7,-1
 10 70 l 1,8,-1
 10 80 l 1,5,-1
50 80 m 1,9,-1
 60 80 l 1,10,-1
 60 70 l 1,11,-1
 50 70 l 1,12,-1
 50 80 l 1,9,-1
20 70 m 1,13,-1
 50 70 l 1,14,-1
 50 60 l 1,15,-1
 20 60 l 1,16,-1
 20 70 l 1,17,-1
 20 70 l 1,13,-1
10 60 m 1,18,-1
 20 60 l 1,19,-1
 20 40 l 1,20,-1
 10 40 l 1,21,-1
 10 60 l 1,22,-1
 10 60 l 1,18,-1
50 60 m 1,23,-1
 60 60 l 1,24,-1
 60 40 l 1,25,-1
 50 40 l 1,26,-1
 50 60 l 1,27,-1
 50 60 l 1,23,-1
20 40 m 1,28,-1
 50 40 l 1,29,-1
 50 30 l 1,30,-1
 20 30 l 1,31,-1
 20 40 l 1,32,-1
 20 40 l 1,28,-1
EndSplineSet
EndChar

StartChar: uni2079
Encoding: 8313 8313 317
Width: 60
VWidth: 95
GlyphClass: 1
Flags: W
LayerCount: 2
Fore
SplineSet
20 90 m 1,0,-1
 50 90 l 1,1,-1
 50 80 l 1,2,-1
 20 80 l 1,3,-1
 20 90 l 1,4,-1
 20 90 l 1,0,-1
10 80 m 1,5,-1
 20 80 l 1,6,-1
 20 60 l 1,7,-1
 10 60 l 1,8,-1
 10 80 l 1,5,-1
50 80 m 1,9,-1
 60 80 l 1,10,-1
 60 40 l 1,11,-1
 50 40 l 1,12,-1
 50 50 l 1,13,-1
 20 50 l 1,14,-1
 20 60 l 1,15,-1
 50 60 l 1,16,-1
 50 80 l 1,17,-1
 50 80 l 1,9,-1
20 40 m 1,18,-1
 50 40 l 1,19,-1
 50 30 l 1,20,-1
 20 30 l 1,21,-1
 20 40 l 1,22,-1
 20 40 l 1,18,-1
EndSplineSet
EndChar

StartChar: uni2080
Encoding: 8320 8320 318
Width: 60
VWidth: 95
GlyphClass: 1
Flags: W
LayerCount: 2
Fore
SplineSet
20 60 m 1,0,-1
 50 60 l 1,1,-1
 50 50 l 1,2,-1
 20 50 l 1,3,-1
 20 60 l 1,4,-1
 20 60 l 1,0,-1
10 50 m 1,5,-1
 20 50 l 1,6,-1
 20 10 l 1,7,-1
 10 10 l 1,8,-1
 10 50 l 1,5,-1
50 50 m 1,9,-1
 60 50 l 1,10,-1
 60 10 l 1,11,-1
 50 10 l 1,12,-1
 50 50 l 1,9,-1
20 10 m 1,13,-1
 50 10 l 1,14,-1
 50 0 l 1,15,-1
 20 0 l 1,16,-1
 20 10 l 1,17,-1
 20 10 l 1,13,-1
EndSplineSet
EndChar

StartChar: uni2081
Encoding: 8321 8321 319
Width: 60
VWidth: 95
GlyphClass: 1
Flags: W
LayerCount: 2
Fore
SplineSet
30 60 m 1,0,-1
 40 60 l 1,1,-1
 40 0 l 1,2,-1
 30 0 l 1,3,-1
 30 40 l 1,4,-1
 20 40 l 1,5,-1
 20 50 l 1,6,-1
 30 50 l 1,7,-1
 30 60 l 1,8,-1
 30 60 l 1,0,-1
EndSplineSet
EndChar

StartChar: uni2082
Encoding: 8322 8322 320
Width: 60
VWidth: 95
GlyphClass: 1
Flags: W
LayerCount: 2
Fore
SplineSet
20 60 m 1,0,-1
 50 60 l 1,1,-1
 50 50 l 1,2,-1
 20 50 l 1,3,-1
 20 60 l 1,4,-1
 20 60 l 1,0,-1
10 50 m 1,5,-1
 20 50 l 1,6,-1
 20 40 l 1,7,-1
 10 40 l 1,8,-1
 10 50 l 1,5,-1
50 50 m 1,9,-1
 60 50 l 1,10,-1
 60 40 l 1,11,-1
 50 40 l 1,12,-1
 50 50 l 1,9,-1
40 40 m 1,13,-1
 50 40 l 1,14,-1
 50 30 l 1,15,-1
 40 30 l 1,16,-1
 40 40 l 1,13,-1
30 30 m 1,17,-1
 40 30 l 1,18,-1
 40 20 l 1,19,-1
 30 20 l 1,20,-1
 30 30 l 1,17,-1
20 20 m 1,21,-1
 30 20 l 1,22,-1
 30 10 l 1,23,-1
 60 10 l 1,24,-1
 60 0 l 1,25,-1
 10 0 l 1,26,-1
 10 10 l 1,27,-1
 20 10 l 1,28,-1
 20 20 l 1,29,-1
 20 20 l 1,21,-1
EndSplineSet
EndChar

StartChar: uni2083
Encoding: 8323 8323 321
Width: 60
VWidth: 95
GlyphClass: 1
Flags: W
LayerCount: 2
Fore
SplineSet
20 60 m 1,0,-1
 50 60 l 1,1,-1
 50 50 l 1,2,-1
 20 50 l 1,3,-1
 20 60 l 1,4,-1
 20 60 l 1,0,-1
10 50 m 1,5,-1
 20 50 l 1,6,-1
 20 40 l 1,7,-1
 10 40 l 1,8,-1
 10 50 l 1,5,-1
50 50 m 1,9,-1
 60 50 l 1,10,-1
 60 40 l 1,11,-1
 50 40 l 1,12,-1
 50 50 l 1,9,-1
30 40 m 1,13,-1
 50 40 l 1,14,-1
 50 30 l 1,15,-1
 30 30 l 1,16,-1
 30 40 l 1,17,-1
 30 40 l 1,13,-1
50 30 m 1,18,-1
 60 30 l 1,19,-1
 60 10 l 1,20,-1
 50 10 l 1,21,-1
 50 30 l 1,18,-1
10 20 m 1,22,-1
 20 20 l 1,23,-1
 20 10 l 1,24,-1
 10 10 l 1,25,-1
 10 20 l 1,22,-1
20 10 m 1,26,-1
 50 10 l 1,27,-1
 50 0 l 1,28,-1
 20 0 l 1,29,-1
 20 10 l 1,30,-1
 20 10 l 1,26,-1
EndSplineSet
EndChar

StartChar: uni2084
Encoding: 8324 8324 322
Width: 60
VWidth: 95
GlyphClass: 1
Flags: W
LayerCount: 2
Fore
SplineSet
40 60 m 1,0,-1
 50 60 l 1,1,-1
 50 20 l 1,2,-1
 60 20 l 1,3,-1
 60 10 l 1,4,-1
 50 10 l 1,5,-1
 50 0 l 1,6,-1
 40 0 l 1,7,-1
 40 10 l 1,8,-1
 10 10 l 1,9,-1
 10 30 l 1,10,-1
 20 30 l 1,11,-1
 20 40 l 1,12,-1
 30 40 l 1,13,-1
 30 50 l 1,14,-1
 40 50 l 1,15,-1
 40 60 l 1,16,-1
 40 60 l 1,0,-1
40 40 m 1,17,-1
 30 40 l 1,18,-1
 30 30 l 1,19,-1
 20 30 l 1,20,-1
 20 20 l 1,21,-1
 40 20 l 1,22,-1
 40 40 l 1,17,-1
EndSplineSet
EndChar

StartChar: uni2085
Encoding: 8325 8325 323
Width: 60
VWidth: 95
GlyphClass: 1
Flags: W
LayerCount: 2
Fore
SplineSet
10 60 m 1,0,-1
 60 60 l 1,1,-1
 60 50 l 1,2,-1
 20 50 l 1,3,-1
 20 40 l 1,4,-1
 50 40 l 1,5,-1
 50 30 l 1,6,-1
 10 30 l 1,7,-1
 10 60 l 1,8,-1
 10 60 l 1,0,-1
50 30 m 1,9,-1
 60 30 l 1,10,-1
 60 10 l 1,11,-1
 50 10 l 1,12,-1
 50 30 l 1,9,-1
10 20 m 1,13,-1
 20 20 l 1,14,-1
 20 10 l 1,15,-1
 10 10 l 1,16,-1
 10 20 l 1,13,-1
20 10 m 1,17,-1
 50 10 l 1,18,-1
 50 0 l 1,19,-1
 20 0 l 1,20,-1
 20 10 l 1,21,-1
 20 10 l 1,17,-1
EndSplineSet
EndChar

StartChar: uni2089
Encoding: 8329 8329 324
Width: 60
VWidth: 95
GlyphClass: 1
Flags: W
LayerCount: 2
Fore
SplineSet
20 60 m 1,0,-1
 50 60 l 1,1,-1
 50 50 l 1,2,-1
 20 50 l 1,3,-1
 20 60 l 1,4,-1
 20 60 l 1,0,-1
10 50 m 1,5,-1
 20 50 l 1,6,-1
 20 30 l 1,7,-1
 10 30 l 1,8,-1
 10 50 l 1,5,-1
50 50 m 1,9,-1
 60 50 l 1,10,-1
 60 10 l 1,11,-1
 50 10 l 1,12,-1
 50 20 l 1,13,-1
 20 20 l 1,14,-1
 20 30 l 1,15,-1
 50 30 l 1,16,-1
 50 50 l 1,17,-1
 50 50 l 1,9,-1
20 10 m 1,18,-1
 50 10 l 1,19,-1
 50 0 l 1,20,-1
 20 0 l 1,21,-1
 20 10 l 1,22,-1
 20 10 l 1,18,-1
EndSplineSet
EndChar

StartChar: uni208A
Encoding: 8330 8330 325
Width: 60
VWidth: 95
GlyphClass: 1
Flags: W
LayerCount: 2
Fore
SplineSet
30 50 m 1,0,-1
 40 50 l 1,1,-1
 40 30 l 1,2,-1
 60 30 l 1,3,-1
 60 20 l 1,4,-1
 40 20 l 1,5,-1
 40 0 l 1,6,-1
 30 0 l 1,7,-1
 30 20 l 1,8,-1
 10 20 l 1,9,-1
 10 30 l 1,10,-1
 30 30 l 1,11,-1
 30 50 l 1,12,-1
 30 50 l 1,0,-1
EndSplineSet
EndChar

StartChar: uni208B
Encoding: 8331 8331 326
Width: 60
VWidth: 95
GlyphClass: 1
Flags: W
LayerCount: 2
Fore
SplineSet
10 40 m 1,0,-1
 50 40 l 1,1,-1
 50 30 l 1,2,-1
 10 30 l 1,3,-1
 10 40 l 1,4,-1
 10 40 l 1,0,-1
EndSplineSet
EndChar

StartChar: uni208D
Encoding: 8333 8333 327
Width: 60
VWidth: 95
GlyphClass: 1
Flags: W
LayerCount: 2
Fore
SplineSet
40 60 m 1,0,-1
 50 60 l 1,1,-1
 50 50 l 1,2,-1
 40 50 l 1,3,-1
 40 60 l 1,0,-1
30 50 m 1,4,-1
 40 50 l 1,5,-1
 40 10 l 1,6,-1
 30 10 l 1,7,-1
 30 50 l 1,4,-1
40 10 m 1,8,-1
 50 10 l 1,9,-1
 50 0 l 1,10,-1
 40 0 l 1,11,-1
 40 10 l 1,8,-1
EndSplineSet
EndChar

StartChar: uni208E
Encoding: 8334 8334 328
Width: 60
VWidth: 95
GlyphClass: 1
Flags: W
LayerCount: 2
Fore
SplineSet
20 60 m 1,0,-1
 30 60 l 1,1,-1
 30 50 l 1,2,-1
 20 50 l 1,3,-1
 20 60 l 1,4,-1
 20 60 l 1,0,-1
30 50 m 1,5,-1
 40 50 l 1,6,-1
 40 10 l 1,7,-1
 30 10 l 1,8,-1
 30 50 l 1,5,-1
20 10 m 1,9,-1
 30 10 l 1,10,-1
 30 0 l 1,11,-1
 20 0 l 1,12,-1
 20 10 l 1,13,-1
 20 10 l 1,9,-1
EndSplineSet
EndChar

StartChar: uni2091
Encoding: 8337 8337 329
Width: 60
VWidth: 95
GlyphClass: 1
Flags: W
LayerCount: 2
Fore
SplineSet
20 50 m 1,0,-1
 50 50 l 1,1,-1
 50 40 l 1,2,-1
 20 40 l 1,3,-1
 20 50 l 1,4,-1
 20 50 l 1,0,-1
10 40 m 1,5,-1
 20 40 l 1,6,-1
 20 30 l 1,7,-1
 50 30 l 1,8,-1
 50 40 l 1,9,-1
 60 40 l 1,10,-1
 60 20 l 1,11,-1
 20 20 l 1,12,-1
 20 10 l 1,13,-1
 10 10 l 1,14,-1
 10 40 l 1,15,-1
 10 40 l 1,5,-1
20 10 m 1,16,-1
 50 10 l 1,17,-1
 50 0 l 1,18,-1
 20 0 l 1,19,-1
 20 10 l 1,20,-1
 20 10 l 1,16,-1
EndSplineSet
EndChar

StartChar: uni2095
Encoding: 8341 8341 330
Width: 60
VWidth: 95
GlyphClass: 1
Flags: W
LayerCount: 2
Fore
SplineSet
10 70 m 1,0,-1
 20 70 l 1,1,-1
 20 50 l 1,2,-1
 40 50 l 1,3,-1
 40 40 l 1,4,-1
 20 40 l 1,5,-1
 20 0 l 1,6,-1
 10 0 l 1,7,-1
 10 70 l 1,8,-1
 10 70 l 1,0,-1
40 40 m 1,9,-1
 50 40 l 1,10,-1
 50 0 l 1,11,-1
 40 0 l 1,12,-1
 40 40 l 1,9,-1
EndSplineSet
EndChar

StartChar: uni2098
Encoding: 8344 8344 331
Width: 60
VWidth: 95
GlyphClass: 1
Flags: W
LayerCount: 2
Fore
SplineSet
10 50 m 1,0,-1
 30 50 l 1,1,-1
 30 40 l 1,2,-1
 20 40 l 1,3,-1
 20 0 l 1,4,-1
 10 0 l 1,5,-1
 10 50 l 1,6,-1
 10 50 l 1,0,-1
40 50 m 1,7,-1
 50 50 l 1,8,-1
 50 40 l 1,9,-1
 40 40 l 1,10,-1
 40 50 l 1,7,-1
30 40 m 1,11,-1
 40 40 l 1,12,-1
 40 0 l 1,13,-1
 30 0 l 1,14,-1
 30 40 l 1,11,-1
50 40 m 1,15,-1
 60 40 l 1,16,-1
 60 0 l 1,17,-1
 50 0 l 1,18,-1
 50 40 l 1,15,-1
EndSplineSet
EndChar

StartChar: uni2099
Encoding: 8345 8345 332
Width: 60
VWidth: 95
GlyphClass: 1
Flags: W
LayerCount: 2
Fore
SplineSet
10 60 m 1,0,-1
 20 60 l 1,1,-1
 20 50 l 1,2,-1
 30 50 l 1,3,-1
 30 60 l 1,4,-1
 50 60 l 1,5,-1
 50 50 l 1,6,-1
 30 50 l 1,7,-1
 30 40 l 1,8,-1
 20 40 l 1,9,-1
 20 0 l 1,10,-1
 10 0 l 1,11,-1
 10 60 l 1,12,-1
 10 60 l 1,0,-1
50 50 m 1,13,-1
 60 50 l 1,14,-1
 60 0 l 1,15,-1
 50 0 l 1,16,-1
 50 50 l 1,13,-1
EndSplineSet
EndChar

StartChar: uni209A
Encoding: 8346 8346 333
Width: 60
VWidth: 95
GlyphClass: 1
Flags: W
LayerCount: 2
Fore
SplineSet
10 50 m 1,0,-1
 50 50 l 1,1,-1
 50 40 l 1,2,-1
 20 40 l 1,3,-1
 20 20 l 1,4,-1
 50 20 l 1,5,-1
 50 40 l 1,6,-1
 60 40 l 1,7,-1
 60 20 l 1,8,-1
 50 20 l 1,9,-1
 50 10 l 1,10,-1
 20 10 l 1,11,-1
 20 0 l 1,12,-1
 10 0 l 1,13,-1
 10 50 l 1,14,-1
 10 50 l 1,0,-1
EndSplineSet
EndChar

StartChar: uni209C
Encoding: 8348 8348 334
Width: 60
VWidth: 95
GlyphClass: 1
Flags: W
LayerCount: 2
Fore
SplineSet
20 60 m 1,0,-1
 30 60 l 1,1,-1
 30 50 l 1,2,-1
 50 50 l 1,3,-1
 50 40 l 1,4,-1
 30 40 l 1,5,-1
 30 10 l 1,6,-1
 20 10 l 1,7,-1
 20 40 l 1,8,-1
 10 40 l 1,9,-1
 10 50 l 1,10,-1
 20 50 l 1,11,-1
 20 60 l 1,12,-1
 20 60 l 1,0,-1
30 10 m 1,13,-1
 50 10 l 1,14,-1
 50 0 l 1,15,-1
 30 0 l 1,16,-1
 30 10 l 1,17,-1
 30 10 l 1,13,-1
EndSplineSet
EndChar

StartChar: uni210F
Encoding: 8463 8463 335
Width: 60
VWidth: 95
GlyphClass: 1
Flags: W
LayerCount: 2
Fore
SplineSet
20 90 m 1,0,-1
 30 90 l 1,1,-1
 30 80 l 1,2,-1
 50 80 l 1,3,-1
 50 70 l 1,4,-1
 30 70 l 1,5,-1
 30 60 l 1,6,-1
 50 60 l 1,7,-1
 50 50 l 1,8,-1
 30 50 l 1,9,-1
 30 0 l 1,10,-1
 20 0 l 1,11,-1
 20 60 l 1,12,-1
 10 60 l 1,13,-1
 10 70 l 1,14,-1
 20 70 l 1,15,-1
 20 90 l 1,16,-1
 20 90 l 1,0,-1
50 50 m 1,17,-1
 60 50 l 1,18,-1
 60 0 l 1,19,-1
 50 0 l 1,20,-1
 50 50 l 1,17,-1
EndSplineSet
EndChar

StartChar: uni2113
Encoding: 8467 8467 336
Width: 60
VWidth: 95
GlyphClass: 1
Flags: W
LayerCount: 2
Fore
SplineSet
30 90 m 1,0,-1
 40 90 l 1,1,-1
 40 80 l 1,2,-1
 30 80 l 1,3,-1
 30 90 l 1,0,-1
20 80 m 1,4,-1
 30 80 l 1,5,-1
 30 20 l 1,6,-1
 20 20 l 1,7,-1
 20 80 l 1,8,-1
 20 80 l 1,4,-1
40 80 m 1,9,-1
 50 80 l 1,10,-1
 50 20 l 1,11,-1
 40 20 l 1,12,-1
 40 80 l 1,9,-1
30 20 m 1,13,-1
 40 20 l 1,14,-1
 40 10 l 1,15,-1
 30 10 l 1,16,-1
 30 20 l 1,13,-1
10 10 m 1,17,-1
 30 10 l 1,18,-1
 30 0 l 1,19,-1
 10 0 l 1,20,-1
 10 10 l 1,21,-1
 10 10 l 1,17,-1
40 10 m 1,22,-1
 60 10 l 1,23,-1
 60 0 l 1,24,-1
 40 0 l 1,25,-1
 40 10 l 1,22,-1
EndSplineSet
EndChar

StartChar: uni212B
Encoding: 8491 8491 337
Width: 60
VWidth: 95
GlyphClass: 1
Flags: W
LayerCount: 2
Fore
SplineSet
30 90 m 1,0,-1
 40 90 l 1,1,-1
 40 80 l 1,2,-1
 30 80 l 1,3,-1
 30 90 l 1,0,-1
20 80 m 1,4,-1
 30 80 l 1,5,-1
 30 70 l 1,6,-1
 20 70 l 1,7,-1
 20 80 l 1,8,-1
 20 80 l 1,4,-1
40 80 m 1,9,-1
 50 80 l 1,10,-1
 50 70 l 1,11,-1
 40 70 l 1,12,-1
 40 80 l 1,9,-1
30 70 m 1,13,-1
 40 70 l 1,14,-1
 40 60 l 1,15,-1
 30 60 l 1,16,-1
 30 70 l 1,13,-1
20 60 m 1,17,-1
 30 60 l 1,18,-1
 30 40 l 1,19,-1
 20 40 l 1,20,-1
 20 60 l 1,21,-1
 20 60 l 1,17,-1
40 60 m 1,22,-1
 50 60 l 1,23,-1
 50 40 l 1,24,-1
 40 40 l 1,25,-1
 40 60 l 1,26,-1
 40 60 l 1,22,-1
10 40 m 1,27,-1
 20 40 l 1,28,-1
 20 30 l 1,29,-1
 50 30 l 1,30,-1
 50 40 l 1,31,-1
 60 40 l 1,32,-1
 60 0 l 1,33,-1
 50 0 l 1,34,-1
 50 20 l 1,35,-1
 20 20 l 1,36,-1
 20 0 l 1,37,-1
 10 0 l 1,38,-1
 10 40 l 1,39,-1
 10 40 l 1,27,-1
EndSplineSet
EndChar

StartChar: arrowright
Encoding: 8594 8594 338
Width: 60
VWidth: 95
GlyphClass: 1
Flags: W
LayerCount: 2
Fore
SplineSet
30 70 m 1,0,-1
 40 70 l 1,1,-1
 40 60 l 1,2,-1
 30 60 l 1,3,-1
 30 70 l 1,0,-1
40 60 m 1,4,-1
 50 60 l 1,5,-1
 50 50 l 1,6,-1
 60 50 l 1,7,-1
 60 40 l 1,8,-1
 50 40 l 1,9,-1
 50 30 l 1,10,-1
 40 30 l 1,11,-1
 40 40 l 1,12,-1
 10 40 l 1,13,-1
 10 50 l 1,14,-1
 40 50 l 1,15,-1
 40 60 l 1,16,-1
 40 60 l 1,4,-1
30 30 m 1,17,-1
 40 30 l 1,18,-1
 40 20 l 1,19,-1
 30 20 l 1,20,-1
 30 30 l 1,17,-1
EndSplineSet
EndChar

StartChar: arrowdblright
Encoding: 8658 8658 339
Width: 60
VWidth: 95
GlyphClass: 1
Flags: W
LayerCount: 2
Fore
SplineSet
20 80 m 1,0,-1
 30 80 l 1,1,-1
 30 70 l 1,2,-1
 20 70 l 1,3,-1
 20 80 l 1,4,-1
 20 80 l 1,0,-1
30 70 m 1,5,-1
 40 70 l 1,6,-1
 40 60 l 1,7,-1
 50 60 l 1,8,-1
 50 50 l 1,9,-1
 10 50 l 1,10,-1
 10 60 l 1,11,-1
 30 60 l 1,12,-1
 30 70 l 1,13,-1
 30 70 l 1,5,-1
50 50 m 1,14,-1
 60 50 l 1,15,-1
 60 40 l 1,16,-1
 50 40 l 1,17,-1
 50 50 l 1,14,-1
10 40 m 1,18,-1
 50 40 l 1,19,-1
 50 30 l 1,20,-1
 40 30 l 1,21,-1
 40 20 l 1,22,-1
 30 20 l 1,23,-1
 30 30 l 1,24,-1
 10 30 l 1,25,-1
 10 40 l 1,26,-1
 10 40 l 1,18,-1
20 20 m 1,27,-1
 30 20 l 1,28,-1
 30 10 l 1,29,-1
 20 10 l 1,30,-1
 20 20 l 1,31,-1
 20 20 l 1,27,-1
EndSplineSet
EndChar

StartChar: product
Encoding: 8719 8719 340
Width: 60
VWidth: 95
GlyphClass: 1
Flags: W
LayerCount: 2
Fore
SplineSet
10 90 m 1,0,-1
 60 90 l 1,1,-1
 60 80 l 1,2,-1
 50 80 l 1,3,-1
 50 0 l 1,4,-1
 40 0 l 1,5,-1
 40 80 l 1,6,-1
 30 80 l 1,7,-1
 30 0 l 1,8,-1
 20 0 l 1,9,-1
 20 80 l 1,10,-1
 10 80 l 1,11,-1
 10 90 l 1,12,-1
 10 90 l 1,0,-1
EndSplineSet
EndChar

StartChar: summation
Encoding: 8721 8721 341
Width: 60
VWidth: 95
GlyphClass: 1
Flags: W
LayerCount: 2
Fore
SplineSet
10 90 m 1,0,-1
 60 90 l 1,1,-1
 60 70 l 1,2,-1
 50 70 l 1,3,-1
 50 80 l 1,4,-1
 20 80 l 1,5,-1
 20 70 l 1,6,-1
 10 70 l 1,7,-1
 10 90 l 1,8,-1
 10 90 l 1,0,-1
20 70 m 1,9,-1
 30 70 l 1,10,-1
 30 60 l 1,11,-1
 20 60 l 1,12,-1
 20 70 l 1,13,-1
 20 70 l 1,9,-1
30 60 m 1,14,-1
 40 60 l 1,15,-1
 40 50 l 1,16,-1
 30 50 l 1,17,-1
 30 60 l 1,14,-1
40 50 m 1,18,-1
 50 50 l 1,19,-1
 50 40 l 1,20,-1
 40 40 l 1,21,-1
 40 50 l 1,18,-1
30 40 m 1,22,-1
 40 40 l 1,23,-1
 40 30 l 1,24,-1
 30 30 l 1,25,-1
 30 40 l 1,22,-1
20 30 m 1,26,-1
 30 30 l 1,27,-1
 30 20 l 1,28,-1
 20 20 l 1,29,-1
 20 30 l 1,30,-1
 20 30 l 1,26,-1
10 20 m 1,31,-1
 20 20 l 1,32,-1
 20 10 l 1,33,-1
 50 10 l 1,34,-1
 50 20 l 1,35,-1
 60 20 l 1,36,-1
 60 0 l 1,37,-1
 10 0 l 1,38,-1
 10 20 l 1,39,-1
 10 20 l 1,31,-1
EndSplineSet
EndChar

StartChar: minus
Encoding: 8722 8722 342
Width: 60
VWidth: 95
GlyphClass: 1
Flags: W
LayerCount: 2
Fore
SplineSet
20 50 m 1,0,-1
 50 50 l 1,1,-1
 50 40 l 1,2,-1
 20 40 l 1,3,-1
 20 50 l 1,4,-1
 20 50 l 1,0,-1
EndSplineSet
EndChar

StartChar: radical
Encoding: 8730 8730 343
Width: 60
VWidth: 95
GlyphClass: 1
Flags: W
LayerCount: 2
Fore
SplineSet
30 90 m 1,0,-1
 60 90 l 1,1,-1
 60 80 l 1,2,-1
 40 80 l 1,3,-1
 40 0 l 1,4,-1
 30 0 l 1,5,-1
 30 10 l 1,6,-1
 20 10 l 1,7,-1
 20 20 l 1,8,-1
 10 20 l 1,9,-1
 10 30 l 1,10,-1
 20 30 l 1,11,-1
 20 20 l 1,12,-1
 30 20 l 1,13,-1
 30 90 l 1,14,-1
 30 90 l 1,0,-1
EndSplineSet
EndChar

StartChar: angle
Encoding: 8736 8736 344
Width: 60
VWidth: 95
GlyphClass: 1
Flags: W
LayerCount: 2
Fore
SplineSet
40 80 m 1,0,-1
 50 80 l 1,1,-1
 50 60 l 1,2,-1
 40 60 l 1,3,-1
 40 80 l 1,0,-1
30 60 m 1,4,-1
 40 60 l 1,5,-1
 40 40 l 1,6,-1
 30 40 l 1,7,-1
 30 60 l 1,8,-1
 30 60 l 1,4,-1
20 40 m 1,9,-1
 30 40 l 1,10,-1
 30 20 l 1,11,-1
 20 20 l 1,12,-1
 20 40 l 1,13,-1
 20 40 l 1,9,-1
10 20 m 1,14,-1
 20 20 l 1,15,-1
 20 10 l 1,16,-1
 60 10 l 1,17,-1
 60 0 l 1,18,-1
 10 0 l 1,19,-1
 10 20 l 1,20,-1
 10 20 l 1,14,-1
EndSplineSet
EndChar

